<svg width="20" height="23" viewBox="0 0 20 23" fill="none" xmlns="http://www.w3.org/2000/svg">
<g id="undraw_asterisk 1" clip-path="url(#clip0_4_2089)">
<path id="Vector" d="M3.59796 6.60356C6.51887 10.3589 9.43978 14.1142 12.3607 17.8695C12.7798 18.4083 13.4877 18.6543 14.1055 18.2646C14.6398 17.9276 14.9222 17.0617 14.5006 16.5197C11.5797 12.7644 8.65882 9.00915 5.73791 5.25384C5.31878 4.71499 4.6109 4.46905 3.99307 4.85873C3.4588 5.19571 3.17642 6.06161 3.59796 6.60356Z" fill="#0046FF"/>
<path id="Vector_2" d="M2.84457 16.8568C7.79845 13.7824 12.7523 10.7079 17.7062 7.63351C19.0918 6.77359 17.7418 4.6338 16.3565 5.49356C11.4026 8.56799 6.44872 11.6424 1.49485 14.7169C0.109249 15.5768 1.45923 17.7166 2.84457 16.8568Z" fill="#0046FF"/>
<path id="Vector_3" d="M9.91189 2.49144C8.49452 8.20826 7.07716 13.9251 5.65979 19.6419C5.26777 21.2231 7.73538 21.7817 8.12736 20.2007C9.54473 14.4839 10.9621 8.76704 12.3795 3.05022C12.7715 1.46904 10.3039 0.910417 9.91189 2.49144Z" fill="#0046FF"/>
</g>
<defs>
<clipPath id="clip0_4_2089">
<rect width="15" height="20.109" fill="white" transform="translate(4.44123) rotate(12.7594)"/>
</clipPath>
</defs>
</svg>
