<svg width="200" height="153" viewBox="0 0 200 153" fill="none" xmlns="http://www.w3.org/2000/svg">
<g clip-path="url(#clip0_4_3777)">
<path d="M96.3523 56.7446C97.4462 55.5396 99.2529 55.8918 100.455 56.7423C102.002 57.8369 102.444 59.8359 102.673 61.6078C103.059 64.6075 103.173 68.8477 106.575 70.1018C108.146 70.6812 109.945 70.2027 111.273 69.2619C112.723 68.2343 113.627 66.6536 114.233 65.0153C114.966 63.0318 115.391 60.9101 115.751 58.8314C116.119 56.7057 116.36 54.5571 116.468 52.4025C116.574 50.2945 116.505 48.2004 116.421 46.0938C116.356 44.4491 116.331 42.722 116.887 41.1492C117.448 39.5608 118.752 38.3526 120.468 38.1932C122.133 38.0386 123.848 38.7407 125.052 39.8739C127.943 42.5929 128.079 47.0318 128.725 50.6775C129.064 52.5929 129.561 54.5312 130.601 56.1977C131.456 57.5683 132.645 58.7173 134.014 59.5698C136.776 61.2892 140.296 61.791 143.361 60.6097C146.353 59.4564 148.761 56.9352 149.804 53.9049C150.061 53.1565 150.22 52.3834 150.301 51.5969C150.338 51.2312 149.766 51.2338 149.729 51.5969C149.386 54.9397 147.24 57.9671 144.3 59.5526C141.274 61.1841 137.61 60.9771 134.654 59.2858C133.201 58.4543 131.937 57.2815 131.058 55.8513C129.993 54.1169 129.537 52.0952 129.205 50.1102C128.606 46.5251 128.334 42.4088 125.647 39.6562C123.563 37.5213 119.729 36.6646 117.489 39.0425C115.183 41.4911 115.874 45.4352 115.948 48.4747C116.056 52.9262 115.597 57.388 114.579 61.7231C114.137 63.6101 113.627 65.5559 112.516 67.174C111.5 68.6527 109.84 69.7988 107.991 69.7806C106.148 69.7624 104.853 68.4075 104.198 66.7922C103.508 65.088 103.463 63.2475 103.224 61.4486C103.004 59.7972 102.605 57.9698 101.366 56.7612C100.403 55.8214 98.9746 55.2165 97.6192 55.4326C96.9679 55.5365 96.3904 55.8529 95.948 56.3403C95.7011 56.6123 96.1043 57.0178 96.3523 56.7446Z" fill="#0046FF"/>
<path d="M178.985 117.874C178.663 117.331 177.271 117.912 177.015 117.42C176.76 116.929 178.053 116.182 178.792 114.473C178.926 114.165 179.766 112.224 179.144 111.625C177.965 110.49 172.572 115.175 170.685 113.642C170.271 113.306 169.981 112.634 168.728 111.543C168.229 111.109 167.927 110.913 167.636 110.986C167.222 111.09 167.189 111.644 166.745 112.734C166.079 114.368 165.685 114.269 165.297 115.573C165.009 116.541 165.075 117.104 164.736 117.214C164.256 117.369 163.815 116.342 163.207 116.434C162.586 116.528 162.211 117.723 162.093 118.618C161.871 120.298 162.488 121.406 162.829 122.571C163.201 123.838 163.421 125.764 162.563 128.49L154.072 152.416C155.946 147.507 161.375 134.048 163.656 129.047C164.314 127.603 165.041 126.139 166.534 125.561C167.971 125.005 169.945 125.337 172.462 124.731C172.755 124.66 173.571 124.452 173.674 123.973C173.759 123.576 173.279 123.355 173.353 122.983C173.451 122.485 174.395 122.479 175.554 121.904C176.371 121.499 176.881 121.017 177.319 120.602C177.451 120.477 179.413 118.597 178.985 117.874Z" fill="#F2F2F2"/>
<path d="M145.575 130.47C145.216 130.471 145.1 131.322 144.784 131.306C144.47 131.289 144.476 130.439 143.851 129.583C143.738 129.429 143.028 128.456 142.554 128.589C141.657 128.84 142.4 132.838 141.103 133.322C140.819 133.429 140.405 133.377 139.509 133.677C139.152 133.797 138.969 133.888 138.92 134.053C138.851 134.286 139.114 134.462 139.521 134.994C140.131 135.793 139.969 135.957 140.497 136.524C140.888 136.945 141.184 137.075 141.14 137.273C141.077 137.553 140.446 137.473 140.316 137.798C140.183 138.13 140.661 138.659 141.067 138.975C141.827 139.569 142.549 139.586 143.219 139.754C143.948 139.937 144.957 140.385 146.048 141.593L155.34 152.664C153.472 150.327 148.433 143.78 146.636 141.217C146.117 140.478 145.609 139.698 145.756 138.799C145.897 137.933 146.63 137.06 147.058 135.65C147.108 135.485 147.242 135.025 147.036 134.836C146.866 134.68 146.619 134.852 146.458 134.708C146.242 134.516 146.511 134.051 146.563 133.316C146.6 132.798 146.511 132.409 146.433 132.075C146.41 131.974 146.053 130.468 145.575 130.47Z" fill="#F2F2F2"/>
<path d="M152.742 132.078L152.525 130.146L152.624 130C153.082 129.323 153.315 128.661 153.318 128.034C153.318 127.934 153.313 127.834 153.309 127.732C153.29 127.329 153.267 126.828 153.528 126.244C153.674 125.919 154.086 125.165 154.704 125.258C154.871 125.282 154.997 125.358 155.092 125.448C155.106 125.425 155.121 125.403 155.136 125.379C155.329 125.085 155.481 124.959 155.628 124.838C155.741 124.744 155.858 124.648 156.041 124.421C156.121 124.321 156.183 124.233 156.236 124.159C156.396 123.936 156.605 123.671 156.973 123.675C157.367 123.694 157.573 124.019 157.71 124.235C157.954 124.619 158.064 124.896 158.138 125.08C158.164 125.147 158.195 125.223 158.21 125.246C158.337 125.433 159.368 125.258 159.757 125.195C160.629 125.049 161.384 124.923 161.696 125.474C161.919 125.867 161.753 126.388 161.189 127.062C161.013 127.272 160.826 127.432 160.66 127.557C160.797 127.639 160.92 127.765 160.97 127.963C161.088 128.431 160.685 128.9 159.774 129.359C159.548 129.474 159.244 129.627 158.817 129.701C158.616 129.735 158.435 129.743 158.28 129.748C158.277 129.838 158.256 129.935 158.201 130.035C158.041 130.328 157.708 130.468 157.206 130.435C156.654 130.406 156.199 130.3 155.798 130.208C155.448 130.128 155.146 130.06 154.909 130.076C154.47 130.111 154.131 130.463 153.734 130.919L152.742 132.078Z" fill="#F2F2F2"/>
<path d="M153.745 120.576L151.932 121.275L151.765 121.216C150.994 120.946 150.295 120.888 149.687 121.044C149.59 121.069 149.495 121.099 149.398 121.129C149.013 121.25 148.534 121.399 147.903 121.295C147.551 121.236 146.717 121.029 146.651 120.407C146.631 120.24 146.673 120.099 146.735 119.984C146.71 119.976 146.685 119.967 146.657 119.959C146.324 119.847 146.164 119.731 146.009 119.62C145.89 119.534 145.768 119.446 145.501 119.327C145.384 119.275 145.284 119.236 145.199 119.204C144.943 119.106 144.633 118.971 144.544 118.614C144.462 118.228 144.725 117.946 144.898 117.759C145.208 117.426 145.448 117.249 145.607 117.131C145.666 117.088 145.731 117.04 145.75 117.019C145.898 116.849 145.468 115.896 145.308 115.536C144.946 114.729 144.632 114.03 145.086 113.59C145.41 113.274 145.955 113.302 146.751 113.677C146.999 113.794 147.2 113.934 147.363 114.063C147.408 113.909 147.498 113.758 147.677 113.66C148.1 113.427 148.656 113.698 149.331 114.463C149.5 114.652 149.725 114.908 149.904 115.302C149.989 115.488 150.043 115.661 150.087 115.809C150.174 115.79 150.273 115.786 150.384 115.813C150.708 115.893 150.928 116.18 151.023 116.674C151.135 117.215 151.149 117.682 151.161 118.093C151.172 118.453 151.183 118.762 151.258 118.987C151.404 119.403 151.83 119.641 152.372 119.91L153.745 120.576Z" fill="#F2F2F2"/>
<path d="M152.742 114.884L152.525 112.952L152.624 112.806C153.082 112.128 153.315 111.467 153.318 110.839C153.318 110.739 153.313 110.64 153.309 110.538C153.29 110.135 153.267 109.634 153.528 109.05C153.674 108.724 154.086 107.971 154.704 108.064C154.871 108.087 154.997 108.164 155.092 108.253C155.106 108.231 155.121 108.209 155.136 108.184C155.329 107.89 155.481 107.765 155.628 107.643C155.741 107.55 155.858 107.454 156.041 107.226C156.121 107.126 156.183 107.039 156.236 106.965C156.396 106.742 156.605 106.476 156.973 106.481C157.367 106.5 157.573 106.825 157.71 107.041C157.954 107.425 158.064 107.702 158.138 107.886C158.164 107.953 158.195 108.028 158.21 108.052C158.337 108.238 159.368 108.064 159.757 108.001C160.629 107.855 161.384 107.729 161.696 108.279C161.919 108.673 161.753 109.194 161.189 109.868C161.013 110.078 160.826 110.238 160.66 110.363C160.797 110.445 160.92 110.571 160.97 110.768C161.088 111.237 160.685 111.706 159.774 112.165C159.548 112.28 159.244 112.433 158.817 112.506C158.616 112.541 158.435 112.549 158.28 112.554C158.277 112.643 158.256 112.74 158.201 112.84C158.041 113.134 157.708 113.274 157.206 113.24C156.654 113.211 156.199 113.106 155.798 113.014C155.448 112.933 155.146 112.865 154.909 112.881C154.47 112.917 154.131 113.268 153.734 113.725L152.742 114.884Z" fill="#F2F2F2"/>
<path d="M154.718 152.385L154.313 152.131L153.841 152.185C153.834 152.141 153.808 152.041 153.77 151.883C153.558 151.019 152.914 148.39 152.377 144.25C152.002 141.36 151.79 138.389 151.746 135.418C151.702 132.442 151.843 130.189 151.956 128.379C152.041 127.013 152.145 125.713 152.246 124.446C152.517 121.061 152.772 117.865 152.582 114.325C152.54 113.535 152.452 111.891 151.491 110.141C150.934 109.126 150.166 108.224 149.209 107.463L149.804 106.715C150.86 107.557 151.71 108.555 152.329 109.682C153.394 111.622 153.49 113.414 153.536 114.275C153.729 117.877 153.472 121.104 153.198 124.521C153.097 125.784 152.994 127.078 152.909 128.439C152.797 130.232 152.658 132.466 152.701 135.403C152.744 138.339 152.954 141.274 153.324 144.127C153.854 148.215 154.489 150.805 154.698 151.655C154.809 152.11 154.832 152.205 154.718 152.385Z" fill="#F2F2F2"/>
<path d="M147.457 108.981C147.418 108.981 147.378 108.98 147.338 108.977C146.524 108.933 145.771 108.446 145.099 107.53C144.783 107.099 144.622 106.608 144.3 105.627C144.25 105.476 144.008 104.709 143.86 103.654C143.764 102.965 143.776 102.677 143.912 102.422C144.064 102.138 144.309 101.941 144.586 101.807C144.573 101.716 144.583 101.622 144.623 101.526C144.786 101.127 145.218 101.179 145.453 101.205C145.571 101.22 145.719 101.239 145.878 101.231C146.129 101.219 146.264 101.144 146.469 101.032C146.664 100.925 146.907 100.791 147.268 100.718C147.978 100.569 148.574 100.771 148.77 100.837C149.803 101.181 150.313 101.985 150.902 102.915C151.02 103.101 151.423 103.78 151.69 104.711C151.882 105.383 151.855 105.681 151.797 105.903C151.679 106.36 151.402 106.621 150.697 107.197C149.961 107.801 149.592 108.103 149.275 108.287C148.536 108.713 148.073 108.981 147.457 108.981Z" fill="#F2F2F2"/>
<path d="M127.246 33.2915H114.201C113.872 33.2915 113.605 33.024 113.605 32.6951C113.605 32.3662 113.872 32.0988 114.201 32.0988H127.246C127.575 32.0988 127.842 32.3662 127.842 32.6951C127.842 33.024 127.575 33.2915 127.246 33.2915Z" fill="#E6E6E6"/>
<path d="M147.449 67.98H134.404C134.076 67.98 133.808 67.7124 133.808 67.3836C133.808 67.0547 134.076 66.7872 134.404 66.7872H147.449C147.778 66.7872 148.045 67.0547 148.045 67.3836C148.045 67.7124 147.778 67.98 147.449 67.98Z" fill="#E6E6E6"/>
<path d="M158.122 91.6139H145.078C144.749 91.6139 144.481 91.3463 144.481 91.0175C144.481 90.6886 144.749 90.4211 145.078 90.4211H158.122C158.451 90.4211 158.719 90.6886 158.719 91.0175C158.719 91.3463 158.451 91.6139 158.122 91.6139Z" fill="#E6E6E6"/>
<path d="M98.6565 20.3311H85.6118C85.283 20.3311 85.0154 20.0635 85.0154 19.7346C85.0154 19.4058 85.283 19.1383 85.6118 19.1383H98.6565C98.9853 19.1383 99.2528 19.4058 99.2528 19.7346C99.2528 20.0635 98.9853 20.3311 98.6565 20.3311Z" fill="#E6E6E6"/>
<path d="M0 151.941C0 152.193 0.202043 152.395 0.453641 152.395H199.546C199.798 152.395 200 152.193 200 151.941C200 151.689 199.798 151.487 199.546 151.487H0.453641C0.202043 151.487 0 151.689 0 151.941Z" fill="#CCCCCC"/>
<path d="M151.428 84.6931H92.3049C92.0944 84.6931 91.9237 84.5224 91.9237 84.3119V27.8955C91.9237 27.6848 92.0944 27.5143 92.3049 27.5143C92.5154 27.5143 92.6861 27.6848 92.6861 27.8955V50.915C92.6861 69.1491 107.468 83.9307 125.702 83.9307H151.428C151.638 83.9307 151.809 84.1012 151.809 84.3119C151.809 84.5226 151.638 84.6931 151.428 84.6931Z" fill="#E6E6E6"/>
<path d="M104.756 62.0196H91.711C91.3821 62.0196 91.1145 61.752 91.1145 61.4231C91.1145 61.0942 91.3821 60.8268 91.711 60.8268H104.756C105.084 60.8268 105.352 61.0942 105.352 61.4231C105.352 61.752 105.084 62.0196 104.756 62.0196Z" fill="#E6E6E6"/>
<path d="M91.8215 63.7168C93.8903 63.0336 95.2147 61.4123 94.7797 60.0958C94.3446 58.7793 92.3152 58.2662 90.2457 58.9499C89.4153 59.2117 88.6597 59.6686 88.042 60.2822L79.313 63.2877L80.8107 67.3539L89.257 63.9594C90.1189 64.0845 90.9983 64.0013 91.8215 63.7168Z" fill="#FFB6B6"/>
<path d="M46.9504 87.0218C47.021 89.1994 48.2018 90.928 49.5876 90.8828C50.9734 90.8377 52.0392 89.036 51.9682 86.8576C51.9518 85.9871 51.7272 85.1332 51.3131 84.3672L50.8973 75.1447L46.5736 75.432L47.4425 84.4933C47.0789 85.2848 46.9101 86.1518 46.9504 87.0218Z" fill="#FFB6B6"/>
<path d="M56.9324 149.165L60.7918 149.164L61.7806 134.179L56.9316 134.278L56.9324 149.165Z" fill="#FFB6B6"/>
<path d="M70.155 149.077C70.2752 149.279 70.3386 149.933 70.3386 150.168C70.3386 150.891 69.7522 151.478 69.0287 151.478H57.0767C56.5832 151.478 56.1831 151.078 56.1831 150.584V150.087C56.1831 150.087 55.5919 148.591 56.8091 146.748C56.8091 146.748 58.3221 148.191 60.5828 145.93L61.2494 144.723L66.0751 148.252L68.7499 148.581C69.3351 148.653 69.854 148.57 70.155 149.077Z" fill="#2F2E41"/>
<path d="M66.0811 149.165L69.9405 149.164L70.9293 134.179L66.0803 134.278L66.0811 149.165Z" fill="#FFB6B6"/>
<path d="M79.3037 149.077C79.4239 149.279 79.4873 149.933 79.4873 150.168C79.4873 150.891 78.9008 151.478 78.1774 151.478H66.2254C65.7319 151.478 65.3318 151.078 65.3318 150.584V150.087C65.3318 150.087 64.7405 148.591 65.9578 146.748C65.9578 146.748 67.4708 148.191 69.7314 145.93L70.3981 144.723L75.2238 148.252L77.8986 148.581C78.4838 148.653 79.0027 148.57 79.3037 149.077Z" fill="#2F2E41"/>
<path d="M59.1782 37.553C62.3136 37.553 64.8553 35.0112 64.8553 31.8758C64.8553 28.7404 62.3136 26.1986 59.1782 26.1986C56.0427 26.1986 53.501 28.7404 53.501 31.8758C53.501 35.0112 56.0427 37.553 59.1782 37.553Z" fill="#FFB6B6"/>
<path d="M51.323 79.0972L53.9913 117.216L55.5161 142.756L62.7588 142.375L61.9964 114.548L63.5211 97.3944L65.8083 142.375H71.5727L73.8133 79.4784L61.4246 77.7631L51.323 79.0972Z" fill="#2F2E41"/>
<path d="M61.234 36.4038C59.6193 37.9581 55.8877 36.9275 53.9913 36.4038C52.9475 36.1155 52.3176 35.8184 52.0854 35.2602C51.924 34.8722 52.0157 34.5042 51.7042 33.7354C51.5217 33.2851 51.4255 33.2515 51.323 32.973C51.0372 32.1968 51.4342 31.5053 51.7042 30.6859C52.2676 28.9762 51.5949 28.7842 52.0854 27.6364C52.8227 25.9108 54.8285 25.2087 55.5161 24.968C56.7999 24.5187 57.8706 24.5662 58.1845 24.5868C60.1954 24.7192 61.5399 25.7511 61.9964 26.1116C62.9218 26.8423 63.3757 27.6153 64.2835 29.1611C65.0735 30.5063 65.1311 31.0226 65.0459 31.4483C64.9161 32.097 64.542 32.0994 64.2835 32.973C63.9902 33.9647 64.3239 34.4631 63.9023 34.879C63.6174 35.1601 63.3526 35.0432 62.7588 35.2602C61.9415 35.5589 61.538 36.1111 61.234 36.4038Z" fill="#2F2E41"/>
<path d="M65.8083 42.1217C65.8083 42.1217 60.0904 34.879 52.8478 37.5474L50.5021 42.1217L49.7184 42.8635C46.4309 45.9754 44.9014 50.5154 45.6357 54.9822L49.0358 75.6666C49.0358 75.6666 48.6547 83.6716 51.323 85.9587C51.323 85.9587 55.1349 78.7161 64.2835 82.1468C73.4321 85.5775 75.3381 83.6716 75.3381 83.6716L72.2886 61.9436L65.8083 42.1217Z" fill="#2F2E41"/>
<path d="M63.9024 43.2652L61.9965 47.4583L69.2391 71.8546L89.0611 64.612L86.3927 60.0377L76.8629 62.706C76.8629 62.706 69.6203 41.3593 63.9024 43.2652Z" fill="#2F2E41"/>
<path d="M50.37 81.5751H46.1769L45.4146 51.0797L50.37 61.3719V81.5751Z" fill="#2F2E41"/>
<path d="M96.3036 58.3223C97.251 58.3223 98.019 57.5543 98.019 56.607C98.019 55.6596 97.251 54.8916 96.3036 54.8916C95.3563 54.8916 94.5883 55.6596 94.5883 56.607C94.5883 57.5543 95.3563 58.3223 96.3036 58.3223Z" fill="#3F3D56"/>
<path d="M107.739 71.6641C108.687 71.6641 109.455 70.8961 109.455 69.9488C109.455 69.0014 108.687 68.2334 107.739 68.2334C106.792 68.2334 106.024 69.0014 106.024 69.9488C106.024 70.8961 106.792 71.6641 107.739 71.6641Z" fill="#3F3D56"/>
<path d="M120.7 39.644C121.647 39.644 122.415 38.876 122.415 37.9286C122.415 36.9813 121.647 36.2133 120.7 36.2133C119.753 36.2133 118.985 36.9813 118.985 37.9286C118.985 38.876 119.753 39.644 120.7 39.644Z" fill="#3F3D56"/>
<path d="M139.76 62.5154C140.707 62.5154 141.475 61.7474 141.475 60.8001C141.475 59.8527 140.707 59.0847 139.76 59.0847C138.812 59.0847 138.044 59.8527 138.044 60.8001C138.044 61.7474 138.812 62.5154 139.76 62.5154Z" fill="#3F3D56"/>
<path d="M150.814 53.3669C151.761 53.3669 152.529 52.5989 152.529 51.6515C152.529 50.7042 151.761 49.9362 150.814 49.9362C149.867 49.9362 149.099 50.7042 149.099 51.6515C149.099 52.5989 149.867 53.3669 150.814 53.3669Z" fill="#3F3D56"/>
<path d="M147.546 15.2568L150.683 16.7429C149.397 14.9472 148.288 12.1427 147.694 9.91101C146.689 11.9898 145.069 14.5334 143.465 16.0528L146.781 15.1998C144.738 25.2129 137.053 32.4013 128.253 32.4013L128.129 32.763C137.321 32.763 145.46 25.6742 147.546 15.2568Z" fill="#3F3D56"/>
<path d="M138.062 0H157.884C158.725 0 159.409 0.684022 159.409 1.52477C159.409 2.36551 158.725 3.04954 157.884 3.04954H138.062C137.222 3.04954 136.538 2.36551 136.538 1.52477C136.538 0.684022 137.222 0 138.062 0Z" fill="#0046FF"/>
<path d="M151.454 87.8129C151.245 87.8129 151.034 87.7664 150.833 87.6722C150.338 87.4396 150.027 86.9743 150.001 86.4278L149.796 81.9961C149.77 81.4269 150.067 80.9094 150.571 80.6451C151.076 80.3808 151.671 80.4322 152.123 80.7777L155.142 83.086C155.505 83.3634 155.712 83.7847 155.71 84.2411C155.709 84.6983 155.499 85.1178 155.134 85.3933L152.322 87.517C152.062 87.7128 151.76 87.8129 151.454 87.8129Z" fill="#E6E6E6"/>
<path d="M95.8105 28.265C95.8105 28.474 95.764 28.6849 95.6698 28.8858C95.4371 29.381 94.9718 29.6921 94.4253 29.7174L89.9936 29.9229C89.4244 29.9493 88.907 29.6522 88.6427 29.1475C88.3784 28.6429 88.4298 28.048 88.7752 27.5955L91.0836 24.5772C91.3609 24.2143 91.7823 24.0069 92.2387 24.0084C92.6958 24.0097 93.1154 24.2197 93.3908 24.5843L95.5146 27.3971C95.7104 27.6567 95.8105 27.9588 95.8105 28.265Z" fill="#E6E6E6"/>
<path d="M120.559 24.3402C118.302 23.7996 115.891 24.2889 113.962 25.5632C111.939 26.8995 110.6 29.0393 110.147 31.4099C109.211 36.3007 112.069 41.1864 116.585 43.133C121.332 45.1793 126.98 43.8063 130.428 40.0084C132.136 38.126 133.204 35.7445 133.526 33.2261C133.843 30.7452 133.481 27.8828 131.979 25.8122C130.489 23.7583 128.008 23.0691 125.611 22.7325C123.286 22.4059 120.202 22.264 118.944 24.7251C118.705 25.1943 118.592 25.7 118.619 26.2262C118.637 26.5924 119.209 26.5946 119.19 26.2262C119.132 25.0755 119.899 24.114 120.883 23.5969C122.022 22.9975 123.397 23.0482 124.64 23.1818C126.884 23.423 129.431 23.8533 131.049 25.5766C132.661 27.2932 133.144 29.9092 133.044 32.1879C132.94 34.5664 132.12 36.9074 130.684 38.8096C127.851 42.5633 122.893 44.3491 118.332 43.1365C113.888 41.955 113.83 39.3176 113.903 34.6471C113.942 32.1554 111.588 28.2334 113.51 26.6097C115.392 25.02 117.999 24.3148 120.407 24.8916C120.765 24.9772 120.917 24.426 120.559 24.3402Z" fill="#0046FF"/>
</g>
<defs>
<clipPath id="clip0_4_3777">
<rect width="200" height="152.664" fill="white"/>
</clipPath>
</defs>
</svg>
