<svg width="180" height="148" viewBox="0 0 180 148" fill="none" xmlns="http://www.w3.org/2000/svg">
<g clip-path="url(#clip0_4_3820)">
<path d="M158.545 110.059H156.496V116.146H158.545V110.059Z" fill="#F2F2F2"/>
<path d="M168.936 114.741H146.107C144.409 114.741 143.033 113.365 143.033 111.668C143.033 109.971 144.409 108.595 146.107 108.595H168.936C170.633 108.595 172.009 109.971 172.009 111.668C172.009 113.365 170.633 114.741 168.936 114.741Z" fill="#F2F2F2"/>
<path d="M170.692 114.741C172.066 114.741 173.18 113.627 173.18 112.253V82.6926C173.18 81.3186 172.066 80.2048 170.692 80.2048C169.318 80.2048 168.204 81.3186 168.204 82.6926C160.648 88.4751 163.719 99.9833 168.204 112.253C168.204 113.627 169.318 114.741 170.692 114.741Z" fill="#F2F2F2"/>
<path d="M167.642 101.748C167.304 103.262 166.668 104.457 165.869 105.399C164.242 107.325 161.936 108.198 160.117 108.594C158.483 108.952 157.243 108.923 157.243 108.923L149.562 109.556L143.492 110.056L137.392 110.559C137.74 112.021 138.071 113.7 138.386 115.496C138.422 115.71 138.461 115.928 138.5 116.146H126.113L125.905 115.496L124.632 111.55L122.05 105.909C121.579 104.989 121.342 103.986 121.342 102.976C121.342 102.304 121.449 101.634 121.66 100.985C121.663 100.975 121.663 100.965 121.666 100.956C122.163 99.4552 123.391 98.3055 124.911 97.8476L126.746 97.2922C131.949 96.0775 139.24 94.1841 144.8 92.7161C149.445 91.4884 152.878 90.5531 152.878 90.5531L152.887 90.4881L153.849 83.9146L163.433 83.0734L166.548 82.7974C166.548 82.7974 166.479 83.1221 166.505 84.2881C166.505 84.3595 166.505 84.4342 166.509 84.5089C166.515 84.7363 166.525 84.9961 166.538 85.2851C166.541 85.3826 166.548 85.4833 166.554 85.5872C166.564 85.7886 166.577 86.0029 166.593 86.2335C166.593 86.2498 166.593 86.266 166.596 86.2822C166.613 86.5713 166.635 86.8863 166.664 87.2241C166.671 87.3637 166.684 87.5066 166.697 87.6528C166.759 88.39 166.837 89.2345 166.937 90.1958C166.944 90.2932 166.954 90.3907 166.966 90.4881C166.979 90.6407 166.996 90.7934 167.012 90.9493C167.044 91.2221 167.074 91.5014 167.106 91.7937C167.109 91.8229 167.113 91.8489 167.116 91.8781C167.145 92.1347 167.178 92.3978 167.207 92.6706C167.243 92.9662 167.278 93.2682 167.317 93.5767C167.34 93.7846 167.366 93.999 167.395 94.2198C167.408 94.3237 167.421 94.4309 167.434 94.5381C167.45 94.6518 167.463 94.7687 167.48 94.8856C167.506 95.0934 167.532 95.3078 167.561 95.5254C167.623 96.0093 167.691 96.5095 167.759 97.0291C168.009 98.8706 167.938 100.433 167.642 101.748Z" fill="#2F2E41"/>
<path d="M167.642 101.748L165.132 102.833L151.786 108.594L149.562 109.556L144.099 111.914C144.255 112.735 144.42 113.547 144.599 114.346C144.683 114.733 144.768 115.116 144.859 115.496C144.911 115.714 144.96 115.928 145.015 116.146H133.959L133.875 115.496L133.553 112.953C132.914 112.381 132.537 111.287 132.309 110.124C132.082 108.965 132.001 107.727 131.946 106.87C131.946 106.86 131.946 106.847 131.942 106.837C131.852 105.253 134.947 104.2 136.184 103.213L137.704 102.71C140.845 100.53 145.512 97.2305 150.029 94.0249C151.741 92.8103 153.433 91.6086 155.008 90.4881C159.906 87 163.719 84.2751 163.719 84.2751L163.433 83.0734L166.548 82.7974C166.548 82.7974 166.479 83.1221 166.505 84.2881C166.505 84.3595 166.505 84.4342 166.509 84.5089C166.515 84.7395 166.525 84.9961 166.538 85.2852C166.541 85.3826 166.548 85.4833 166.554 85.5872C166.564 85.7886 166.577 86.0029 166.593 86.2335C166.593 86.2498 166.593 86.266 166.596 86.2822C166.613 86.5713 166.635 86.8863 166.664 87.2241C166.671 87.3637 166.684 87.5066 166.697 87.6528C166.755 88.39 166.833 89.2312 166.937 90.1958C166.944 90.2932 166.954 90.3907 166.967 90.4881C166.979 90.6407 166.996 90.7934 167.012 90.9493C167.044 91.2221 167.074 91.5047 167.106 91.7937C167.109 91.8229 167.113 91.8489 167.116 91.8781C167.145 92.1347 167.178 92.3978 167.207 92.6706C167.243 92.9662 167.278 93.2682 167.317 93.5767C167.343 93.7878 167.369 94.0022 167.395 94.2198C167.408 94.3237 167.421 94.4309 167.434 94.5381C167.45 94.6518 167.463 94.7687 167.48 94.8856C167.506 95.0935 167.532 95.3078 167.561 95.5254C167.623 96.0093 167.691 96.5095 167.759 97.0291C168.009 98.8706 167.938 100.433 167.642 101.748Z" fill="#2F2E41"/>
<path d="M169.641 86.1338C170.151 88.3131 169.946 89.8071 169.745 91.9376C169.67 92.7236 169.927 93.8538 169.163 94.3832C168.511 94.8281 145.026 94.617 144.808 92.7983C144.561 90.7424 145.042 88.5859 146.046 86.7314C147.861 83.3732 148.901 79.2615 149.433 76.3418C150.56 70.2067 148.02 66.8745 148.969 60.7557C149.131 59.7131 149.164 58.7258 149.125 57.7807C148.995 54.4972 147.981 51.7106 148.303 48.8818C148.436 47.7191 148.793 46.5499 149.531 45.3352C149.748 44.9747 149.998 44.611 150.287 44.244C151.963 42.1069 152.402 40.496 155.312 40.4993C155.757 40.4993 156.231 40.47 156.711 40.4473C157.481 40.4051 158.267 40.3759 158.962 40.4993C160.631 40.7948 160.261 41.8439 161.34 42.9936L161.755 43.4093C162.795 44.2277 163.694 44.8675 164.604 45.8549C166.429 47.836 168.595 50.064 169.67 52.5388C170.398 54.2179 169.956 56.7836 169.936 58.6154C169.914 60.97 169.186 62.9479 168.579 65.1922C168.049 67.1408 167.91 69.1869 167.549 71.1778C167.085 73.7533 166.663 76.2931 166.448 78.888C166.283 80.9244 169.154 77.5565 169.16 79.5961C169.167 81.7104 169.16 84.0877 169.641 86.1338Z" fill="#3F3D56"/>
<path d="M128.96 46.9083L136.192 48.203L136.029 52.4377L128.431 50.7967C128.224 50.9128 127.997 51.0012 127.753 51.0545C126.426 51.3445 125.116 50.504 124.826 49.1771C124.536 47.8502 125.376 46.5395 126.703 46.2495C127.549 46.0645 128.388 46.3407 128.96 46.9083Z" fill="#FFB6B6"/>
<path d="M157.926 56.8486C157.608 57.4981 157.114 58.06 156.481 58.4692C155.545 59.0733 154.448 59.2389 153.431 59.0181C153.308 58.9921 152.889 58.8752 152.246 58.6868C152.135 58.6543 152.018 58.6219 151.895 58.5861C151.164 58.375 150.213 58.0957 149.125 57.7807C148.046 57.4656 146.825 57.1116 145.562 56.7479L145.555 56.7511C145.172 56.6342 144.776 56.5205 144.383 56.4069H144.376C141.437 55.5722 138.361 54.7213 136.12 54.1756C136.017 54.1464 135.477 54.6628 135.377 54.6368C135.221 54.5978 135.192 54.0035 135.045 53.9678C134.73 53.8898 134.318 54.3803 134.058 54.3153C133.113 54.0847 132.736 52.0743 132.736 52.0743L132.778 51.7366L133.253 47.6768L133.259 47.6054L135.932 46.7642L136.822 47.6249L138.056 47.1117L139.206 47.9724L141.554 48.2062L142.567 48.3101L142.635 48.3134L148.303 48.8818L149.972 49.0506C149.839 48.3751 149.735 47.706 149.66 47.0468C149.641 46.8616 149.621 46.6798 149.608 46.4979L149.605 46.4946C149.57 46.1049 149.547 45.7217 149.531 45.3352C149.748 44.9747 149.998 44.6109 150.287 44.2439C151.963 42.1069 152.402 40.496 155.312 40.4992C155.757 40.4992 156.231 40.47 156.711 40.4473L157.462 47.0922L158.287 54.3997L158.313 54.6368C158.397 55.4163 158.257 56.1795 157.926 56.8486Z" fill="#3F3D56"/>
<path d="M143.881 44.8011C143.511 44.5348 143.037 44.4861 142.618 44.6712L129.997 50.2346C128.847 50.7413 127.548 50.8322 126.34 50.4912L126.155 50.4392C126.681 45.7699 125.339 40.7448 122.706 35.4735C122.365 35.428 122.024 35.5189 121.748 35.7333C121.423 35.9866 121.241 36.3699 121.254 36.7856L121.65 51.4201L121.784 56.2788C118.905 59.7268 117.864 62.9169 122.03 65.3758C122.043 65.8337 122.293 66.2429 122.696 66.4638C123.099 66.6879 123.576 66.6814 123.973 66.4475L124.229 66.2949L127.694 71.1503C127.925 71.0594 128.165 71.0139 128.409 71.0139C128.744 71.0139 129.078 71.0984 129.377 71.2705L135.681 74.8983L139.974 77.3698C140.358 77.5907 140.822 77.6004 141.215 77.3958C141.608 77.188 141.861 76.8015 141.9 76.3598L142.02 74.8983L142.42 70.0916L143.076 62.1605L143.388 58.3768L143.436 57.8117L144.417 45.9541C144.456 45.4961 144.255 45.0641 143.881 44.8011Z" fill="#F2F2F2"/>
<path d="M144.856 46.425C144.486 46.1587 144.011 46.1099 143.592 46.2951C139.027 49.8101 134.612 52.6276 130.972 51.8585C129.822 52.3652 128.523 52.4561 127.315 52.1151L127.129 52.0631C127.655 47.3938 126.314 42.3687 123.68 37.0974C123.339 37.0519 122.998 37.1428 122.722 37.3572C122.397 37.6105 122.216 37.9938 122.229 38.4095L122.625 53.044L122.758 57.9027C119.88 61.3507 118.839 64.5408 123.005 66.9997C123.018 67.4576 123.268 67.8668 123.671 68.0877C124.073 68.3118 124.551 68.3053 124.947 68.0715L125.203 67.9188L128.669 72.7742C128.899 72.6833 129.14 72.6378 129.383 72.6378C129.718 72.6378 130.052 72.7223 130.351 72.8944L136.655 76.5222L140.949 78.9937C141.332 79.2146 141.796 79.2243 142.189 79.0197C142.582 78.8119 142.836 78.4254 142.875 77.9837L142.995 76.5222L143.394 71.7155L144.05 63.7844L144.362 60.0007L144.411 59.4356L145.392 47.578C145.431 47.12 145.229 46.688 144.856 46.425Z" fill="#E6E6E6"/>
<path d="M142.516 53.0118L132.83 55.3674L132.968 55.9361L142.654 53.5805L142.516 53.0118Z" fill="white"/>
<path d="M142.516 57.4021L132.83 59.7577L132.968 60.3263L142.654 57.9707L142.516 57.4021Z" fill="white"/>
<path d="M132.765 63.1495L132.753 63.7346L142.719 63.9447L142.731 63.3596L132.765 63.1495Z" fill="white"/>
<path d="M132.783 67.3559L132.749 67.9402L142.701 68.5187L142.735 67.9344L132.783 67.3559Z" fill="white"/>
<path d="M132.282 71.5414L132.189 72.1193L142.032 73.699L142.124 73.1212L132.282 71.5414Z" fill="white"/>
<path d="M102.497 76.5227H177.551C178.197 76.5227 178.72 78.0048 178.72 79.8331V87.1777C178.72 89.006 178.197 90.4882 177.551 90.4882H113.539C112.894 90.4882 112.371 89.006 112.371 87.1777L101.328 79.8331C101.328 78.0048 101.851 76.5227 102.497 76.5227Z" fill="#F2F2F2"/>
<path d="M156.402 29.6206C156.35 29.5297 156.294 29.442 156.236 29.3575C156.181 29.2698 156.119 29.1854 156.057 29.1042C156.028 29.062 155.999 29.023 155.966 28.9873C155.674 28.6138 155.349 28.3117 155.018 28.1299C154.995 28.1169 154.973 28.1039 154.95 28.0942C154.898 28.0649 154.846 28.0422 154.791 28.0227C154.69 27.9837 154.589 27.9545 154.485 27.9415C154.437 27.935 154.388 27.9318 154.339 27.9318C154.304 27.9318 154.268 27.935 154.232 27.9383C154.213 27.9415 154.19 27.9447 154.167 27.948C154.141 27.9512 154.112 27.9578 154.086 27.9642C154.057 27.9707 154.028 27.9805 154.002 27.9902C153.976 28 153.946 28.0097 153.92 28.0227C153.891 28.0357 153.862 28.0487 153.836 28.0649C153.807 28.0812 153.781 28.0974 153.755 28.1136C153.725 28.1331 153.7 28.1526 153.674 28.1721C154.667 28.734 155.642 29.3316 156.59 29.9584C156.532 29.8415 156.47 29.731 156.402 29.6206Z" fill="#3F3D56"/>
<path d="M156.402 29.6206C156.35 29.5297 156.294 29.442 156.236 29.3575C156.181 29.2698 156.119 29.1854 156.057 29.1042C156.028 29.062 155.999 29.023 155.966 28.9873C155.674 28.6138 155.349 28.3117 155.018 28.1299C154.995 28.1169 154.973 28.1039 154.95 28.0942C154.898 28.0649 154.846 28.0422 154.791 28.0227C154.69 27.9837 154.589 27.9545 154.485 27.9415C154.437 27.935 154.388 27.9318 154.339 27.9318C154.304 27.9318 154.268 27.935 154.232 27.9383C154.213 27.9415 154.19 27.9447 154.167 27.948C154.141 27.9512 154.112 27.9578 154.086 27.9642C154.057 27.9707 154.028 27.9805 154.002 27.9902C153.976 28 153.946 28.0097 153.92 28.0227C153.891 28.0357 153.862 28.0487 153.836 28.0649C153.807 28.0812 153.781 28.0974 153.755 28.1136C153.725 28.1331 153.7 28.1526 153.674 28.1721C154.667 28.734 155.642 29.3316 156.59 29.9584C156.532 29.8415 156.47 29.731 156.402 29.6206Z" fill="#3F3D56"/>
<path d="M172.631 20.9847H67.4644V21.6343H128.789C135.015 21.6343 140.975 22.758 146.483 24.8171H146.486C147.243 25.0997 147.987 25.3985 148.724 25.7168C150.426 26.4443 152.076 27.266 153.674 28.1721C154.667 28.734 155.642 29.3315 156.59 29.9584C158.617 31.2932 160.539 32.7709 162.345 34.3786L162.348 34.3818C162.43 34.45 162.507 34.5183 162.585 34.593C172.878 43.8459 179.35 57.2657 179.35 72.1957V108.775C179.35 112.407 176.473 115.362 173.18 111.942C173.105 111.864 173.03 111.786 172.956 111.702H110.01V116.145H172.631C176.694 116.145 180 112.838 180 108.775V28.354C180 24.291 176.694 20.9847 172.631 20.9847Z" fill="#3F3D56"/>
<path d="M156.402 29.6206C156.35 29.5297 156.294 29.442 156.236 29.3575C156.181 29.2698 156.119 29.1854 156.057 29.1042C156.028 29.062 155.999 29.023 155.966 28.9873C155.674 28.6138 155.349 28.3117 155.018 28.1299C154.995 28.1169 154.973 28.1039 154.95 28.0942C154.898 28.0649 154.846 28.0422 154.791 28.0227C154.69 27.9837 154.589 27.9545 154.485 27.9415C154.437 27.935 154.388 27.9318 154.339 27.9318C154.304 27.9318 154.268 27.935 154.232 27.9383C154.213 27.9415 154.19 27.9447 154.167 27.948C154.141 27.9512 154.112 27.9578 154.086 27.9642C154.057 27.9707 154.028 27.9805 154.002 27.9902C153.976 28 153.946 28.0097 153.92 28.0227C153.891 28.0357 153.862 28.0487 153.836 28.0649C153.807 28.0812 153.781 28.0974 153.755 28.1136C153.725 28.1331 153.7 28.1526 153.674 28.1721C154.667 28.734 155.642 29.3316 156.59 29.9584C156.532 29.8415 156.47 29.731 156.402 29.6206Z" fill="#3F3D56"/>
<path d="M156.402 29.6206C156.35 29.5297 156.294 29.442 156.236 29.3575C156.181 29.2698 156.119 29.1854 156.057 29.1042C156.028 29.062 155.999 29.023 155.966 28.9873C155.674 28.6138 155.349 28.3117 155.018 28.1299C154.995 28.1169 154.973 28.1039 154.95 28.0942C154.898 28.0649 154.846 28.0422 154.791 28.0227C154.69 27.9837 154.589 27.9545 154.485 27.9415C154.437 27.935 154.388 27.9318 154.339 27.9318C154.304 27.9318 154.268 27.935 154.232 27.9383C154.213 27.9415 154.19 27.9447 154.167 27.948C154.141 27.9512 154.112 27.9578 154.086 27.9642C154.057 27.9707 154.028 27.9805 154.002 27.9902C153.976 28 153.946 28.0097 153.92 28.0227C153.891 28.0357 153.862 28.0487 153.836 28.0649C153.807 28.0812 153.781 28.0974 153.755 28.1136C153.725 28.1331 153.7 28.1526 153.674 28.1721C154.667 28.734 155.642 29.3316 156.59 29.9584C156.532 29.8415 156.47 29.731 156.402 29.6206Z" fill="#3F3D56"/>
<path d="M156.402 29.6206C156.35 29.5297 156.294 29.442 156.236 29.3575C156.181 29.2698 156.119 29.1854 156.057 29.1042C156.028 29.062 155.999 29.023 155.966 28.9873C155.674 28.6138 155.349 28.3117 155.018 28.1299C154.995 28.1169 154.973 28.1039 154.95 28.0942C154.898 28.0649 154.846 28.0422 154.791 28.0227C154.69 27.9837 154.589 27.9545 154.485 27.9415C154.437 27.935 154.388 27.9318 154.339 27.9318C154.304 27.9318 154.268 27.935 154.232 27.9383C154.213 27.9415 154.19 27.9447 154.167 27.948C154.141 27.9512 154.112 27.9578 154.086 27.9642C154.057 27.9707 154.028 27.9805 154.002 27.9902C153.976 28 153.946 28.0097 153.92 28.0227C153.891 28.0357 153.862 28.0487 153.836 28.0649C153.807 28.0812 153.781 28.0974 153.755 28.1136C153.725 28.1331 153.7 28.1526 153.674 28.1721C154.667 28.734 155.642 29.3316 156.59 29.9584C156.532 29.8415 156.47 29.731 156.402 29.6206Z" fill="#3F3D56"/>
<path d="M154.033 38.9275C154.222 38.9503 154.412 38.9674 154.6 38.976C155.185 39.0081 155.764 38.9747 156.322 38.8802C158.016 38.6087 159.555 37.8062 160.743 36.6295C161.998 35.3878 162.857 33.7304 163.09 31.8437C163.634 27.3902 160.463 23.3333 156.009 22.7891C151.62 22.2496 147.618 25.3198 146.979 29.6711C146.969 29.7385 146.959 29.803 146.952 29.8701C146.408 34.3265 149.576 38.3808 154.033 38.9275Z" fill="#FFB6B6"/>
<path d="M145.148 29.3731C146.302 29.9436 148.187 28.1501 148.909 29.182C149.026 28.959 149.155 28.7433 149.283 28.5394C149.399 28.3569 149.565 27.9673 149.756 27.9006C149.514 28.4858 149.567 29.2783 149.819 29.9573C150.957 30.3825 152.447 29.4413 153.5 28.328C155.154 26.5824 157.854 31.0587 157.216 33.3753C158.028 32.383 159.792 32.9427 160.389 34.0773C160.987 35.2091 159.977 36.1159 159.762 37.3784L161.391 37.1715C162.419 36.1704 162.347 34.4836 163.193 33.3233C164.607 31.3816 165.155 29.4004 164.092 27.3964C163.149 25.6245 163.061 23.3313 161.332 22.3098C162.087 21.9403 159.4 22.5175 160.118 21.3135C160.839 20.112 156.996 19.9661 156.745 20.6098C155.647 19.2956 154.539 18.429 153.188 19.4821C151.862 20.5182 151.999 21.6073 150.441 21.5097C149.71 21.4644 149.79 22.8275 149.355 23.4219C148.923 24.013 147.244 24.3925 147.162 24.3293C146.718 23.9821 145.209 26.9371 145.209 26.9371C145.209 26.9371 143.985 28.795 145.148 29.3731Z" fill="#2F2E41"/>
<path d="M124.762 1.13757H108.039C106.561 1.13757 105.359 2.34251 105.359 3.82024V20.5431C105.359 20.6925 105.372 20.8419 105.395 20.9848C105.434 21.2121 105.499 21.4297 105.59 21.6343C106.009 22.5697 106.951 23.2225 108.039 23.2225H124.762C125.85 23.2225 126.792 22.5697 127.211 21.6343C127.305 21.4297 127.37 21.2121 127.405 20.9848C127.431 20.8419 127.444 20.6925 127.444 20.5431V3.82025C127.444 2.34251 126.239 1.13757 124.762 1.13757ZM126.857 21.6343C126.464 22.3911 125.674 22.9075 124.762 22.9075H108.039C107.126 22.9075 106.337 22.391 105.944 21.6343C105.837 21.4329 105.759 21.2154 105.717 20.9848C105.688 20.8419 105.675 20.6925 105.675 20.5431V3.82025C105.675 3.78452 105.675 3.75204 105.681 3.71956V3.71631C105.733 2.45618 106.769 1.45262 108.039 1.45262H116.47C119.572 1.45262 122.365 2.78095 124.314 4.89851C124.323 4.9115 124.333 4.92125 124.343 4.93098L124.359 4.94722C125.684 6.40224 126.61 8.23397 126.964 10.2574C126.977 10.3353 126.993 10.41 127.003 10.4879C127.006 10.5042 127.006 10.5204 127.009 10.5334C127.087 11.0498 127.126 11.5759 127.126 12.1118V20.5431C127.126 20.6925 127.113 20.8419 127.084 20.9848C127.042 21.2154 126.964 21.4329 126.857 21.6343Z" fill="#E6E6E6"/>
<path d="M127.147 12.1816C127.147 6.24624 121.831 1.05433 115.967 0.1352C108.545 -1.02821 101.721 5.51291 102.703 12.2166C103.563 18.0893 113.643 26.6071 116.4 21.351C119.555 15.3366 127.147 18.117 127.147 12.1816Z" fill="#0046FF"/>
<path d="M118.627 7.47437H113.229C113.092 7.47437 112.982 7.5848 112.982 7.7212C112.982 7.8576 113.092 7.96803 113.229 7.96803H118.627C118.763 7.96803 118.874 7.8576 118.874 7.7212C118.874 7.5848 118.763 7.47437 118.627 7.47437Z" fill="white"/>
<path d="M118.627 12.739H113.229C113.092 12.739 112.982 12.8494 112.982 12.9826C112.982 13.119 113.092 13.2327 113.229 13.2327H118.627C118.763 13.2327 118.874 13.119 118.874 12.9826C118.874 12.8494 118.763 12.739 118.627 12.739Z" fill="white"/>
<path d="M121.524 10.1083H110.332C110.195 10.1083 110.085 10.2187 110.085 10.3551C110.085 10.4915 110.195 10.6019 110.332 10.6019H121.524C121.66 10.6019 121.771 10.4915 121.771 10.3551C121.771 10.2187 121.66 10.1083 121.524 10.1083Z" fill="white"/>
<path d="M141.849 58.1935L148.462 61.3956L147.16 65.4283L140.289 61.7942C140.058 61.85 139.816 61.8736 139.566 61.859C138.21 61.7794 137.176 60.6158 137.255 59.2599C137.335 57.9041 138.499 56.8694 139.854 56.949C140.719 56.9997 141.452 57.4923 141.849 58.1935Z" fill="#FFB6B6"/>
<path d="M170.049 54.2229V54.2196C169.425 53.242 168.415 52.5178 167.191 52.2872L166.268 52.1118C163.995 56.3534 161.894 60.686 161.501 65.9409L151.861 62.1572L151.426 61.9883L150.552 60.8484L149.224 61.0075L148.99 60.6048V60.6015L148.6 59.9422L145.801 60.0299L145.775 60.0916L145.772 60.0949L144.408 63.4141L144.404 63.4173L144.219 63.872L144.089 64.1871C144.089 64.1871 144.008 65.0835 144.206 65.8304V65.8369C144.304 66.2104 144.473 66.545 144.755 66.7041C144.989 66.834 145.518 66.4735 145.801 66.6327C145.931 66.7073 145.798 67.2919 145.937 67.3699C146.028 67.4219 146.684 67.0711 146.778 67.1231C147.525 67.542 148.37 68.0357 149.269 68.5683C149.727 68.8411 150.198 69.1204 150.679 69.4128C155.687 72.4234 161.64 76.2104 162.134 76.4702C162.17 76.4897 162.205 76.5059 162.241 76.5221C163.138 76.9671 164.196 77.0775 165.219 76.7657C165.434 76.7008 165.638 76.6196 165.83 76.5221C166.184 76.35 166.505 76.1259 166.785 75.8628C167.428 75.2717 167.866 74.4728 168.019 73.5732L170.676 57.2628C170.854 56.165 170.604 55.0933 170.049 54.2229Z" fill="#3F3D56"/>
<path d="M120.156 69.3313C119.851 68.0906 118.938 67.1715 117.873 66.8922C117.448 66.7753 116.996 66.7623 116.548 66.8727C116.067 66.9896 115.635 67.2332 115.288 67.5807C114.401 67.165 113.167 67.1033 111.797 67.1033H109.523C106.834 67.1033 104.651 69.3767 104.651 71.975C103.95 74.2614 104.817 75.8301 106.412 76.5218C107.279 76.8986 108.36 77.0155 109.523 76.8466H111.797C112.586 76.996 113.339 76.8661 114.012 76.5218C115.197 75.9178 116.129 74.6511 116.542 73.0954C116.837 73.1994 117.146 73.2578 117.461 73.2578C117.669 73.2578 117.88 73.2318 118.088 73.1831C118.854 72.9948 119.491 72.4849 119.88 71.7509C120.264 71.0266 120.361 70.1692 120.156 69.3313ZM117.682 71.1208C117.457 71.5462 117.129 71.871 116.733 72.0692C116.72 72.1991 116.701 72.329 116.681 72.4556C116.827 72.5141 116.759 72.5108 116.636 72.4816C116.421 72.4297 116.041 72.29 116.311 72.225C116.457 72.1893 116.6 72.1373 116.733 72.0692C116.805 71.4131 116.792 70.7246 116.668 70.0263C116.668 69.0325 116.369 68.3764 115.86 67.9412C116.103 67.7301 116.386 67.5807 116.701 67.5028C116.86 67.4638 117.019 67.4443 117.175 67.4443C117.373 67.4443 117.561 67.4573 117.737 67.4898C118.494 67.6229 119.026 68.0679 119.266 69.052C119.432 69.734 117.99 70.5394 117.682 71.1208Z" fill="#F2F2F2"/>
<path d="M77.9467 75.4424C77.9467 72.8442 75.7642 70.5707 73.075 70.5707H70.8016C69.509 70.5707 68.3365 70.6259 67.4661 70.9799C67.4109 71.0027 67.3622 71.0254 67.3102 71.0481C66.9595 70.7006 66.5308 70.457 66.0501 70.3401C65.1829 70.129 64.2995 70.3726 63.611 70.9312C63.0589 71.3762 62.6302 72.0225 62.4418 72.7987C62.2372 73.6366 62.3346 74.494 62.7179 75.2183C62.916 75.5918 63.1758 75.9036 63.4876 76.1472C63.7864 76.3842 64.1339 76.5564 64.5107 76.6506C64.7185 76.6993 64.9296 76.7253 65.1375 76.7253C65.4525 76.7253 65.761 76.6668 66.0566 76.5629C66.3261 77.5859 66.8231 78.4823 67.4661 79.1481C68.3593 80.0737 69.535 80.5544 70.8016 80.3141H73.0751C76.3813 80.7915 79.0282 78.9695 77.9467 75.4424ZM65.9299 73.4937C65.8065 74.192 65.7935 74.8805 65.865 75.5366C65.9981 75.6048 66.141 75.6567 66.2872 75.6925C66.7126 75.7964 65.5207 76.0789 65.9169 75.9231C65.8975 75.7964 65.878 75.6665 65.865 75.5366C65.5922 75.4002 65.3551 75.2053 65.1602 74.9585C65.0693 74.8448 64.9881 74.7214 64.9166 74.5882C64.6081 74.0069 63.1661 73.2014 63.3317 72.5194C63.4973 71.8471 63.7994 71.4249 64.2151 71.1845C64.2151 71.1813 64.2183 71.1813 64.2183 71.1813C64.5496 70.9897 64.9523 70.9117 65.42 70.9117C65.5792 70.9117 65.7383 70.9312 65.8975 70.9702C66.2125 71.0481 66.495 71.1975 66.7386 71.4086C66.2287 71.8439 65.9299 72.4999 65.9299 73.4937Z" fill="#F2F2F2"/>
<path d="M6.81502 105.214H81.8694C82.5148 105.214 83.0381 106.696 83.0381 108.524L73.2947 115.869C73.2947 117.697 72.7715 119.179 72.1261 119.179H6.81502C6.16959 119.179 5.64636 117.697 5.64636 115.869V108.524C5.64636 106.696 6.16959 105.214 6.81502 105.214Z" fill="#F2F2F2"/>
<path d="M37.8399 72.3441L39.1623 81.1404L34.2428 82.5969L33.1755 73.2472C32.962 73.0548 32.7725 72.8286 32.6167 72.5695C31.7691 71.1605 32.2242 69.3311 33.6332 68.4835C35.0423 67.6359 36.8717 68.091 37.7193 69.5001C38.2598 70.3987 38.2685 71.4673 37.8399 72.3441Z" fill="#FFB6B6"/>
<path d="M40.5678 84.8114C40.9186 88.7834 38.5575 87.0459 36.6997 90.9237C35.995 92.395 33.9034 92.1774 33.1272 93.522C31.945 95.5681 33.033 104.756 30.9349 105.886C28.8271 107.023 27.8366 103.736 26.1704 102.044C24.5401 100.388 22.6304 101.037 21.2371 99.1893C19.834 97.3349 18.2459 95.6817 16.8428 93.837C16.8136 93.8013 16.7876 93.7623 16.7616 93.7266C16.1186 88.6665 14.0237 82.7069 14.9006 80.0177C16.0601 79.5955 17.3105 79.3129 18.2881 79.3227C20.0873 79.3454 19.3274 80.3262 20.8733 81.0992C22.1724 81.7488 23.7768 85.1459 25.0305 85.9027C25.9236 86.4386 28.1288 90.6964 29.2818 90.3294C31.1688 89.7286 33.0265 81.0407 32.5848 79.4493C32.2113 78.121 30.3471 76.4581 30.2951 75.12C30.2919 75.0713 30.2919 75.0194 30.2951 74.9706C32.1691 75.6429 35.6507 73.9281 37.5701 74.5484C38.9407 74.9934 40.5581 76.666 40.6523 78.0918C40.7497 79.5533 40.4379 83.3467 40.5678 84.8114Z" fill="#0046FF"/>
<path d="M62.6562 69.8386C62.3152 69.4456 61.8052 69.2638 61.2921 69.3547L46.2256 72.0471C44.8648 72.2939 43.4455 72.0536 42.2406 71.3748L40.0062 70.1179L35.823 67.7633L35.0111 67.3086L31.6074 65.3924L30.5389 64.7916C30.1296 64.561 29.6457 64.5382 29.217 64.7331C28.7883 64.9247 28.4863 65.3015 28.3888 65.7594L27.3333 70.6928L27.2554 71.0468L26.661 73.8301L25.1735 80.7641L24.9397 81.8651L24.8358 82.3425L24.0758 85.8989L23.9329 86.5549L21.916 95.9767L21.7406 96.7919C21.6432 97.2499 21.7601 97.711 22.0654 98.0553C22.0979 98.0975 22.1369 98.1365 22.1791 98.1755C22.5656 98.5327 23.095 98.6529 23.5951 98.5003L24.0173 98.3704L27.1969 97.4058L34.4817 95.1973L36.0406 94.7231L37.9568 94.1417C38.1582 94.08 38.3628 94.0508 38.5674 94.0508C39.1033 94.0508 39.6294 94.2522 40.0256 94.6322L49.4442 103.59L49.8599 103.986C50.2236 104.333 50.7336 104.466 51.2207 104.343C51.6397 104.239 51.9807 103.966 52.1691 103.59C52.2048 103.525 52.234 103.456 52.2568 103.385L54.8907 95.4603L55.3422 94.1028L56.8102 89.6858L56.9271 89.335C63.3689 93.4494 62.3247 80.4593 62.9387 71.2579C63.1044 70.7642 62.9972 70.2316 62.6562 69.8386Z" fill="#F2F2F2"/>
<path d="M60.7075 71.4625C60.3665 71.0695 59.8566 70.8877 59.3434 70.9786L44.277 73.671C42.9161 73.9178 41.4969 73.6775 40.292 72.9987L38.0575 71.7418L33.8743 69.3872L33.0624 68.9325L29.6587 67.0163L28.5902 66.4155C28.181 66.1849 27.6971 66.1621 27.2683 66.357C26.8396 66.5486 26.5376 66.9254 26.4402 67.3833L25.3846 72.3167L25.3067 72.6707L24.7123 75.454L23.2249 82.388L22.991 83.489L22.8871 83.9664L22.1271 87.5228L21.9842 88.1788L19.9673 97.6006L19.7919 98.4158C19.6945 98.8738 19.8115 99.3349 20.1167 99.6792C20.1492 99.7214 20.1882 99.7604 20.2304 99.7994C20.6169 100.157 21.1463 100.277 21.6464 100.124L22.0686 99.9943L25.2482 99.0297L32.533 96.8212L34.0919 96.347L36.0081 95.7656C36.2095 95.7039 36.4141 95.6747 36.6187 95.6747C37.1546 95.6747 37.6807 95.8761 38.077 96.2561L47.4955 105.213L47.9112 105.61C48.275 105.957 48.7849 106.09 49.2721 105.967C49.691 105.863 50.032 105.59 50.2204 105.213C50.2561 105.148 50.2854 105.08 50.3081 105.009L52.942 97.0842L53.3935 95.7267L54.8615 91.3097L54.9784 90.9589C61.4203 95.0733 60.3761 82.0832 60.99 72.8818C61.1557 72.3881 61.0485 71.8555 60.7075 71.4625Z" fill="#E6E6E6"/>
<path d="M18.1854 99.9235L18.4938 112.982L37.0022 112.473L33.2619 98.0192L18.1854 99.9235Z" fill="#FFB6B6"/>
<path d="M40.1164 144.837C40.3405 143.778 39.6195 144.636 39.1323 144.187L39.0934 144.148C38.564 143.561 37.8982 143.297 37.9079 142.567C37.9177 141.836 36.6445 142.489 35.93 141.774C35.7774 141.622 35.3422 141.326 34.7478 140.956C32.8998 139.806 29.5319 137.929 28.5218 137.367C28.3335 137.263 28.2263 137.205 28.2263 137.205C28.2263 137.205 28.2231 137.26 28.2133 137.367C28.1581 138.046 27.9307 140.797 27.6547 144.187C27.6384 144.402 27.6222 144.619 27.6027 144.837H15.6379C15.6509 144.616 15.6574 144.398 15.6606 144.187C15.6801 143.174 15.5957 142.229 15.3618 141.44C14.9396 140.02 14.5629 138.669 14.2673 137.367C13.1858 132.622 13.1988 128.51 16.2063 124.032C16.7616 123.207 16.8688 120.579 16.8688 120.579C16.8688 120.579 17.8919 121.593 18.1549 121.846C18.09 121.778 17.9601 121.648 17.7457 121.433C16.531 120.219 16.57 119.852 17.1936 119.179C17.304 119.063 17.4307 118.936 17.5736 118.793C18.5252 117.841 17.5736 118.793 17.0962 118.234C16.622 117.672 17.8107 116.172 17.8107 116.172L17.3592 113.912L17.0962 112.599L18.4765 112.359L22.1724 111.713L36.0859 109.283L36.349 109.956L38.7069 115.954C39.2882 116.289 39.8956 117.604 40.4412 119.179C41.461 122.119 42.26 125.954 42.26 125.954L57.635 144.187L57.7843 144.366C57.9143 144.519 58.0344 144.678 58.1481 144.837H40.1164Z" fill="#2F2E41"/>
<path d="M19.8113 138.991H17.5378V144.837H19.8113V138.991Z" fill="#E6E6E6"/>
<path d="M6.00825 137.367H31.3409C33.2243 137.367 34.7511 138.894 34.7511 140.777C34.7511 142.66 33.2243 144.187 31.3409 144.187H6.00825C4.12487 144.187 2.59808 142.66 2.59808 140.777C2.59808 138.894 4.12487 137.367 6.00825 137.367Z" fill="#F2F2F2"/>
<path d="M4.05957 144.187C2.53492 144.187 1.29895 142.951 1.29895 141.427V108.624C1.29895 107.099 2.53492 105.864 4.05956 105.864C5.5842 105.864 6.82018 107.099 6.82018 108.624C15.2048 115.041 11.7969 127.811 6.82018 141.427C6.82018 142.951 5.58421 144.187 4.05957 144.187Z" fill="#F2F2F2"/>
<path d="M37.3493 108.137C36.814 112.062 33.0655 108.605 29.2948 107.952C25.7872 107.348 21.6171 113.467 17.8626 113.983C15.4365 114.317 17.3495 112.304 18.1874 103.59C18.2946 102.47 16.9273 95.0419 16.7616 93.7265C16.1186 88.6665 14.0237 82.7068 14.9006 80.0176C15.0501 79.55 15.2904 79.183 15.6444 78.9361C17.3105 77.7702 18.0542 76.8316 19.1747 75.1557C20.1231 73.7332 20.8116 72.6354 22.5784 72.5218C24.2445 72.4146 26.1315 72.7784 27.7391 73.1291C29.4962 73.5156 27.502 73.3792 27.9307 74.36C28.1386 74.8407 28.4959 76.614 28.9051 77.283C30.1472 76.9264 31.4834 77.3259 32.3266 78.3052C33.3076 79.4446 34.1913 80.4909 34.7998 82.1157C35.7157 84.5451 33.4065 88.8679 34.4263 91.2485C35.3454 93.3985 33.098 97.9811 34.1015 99.6927C35.3746 101.872 38.3236 100.992 37.3493 108.137Z" fill="#0046FF"/>
<path d="M44.8696 76.2895L44.7875 76.9337L55.7603 78.3322L55.8424 77.688L44.8696 76.2895Z" fill="white"/>
<path d="M44.2709 79.4817L44.1888 80.1259L55.1616 81.5244L55.2437 80.8802L44.2709 79.4817Z" fill="white"/>
<path d="M43.9462 82.0799L43.8641 82.7241L54.8369 84.1226L54.919 83.4784L43.9462 82.0799Z" fill="white"/>
<path d="M27.9805 72.8367C31.7143 72.8367 34.7412 69.8099 34.7412 66.076C34.7412 62.3422 31.7143 59.3153 27.9805 59.3153C24.2467 59.3153 21.2198 62.3422 21.2198 66.076C21.2198 69.8099 24.2467 72.8367 27.9805 72.8367Z" fill="#FFB6B6"/>
<path d="M60.4207 72.8519L53.0892 76.1803L54.4063 80.6338L62.0324 76.8389C62.2837 76.9063 62.5488 76.9388 62.8223 76.9296C64.3099 76.8792 65.475 75.6325 65.4246 74.1449C65.3743 72.6574 64.1276 71.4922 62.64 71.5426C61.6913 71.5747 60.8755 72.0945 60.4207 72.8519Z" fill="#FFB6B6"/>
<path d="M54.1287 75.3114L51.3028 76.7098L46.2529 77.7006L39.407 80.5113L38.3687 80.936L33.5774 80.026L30.26 79.3919L29.1666 79.1843L25.187 78.4256L24.3957 78.376C24.1791 78.3142 23.9452 78.2553 23.6886 78.2028C22.9242 78.0416 22.0087 77.9196 21.0703 77.8723C20.7878 77.8584 20.5014 77.8506 20.2174 77.8528C17.7894 77.859 15.4606 78.4325 15.4034 80.1647C15.3588 81.5809 15.6411 82.9345 16.1848 84.1551C16.2676 84.3405 16.3543 84.5197 16.4481 84.6983C17.5987 86.8878 19.6187 88.5693 22.0761 89.253C22.6119 89.4014 23.1669 89.5001 23.7382 89.5508L23.8568 89.5393L24.301 89.5002L25.0302 89.4355L26.3683 89.3147L36.8738 88.3715L38.1296 88.2592L39.294 88.1532L39.3206 88.1407C40.8073 87.503 44.9115 85.7426 49.0542 83.9206C52.8511 82.2488 54.4531 82.043 55.5831 81.6003C55.8075 81.5128 56.0123 81.4182 56.2136 81.2991C56.3937 81.189 59.6898 78.9403 59.7078 78.895C59.7674 78.7558 59.7017 78.4611 59.5521 78.073C59.1279 76.9545 58.0389 75.0964 57.4892 74.1839L57.2387 73.7737L54.1287 75.3114Z" fill="#0046FF"/>
<path d="M7.36921 49.676C3.29931 49.676 0 52.9753 0 57.0452V137.467C0 139.019 0.483916 140.464 1.30887 141.653C2.06233 142.744 3.10488 143.621 4.3228 144.173H4.33255C5.26141 144.599 6.28445 144.836 7.36922 144.836H62.8835V140.393H7.69399C6.6612 144.186 5.97592 144.076 5.3361 143.871C4.56963 143.631 3.86161 143.254 3.24453 142.767C3.23803 142.767 3.23803 142.764 3.23803 142.761C2.4131 142.124 1.75056 141.302 1.29911 140.351C0.883387 139.477 0.649556 138.5 0.649556 137.467V84.3194C0.649556 65.5452 15.8691 50.3256 34.6434 50.3256H98.6091V49.676L7.36921 49.676Z" fill="#3F3D56"/>
<path d="M35.6898 62.4532C35.6866 63.1482 35.6834 64.5155 35.0825 64.8598L34.9266 64.7851C34.8227 64.7201 34.6928 64.6194 34.5531 64.5057C34.1244 64.155 33.5788 63.6711 33.2053 63.6061C33.1858 63.0215 33.2021 62.4369 33.2605 61.8556C33.2768 61.7159 33.293 61.5762 33.3125 61.4366C33.2573 61.5308 33.2053 61.625 33.1533 61.7224C32.8448 62.3005 32.5915 62.9111 32.4063 63.5379C31.7893 63.5444 30.9643 63.46 30.6298 63.9764C30.1459 64.7266 30.8377 66.3245 29.6587 67.0163C29.4087 67.1624 29.0741 67.2696 28.6292 67.3183C29.0969 67.393 29.6912 67.6204 29.99 68.218C30.6071 69.4521 31.1332 70.8811 30.8539 72.1965C30.8117 72.3914 30.7532 72.583 30.6753 72.7714C30.2011 73.9146 29.1034 74.6486 28.2979 75.5904C28.2817 75.6067 28.2687 75.6229 28.2557 75.6392C27.6354 76.3796 27.4275 76.987 27.4925 77.5618C27.6094 78.6174 28.6389 79.5592 29.7009 80.9753C30.0939 81.5014 28.9215 84.2328 29.256 84.7979C29.597 85.363 29.7789 86.0775 29.5093 86.6816C29.2203 87.3247 28.5707 87.6105 27.8497 87.7209C25.7906 86.3081 24.0206 84.5088 23.2249 82.388C22.5363 80.5563 22.5721 78.4907 23.7737 76.2238C22.6208 78.2179 22.1856 80.6147 22.5623 82.8882C22.5721 82.9694 22.5851 83.0473 22.6013 83.1253C22.6598 83.4306 22.7572 83.7066 22.8871 83.9665C23.4684 85.1259 24.6766 85.8924 25.5665 86.9609C25.193 87.3377 24.5824 87.9125 23.9881 88.4419C23.4814 88.8966 22.9813 89.3123 22.6533 89.5429C22.4324 89.3383 22.2018 88.8349 21.9842 88.1788C21.8965 87.9158 21.8088 87.6267 21.7276 87.3247C21.2177 85.4962 20.802 83.1383 20.6948 82.414C20.3993 82.9694 20.3149 84.5381 20.3571 86.1522C20.3636 86.3893 20.3733 86.6264 20.3831 86.8602C20.4773 88.8934 17.9602 89.8937 16.6351 88.351C16.3623 88.0294 16.083 87.6689 15.7972 87.263C15.7615 85.7105 15.9823 84.1516 16.4695 82.6803C16.4825 82.6381 16.489 82.6186 16.489 82.6121C16.424 82.7063 15.742 84.4017 15.2061 85.7073C14.93 86.3763 14.693 86.9414 14.5923 87.1395C14.693 86.5387 14.8846 85.7982 15.0859 85.0739C15.5439 83.4468 16.0603 81.9171 15.7387 82.3393C15.4107 82.7713 15.1152 83.2325 14.8618 83.7131C14.3552 84.6582 14.0012 85.6878 13.8226 86.7466C13.8063 86.8408 13.7901 86.9349 13.7803 87.0324C13.4848 86.9577 13.199 86.8537 12.9262 86.7173C12.0655 86.2724 11.6011 85.3403 11.5523 84.3692C11.4744 82.8492 12.1467 81.4722 13.5303 81.6865C14.0564 81.7677 14.2772 81.4559 14.3065 80.946C14.3779 79.8905 13.6472 77.9808 13.2217 76.9545C13.0398 76.516 12.8515 76.0614 12.6891 75.6034C13.5887 74.457 14.0661 72.976 13.9622 71.521C13.6537 72.6057 13.1048 73.619 12.3675 74.4732C12.2084 73.7067 12.1954 72.9402 12.478 72.2095C13.4231 69.7801 15.4399 70.8097 16.8657 68.6272C18.5318 66.0777 18.0414 64.7461 19.0093 61.8556C19.425 60.6084 20.4091 59.5626 21.6302 59.069C22.8514 58.5786 24.5922 55.4574 29.2073 58.8838C29.282 58.8156 29.3567 58.7507 29.4346 58.6922C30.7435 57.7049 32.3544 58.335 34.079 58.5591C35.9042 58.7962 35.3001 58.4486 36.2842 60.0043C36.6545 60.5922 35.6964 61.7581 35.6898 62.4532Z" fill="#2F2E41"/>
<path d="M75.2316 39.7931C75.2316 39.791 75.2305 39.7899 75.2283 39.7899C74.8678 39.3937 74.3871 39.1079 73.8448 38.9877H73.8415C73.6531 38.9455 73.4615 38.9227 73.2602 38.9227H56.5373C55.0596 38.9227 53.8547 40.1277 53.8547 41.6054V58.3282C53.8547 59.8059 55.0596 61.0076 56.5373 61.0076H73.2602C74.7379 61.0076 75.9396 59.8059 75.9396 58.3282V41.6054C75.9396 40.9071 75.6733 40.2706 75.2316 39.7931ZM75.6245 58.3282C75.6245 59.6338 74.5658 60.6926 73.2602 60.6926H56.5373C55.2317 60.6926 54.1729 59.6338 54.1729 58.3282V49.897C54.1729 49.8223 54.173 49.7508 54.1762 49.6761C54.186 49.202 54.2249 48.7343 54.2964 48.2731C54.3061 48.1951 54.3224 48.1204 54.3353 48.0425C54.6894 46.0191 55.615 44.1874 56.9401 42.7324L56.9563 42.7161C58.905 40.5791 61.7111 39.2378 64.8289 39.2378H73.2602C74.5658 39.2378 75.6245 40.2998 75.6245 41.6054V58.3282Z" fill="#E6E6E6"/>
<path d="M54.1516 49.9667C54.1516 44.0313 59.4682 38.8394 65.332 37.9203C72.7542 36.7569 79.578 40.6998 78.5961 47.4035C77.7359 53.2762 67.6557 64.3922 64.8985 59.1361C61.7436 53.1217 54.1516 55.9021 54.1516 49.9667Z" fill="#0046FF"/>
<path d="M68.0702 45.2594H62.6724C62.536 45.2594 62.4256 45.3698 62.4256 45.5062C62.4256 45.6426 62.536 45.7531 62.6724 45.7531H68.0702C68.2066 45.7531 68.3171 45.6426 68.3171 45.5062C68.3171 45.3698 68.2066 45.2594 68.0702 45.2594Z" fill="white"/>
<path d="M68.0702 50.524H62.6724C62.536 50.524 62.4256 50.6345 62.4256 50.7676C62.4256 50.904 62.536 51.0177 62.6724 51.0177H68.0702C68.2066 51.0177 68.3171 50.904 68.3171 50.7676C68.3171 50.6345 68.2066 50.524 68.0702 50.524Z" fill="white"/>
<path d="M70.9672 47.8933H59.7754C59.639 47.8933 59.5286 48.0037 59.5286 48.1401C59.5286 48.2766 59.639 48.387 59.7754 48.387H70.9672C71.1037 48.387 71.2141 48.2766 71.2141 48.1401C71.2141 48.0037 71.1037 47.8933 70.9672 47.8933Z" fill="white"/>
<path d="M16.5252 14.0021C16.1669 14.0021 15.8756 14.2934 15.8756 14.6516V24.7197C15.8756 25.078 16.1669 25.3693 16.5252 25.3693C16.8834 25.3693 17.1747 25.078 17.1747 24.7197V14.6516C17.1747 14.2934 16.8834 14.0021 16.5252 14.0021Z" fill="#3F3D56"/>
<path d="M22.8912 23.7035C25.1267 23.7035 26.939 21.9294 26.939 19.741C26.939 17.5525 25.1267 15.7784 22.8912 15.7784C20.6556 15.7784 18.8434 17.5525 18.8434 19.741C18.8434 21.9294 20.6556 23.7035 22.8912 23.7035Z" fill="#0046FF"/>
<path d="M55.3407 18.3854H33.553C32.8055 18.3854 32.1974 17.7772 32.1974 17.0298C32.1974 16.2823 32.8055 15.6742 33.553 15.6742H55.3407C56.0882 15.6742 56.6963 16.2823 56.6963 17.0298C56.6963 17.7772 56.0882 18.3854 55.3407 18.3854Z" fill="#F2F2F2"/>
<path d="M72.3439 22.9735H33.553C32.8055 22.9735 32.1974 22.3654 32.1974 21.6179C32.1974 20.8705 32.8055 20.2623 33.553 20.2623H72.3439C73.0914 20.2623 73.6995 20.8705 73.6995 21.6179C73.6995 22.3654 73.0914 22.9735 72.3439 22.9735Z" fill="#F2F2F2"/>
<path d="M70.3467 136.23C69.9885 136.23 69.6971 136.522 69.6971 136.88V146.948C69.6971 147.306 69.9885 147.597 70.3467 147.597C70.7049 147.597 70.9963 147.306 70.9963 146.948V136.88C70.9963 136.522 70.7049 136.23 70.3467 136.23Z" fill="#3F3D56"/>
<path d="M76.7127 145.932C78.9482 145.932 80.7605 144.158 80.7605 141.969C80.7605 139.781 78.9482 138.007 76.7127 138.007C74.4772 138.007 72.6649 139.781 72.6649 141.969C72.6649 144.158 74.4772 145.932 76.7127 145.932Z" fill="#0046FF"/>
<path d="M109.162 140.614H87.3745C86.6271 140.614 86.0189 140.005 86.0189 139.258C86.0189 138.51 86.6271 137.902 87.3745 137.902H109.162C109.91 137.902 110.518 138.51 110.518 139.258C110.518 140.005 109.91 140.614 109.162 140.614Z" fill="#F2F2F2"/>
<path d="M126.165 145.202H87.3745C86.6271 145.202 86.0189 144.594 86.0189 143.846C86.0189 143.099 86.6271 142.49 87.3745 142.49H126.165C126.913 142.49 127.521 143.099 127.521 143.846C127.521 144.594 126.913 145.202 126.165 145.202Z" fill="#F2F2F2"/>
<path d="M32.7993 55.8778C33.5577 55.8778 34.1725 55.2493 34.1725 54.4739C34.1725 53.6986 33.5577 53.0701 32.7993 53.0701C32.0409 53.0701 31.426 53.6986 31.426 54.4739C31.426 55.2493 32.0409 55.8778 32.7993 55.8778Z" fill="#3F3D56"/>
<path d="M37.5433 55.8778C38.3017 55.8778 38.9166 55.2493 38.9166 54.4739C38.9166 53.6986 38.3017 53.0701 37.5433 53.0701C36.7849 53.0701 36.17 53.6986 36.17 54.4739C36.17 55.2493 36.7849 55.8778 37.5433 55.8778Z" fill="#3F3D56"/>
<path d="M42.2873 55.8778C43.0457 55.8778 43.6605 55.2493 43.6605 54.4739C43.6605 53.6986 43.0457 53.0701 42.2873 53.0701C41.5288 53.0701 40.914 53.6986 40.914 54.4739C40.914 55.2493 41.5288 55.8778 42.2873 55.8778Z" fill="#3F3D56"/>
<path d="M128.086 28.177C128.845 28.177 129.459 27.5485 129.459 26.7731C129.459 25.9978 128.845 25.3693 128.086 25.3693C127.328 25.3693 126.713 25.9978 126.713 26.7731C126.713 27.5485 127.328 28.177 128.086 28.177Z" fill="#3F3D56"/>
<path d="M132.83 28.177C133.589 28.177 134.203 27.5485 134.203 26.7731C134.203 25.9978 133.589 25.3693 132.83 25.3693C132.072 25.3693 131.457 25.9978 131.457 26.7731C131.457 27.5485 132.072 28.177 132.83 28.177Z" fill="#3F3D56"/>
<path d="M137.574 28.177C138.332 28.177 138.947 27.5485 138.947 26.7731C138.947 25.9978 138.332 25.3693 137.574 25.3693C136.816 25.3693 136.201 25.9978 136.201 26.7731C136.201 27.5485 136.816 28.177 137.574 28.177Z" fill="#3F3D56"/>
<path d="M86.5368 83.6474C86.4824 83.8329 86.679 83.989 86.8474 83.8939C88.022 83.2303 89.4581 82.5829 90.7385 82.2334C90.9435 82.1775 90.9501 81.8904 90.7487 81.8227L89.0517 81.2527L95.5325 73.0922L95.0912 72.7417L88.6103 80.9023L87.6704 79.378C87.5589 79.1971 87.2808 79.2686 87.2727 79.4809C87.2223 80.8072 86.917 82.3527 86.5368 83.6474Z" fill="#3F3D56"/>
<path d="M95.7404 99.7083C95.9175 99.7861 96.0975 99.6111 96.0247 99.4319C95.5168 98.182 95.0585 96.6749 94.8757 95.3603C94.8464 95.1498 94.5626 95.1065 94.4697 95.2976L93.6872 96.9078L86.423 89.436L86.0189 89.8289L93.2832 97.3006L91.6511 98.0378C91.4575 98.1253 91.4928 98.4102 91.7023 98.4454C93.0113 98.6651 94.505 99.1656 95.7404 99.7083Z" fill="#3F3D56"/>
</g>
<defs>
<clipPath id="clip0_4_3820">
<rect width="180" height="147.597" fill="white"/>
</clipPath>
</defs>
</svg>
