<svg width="200" height="119" viewBox="0 0 200 119" fill="none" xmlns="http://www.w3.org/2000/svg">
<g clip-path="url(#clip0_4_3711)">
<path d="M62.4025 69.7523V6.45406C62.4025 3.12109 65.1142 0.409546 68.4472 0.409546H193.955C197.288 0.409546 200 3.12109 200 6.45406V69.7523C200 73.0853 197.288 75.797 193.955 75.797H68.4472C65.1142 75.797 62.4025 73.0853 62.4025 69.7523ZM199.387 6.45406C199.387 3.45427 196.955 1.02245 193.955 1.02245H68.4472C65.4473 1.02245 63.0154 3.45434 63.0154 6.45422V69.7523C63.0154 72.7522 65.4473 75.1841 68.4472 75.1841H153.816C178.984 75.1841 199.387 54.7812 199.387 29.613L199.387 6.45406Z" fill="#E6E6E6"/>
<path d="M106.62 11.9232H36.2783C34.1926 11.9232 32.4966 13.6192 32.4966 15.705V41.5449C32.4966 43.6306 34.1926 45.3266 36.2783 45.3266H106.62C108.705 45.3266 110.401 43.6306 110.401 41.5449V15.705C110.401 13.6192 108.705 11.9232 106.62 11.9232Z" fill="white"/>
<path d="M106.62 11.9232H36.2783C34.1926 11.9232 32.4966 13.6192 32.4966 15.705V41.5449C32.4966 43.6306 34.1926 45.3266 36.2783 45.3266H106.62C108.705 45.3266 110.401 43.6306 110.401 41.5449V15.705C110.401 13.6192 108.705 11.9232 106.62 11.9232ZM110.004 41.5449C110.004 43.4119 108.487 44.929 106.62 44.929H36.2783C34.4113 44.929 32.8942 43.4119 32.8942 41.5449V15.705C32.8942 13.8379 34.4113 12.3209 36.2783 12.3209H106.62C108.487 12.3209 110.004 13.8379 110.004 15.705V41.5449Z" fill="#3F3D56"/>
<path d="M39.5718 23.7H102.088C102.681 23.7 103.161 24.1802 103.161 24.7725C103.161 25.3649 102.681 25.8451 102.088 25.8451H39.5718C38.9794 25.8451 38.4992 25.3649 38.4992 24.7725C38.4992 24.1802 38.9794 23.7 39.5718 23.7Z" fill="#0046FF"/>
<path d="M39.5718 30.7484H62.2493C62.8417 30.7484 63.3219 31.2286 63.3219 31.821C63.3219 32.4134 62.8417 32.8936 62.2493 32.8936H39.5718C38.9794 32.8936 38.4992 32.4134 38.4992 31.821C38.4992 31.2286 38.9794 30.7484 39.5718 30.7484Z" fill="#0046FF"/>
<path d="M176.082 20.4231H133.179C132.503 20.4231 131.953 19.8732 131.953 19.1972C131.953 18.5213 132.503 17.9714 133.179 17.9714H176.082C176.758 17.9714 177.308 18.5213 177.308 19.1972C177.308 19.8732 176.758 20.4231 176.082 20.4231Z" fill="#E6E6E6"/>
<path d="M184.216 47.0074H124.432V46.7009C144.117 49.7197 164.064 49.4713 184.216 46.7009V47.0074Z" fill="#E6E6E6"/>
<path d="M176.082 36.0522H133.179C132.503 36.0522 131.953 35.5023 131.953 34.8264C131.953 34.1505 132.503 33.6006 133.179 33.6006H176.082C176.758 33.6006 177.308 34.1505 177.308 34.8264C177.308 35.5023 176.758 36.0522 176.082 36.0522Z" fill="#E6E6E6"/>
<path d="M184.522 50.9912H124.739V51.2977H184.522V50.9912Z" fill="#E6E6E6"/>
<path d="M176.082 27.9903H133.179C132.503 27.9903 131.953 27.4404 131.953 26.7645C131.953 26.0886 132.503 25.5387 133.179 25.5387H176.082C176.758 25.5387 177.308 26.0886 177.308 26.7645C177.308 27.4404 176.758 27.9903 176.082 27.9903Z" fill="#E6E6E6"/>
<path d="M184.522 55.2815C163.886 53.8779 143.846 53.6544 124.739 55.2815V54.9751H184.522V55.2815Z" fill="#E6E6E6"/>
<path d="M102.016 50.2946L99.494 49.0999C100.528 50.5436 101.42 52.7982 101.897 54.5923C102.705 52.9211 104.007 50.8762 105.297 49.6548L102.631 50.3405C104.274 42.2906 110.452 36.5116 117.526 36.5116V35.8987C110.137 35.8987 103.693 41.9197 102.016 50.2946Z" fill="#3F3D56"/>
<path d="M113.624 62.5601H97.6887C97.0128 62.5601 96.4629 62.0102 96.4629 61.3343C96.4629 60.6584 97.0128 60.1085 97.6887 60.1085H113.624C114.3 60.1085 114.85 60.6584 114.85 61.3343C114.85 62.0102 114.3 62.5601 113.624 62.5601Z" fill="#0046FF"/>
<path d="M72.8219 35.9581C75.1914 35.9581 77.1123 34.0373 77.1123 31.6678C77.1123 29.2983 75.1914 27.3774 72.8219 27.3774C70.4524 27.3774 68.5316 29.2983 68.5316 31.6678C68.5316 34.0373 70.4524 35.9581 72.8219 35.9581Z" fill="#0046FF"/>
<path d="M75.0535 29.1555C74.8491 29.036 74.5369 29.098 74.4246 29.3205C73.9146 30.3307 73.4047 31.3409 72.8947 32.3512C72.4833 31.7068 71.957 31.1441 71.3465 30.6724C71.1499 30.5205 70.8315 30.6425 70.7176 30.8373C70.5787 31.0748 70.6854 31.314 70.8825 31.4663C71.5944 32.0162 72.1434 32.7554 72.5131 33.5712C72.6536 33.8814 73.1602 33.8618 73.3069 33.5712C73.9441 32.309 74.5812 31.0467 75.2184 29.7845C75.3302 29.5629 75.2769 29.2862 75.0535 29.1555Z" fill="white"/>
<path d="M124.306 23.3936C126.676 23.3936 128.596 21.4727 128.596 19.1032C128.596 16.7337 126.676 14.8129 124.306 14.8129C121.937 14.8129 120.016 16.7337 120.016 19.1032C120.016 21.4727 121.937 23.3936 124.306 23.3936Z" fill="#0046FF"/>
<path d="M126.538 16.591C126.333 16.4714 126.021 16.5334 125.909 16.7559C125.399 17.7661 124.889 18.7764 124.379 19.7866C123.967 19.1422 123.441 18.5795 122.831 18.1079C122.634 17.956 122.316 18.0779 122.202 18.2728C122.063 18.5102 122.17 18.7494 122.367 18.9017C123.079 19.4517 123.628 20.1909 123.997 21.0067C124.138 21.3168 124.644 21.2972 124.791 21.0067C125.428 19.7444 126.065 18.4822 126.703 17.2199C126.814 16.9984 126.761 16.7217 126.538 16.591Z" fill="white"/>
<path d="M185.903 30.442C188.273 30.442 190.193 28.5212 190.193 26.1517C190.193 23.7822 188.273 21.8613 185.903 21.8613C183.534 21.8613 181.613 23.7822 181.613 26.1517C181.613 28.5212 183.534 30.442 185.903 30.442Z" fill="#0046FF"/>
<path d="M188.135 23.6394C187.93 23.5198 187.618 23.5819 187.506 23.8043C186.996 24.8146 186.486 25.8248 185.976 26.8351C185.565 26.1906 185.038 25.6279 184.428 25.1563C184.231 25.0044 183.913 25.1264 183.799 25.3212C183.66 25.5587 183.767 25.7979 183.964 25.9502C184.676 26.5001 185.225 27.2393 185.594 28.0551C185.735 28.3653 186.241 28.3457 186.388 28.0551C187.025 26.7929 187.662 25.5306 188.3 24.2684C188.411 24.0468 188.358 23.7701 188.135 23.6394Z" fill="white"/>
<path d="M89.743 52.991H79.409C78.7674 52.991 78.2454 52.469 78.2454 51.8274C76.8791 47.8338 76.9061 43.9206 78.2454 40.0831C78.2454 39.4415 78.7674 38.9196 79.409 38.9196H89.7431C90.3847 38.9196 90.9066 39.4415 90.9066 40.0831V51.8274C90.9066 52.469 90.3847 52.991 89.743 52.991Z" fill="#E6E6E6"/>
<path d="M81.6232 39.2662C79.9492 39.2662 78.5921 40.6233 78.5921 42.2973V51.5782C78.5921 52.167 79.0694 52.6442 79.6582 52.6442H85.3729C88.2376 52.6442 90.5599 50.322 90.5599 47.4572V40.3323C90.5599 39.7435 90.0826 39.2662 89.4939 39.2662H81.6232Z" fill="white"/>
<path d="M86.9827 42.6792H82.1444C82.0225 42.6792 81.9232 42.58 81.9232 42.458C81.9232 42.336 82.0225 42.2368 82.1444 42.2368H86.9827C87.1047 42.2368 87.2039 42.336 87.2039 42.458C87.2039 42.58 87.1047 42.6792 86.9827 42.6792Z" fill="#E6E6E6"/>
<path d="M86.9827 47.3963H82.1444C82.0225 47.3963 81.9232 47.297 81.9232 47.175C81.9232 47.0531 82.0225 46.9539 82.1444 46.9539H86.9827C87.1047 46.9539 87.2039 47.0531 87.2039 47.175C87.2039 47.297 87.1047 47.3963 86.9827 47.3963Z" fill="#E6E6E6"/>
<path d="M89.579 45.0393H79.5482C79.4262 45.0393 79.327 44.9401 79.327 44.8181C79.327 44.6961 79.4262 44.5969 79.5482 44.5969H89.579C89.7009 44.5969 89.8001 44.6961 89.8001 44.8181C89.8001 44.9401 89.7009 45.0393 89.579 45.0393Z" fill="#E6E6E6"/>
<path d="M89.6973 49.3142H85.5118C85.3898 49.3142 85.2906 49.215 85.2906 49.093C85.2906 48.971 85.3898 48.8718 85.5118 48.8718H89.6973C89.8193 48.8718 89.9185 48.971 89.9185 49.093C89.9185 49.215 89.8192 49.3142 89.6973 49.3142Z" fill="#E6E6E6"/>
<path d="M18.5455 20.8606C18.8177 19.6052 18.8977 20.53 19.4898 19.3913C19.0834 20.8627 19.8333 20.3809 20.8294 21.5346C27.8297 22.6323 28.2709 20.2347 30.8615 20.3082L30.8748 20.3081C31.4448 20.2988 31.7377 19.6162 31.394 19.1613C30.5454 18.0381 29.61 16.3048 30.4953 15.2137C32.0636 13.2806 30.6815 9.31643 30.0056 10.1735C30.0056 6.86772 25.9346 4.69988 24.3554 5.23699C21.4375 6.22945 18.7352 7.56799 18.4079 10.563C18.3568 11.0307 18.2908 11.4957 18.2067 11.9585C18.0361 12.8986 17.3334 13.1482 17.5752 14.0714L18.3315 14.8406C18.6864 16.1954 18.5743 17.6177 18.0881 18.9311C17.8193 19.6571 17.7821 20.2796 18.5455 20.8606Z" fill="#2F2E41"/>
<path d="M25.8334 16.4247C28.2568 16.4247 30.2214 14.4602 30.2214 12.0368C30.2214 9.61336 28.2568 7.6488 25.8334 7.6488C23.41 7.6488 21.4455 9.61336 21.4455 12.0368C21.4455 14.4602 23.41 16.4247 25.8334 16.4247Z" fill="#A0616A"/>
<path d="M18.998 112.069L21.2578 112.122L22.5174 101.97L19.1826 101.891L18.998 112.069Z" fill="#A0616A"/>
<path d="M26.7509 116.783C26.7509 117.165 26.48 117.475 26.1458 117.475H21.6604C21.6604 117.475 21.219 115.7 19.4194 114.937L19.2952 117.475H16.9813L17.2617 113.394C17.2617 113.394 16.6427 111.211 17.9282 110.095C19.2136 108.979 18.1725 109.134 18.1725 109.134L18.6781 106.608L22.1746 107.019L22.2003 110.984L23.8971 114.92L26.3859 116.149C26.6075 116.258 26.7509 116.508 26.7509 116.783Z" fill="#2F2E41"/>
<path d="M21.4832 102.858L23.2781 104.232L30.2749 96.7693L27.6262 94.7416L21.4832 102.858Z" fill="#A0616A"/>
<path d="M24.9726 111.234C24.7478 111.543 24.3466 111.634 24.0765 111.437L20.4514 108.795C20.4514 108.795 21.1396 107.101 20.1349 105.424L18.5399 107.402L16.6698 106.04L19.2997 102.907C19.2997 102.907 20.0852 100.778 21.7813 100.633C23.4775 100.488 22.5445 100 22.5445 100L24.4406 98.2567L27.0243 100.648L24.7102 103.868L23.7639 108.047L25.0513 110.507C25.1659 110.726 25.1349 111.012 24.9726 111.234Z" fill="#2F2E41"/>
<path d="M15.0171 60.1595C15.1533 60.7182 14.9024 63.318 15.0427 64.2124C15.3995 66.487 18.6593 78.8875 18.0969 82.4225C16.0365 95.375 18.8862 103.684 18.8862 103.684H23.483L25.9346 64.4583L28.3273 67.6124L33.0093 81.5963L24.7271 96.4873L29.0517 100.059L41.9637 79.5291L32.7884 45.1868L32.2341 43.1134L19.8371 42.7675L20.5269 43.8011L18.9577 45.3515C18.9577 45.3515 18.9556 45.3556 18.9473 45.364C18.7056 45.7015 13.3333 53.2598 15.0171 60.1595Z" fill="#2F2E41"/>
<path d="M18.9473 45.364C20.3831 45.8766 30.0856 45.3473 32.7884 45.1868L32.2341 43.1134L19.8371 42.7675L20.5269 43.8011L18.9577 45.3515C18.9577 45.3515 18.9556 45.3556 18.9473 45.364Z" fill="#A0616A"/>
<path d="M34.9935 28.7585L34.547 31.1279L34.4387 31.6962L32.0637 36.5711L32.3758 43.7178C32.5756 44.5541 24.1423 42.6561 19.7613 44.6169L16.3512 28.3075L19.809 20.7904L22.5151 19.287L22.9662 17.4829H28.6987C29.004 18.9127 28.673 19.6172 28.0798 20.0226L29.5158 23.8523L34.9935 28.7585Z" fill="#0046FF"/>
<path d="M39.4774 14.783C39.4064 15.3965 39.2028 15.9432 38.9214 16.3554L38.6147 22.2433L35.8173 22.0154L36.4296 16.0672C36.2497 15.6017 36.1762 15.023 36.2471 14.4094C36.4092 13.0077 37.2637 11.955 38.1557 12.0581C39.0478 12.1613 39.6395 13.3812 39.4774 14.783Z" fill="#A0616A"/>
<path d="M28.3277 20.9706L28.6927 21.8613C28.6927 21.8613 23.3603 21.3271 23.4742 24.1113C23.5713 26.4867 33.6084 35.901 34.088 36.1208C35.5084 36.7718 37.1593 35.8957 37.4163 34.3544C39.6764 28.5235 40.1447 23.2665 39.1121 18.4904H36.0475L35.0496 22.2582L34.9935 25.1242L33.3776 28.5713L28.0798 21.8613L28.3277 20.9706Z" fill="#0046FF"/>
<path d="M10.5617 53.6979C10.7587 53.0975 10.8038 52.5025 10.7191 51.999L12.9573 46.3984L10.2612 45.4114L8.28101 51.1989C7.91444 51.5542 7.59815 52.0603 7.40113 52.6606C6.95101 54.0321 7.29365 55.3761 8.16642 55.6626C9.0392 55.949 10.1116 55.0694 10.5617 53.6979Z" fill="#A0616A"/>
<path d="M23.4724 20.9736C23.4724 20.9736 20.1619 19.7183 18.2826 21.2521C17.5075 21.8847 14.0799 26.2435 13.552 32.1116C13.5106 32.5715 13.1973 32.9671 13.0208 33.3973C11.9323 36.0499 10.0583 37.2717 9.26148 39.5404C8.9501 40.427 9.52123 42.7198 9.32448 43.4847C8.29423 47.4898 8.666 49.7733 8.666 49.7733L11.4481 50.6994L12.9573 49.6328L15.4361 40.5809L23.4724 20.9736Z" fill="#0046FF"/>
<path d="M48.3719 14.0714H38.0378C37.3962 14.0714 36.8742 13.5494 36.8742 12.9078C35.5079 8.91422 35.5349 5.00104 36.8742 1.16359C36.8742 0.521976 37.3962 0 38.0378 0H48.3719C49.0135 0 49.5355 0.521976 49.5355 1.16359V12.9078C49.5355 13.5494 49.0135 14.0714 48.3719 14.0714Z" fill="#E6E6E6"/>
<path d="M40.252 0.34668C38.578 0.34668 37.2209 1.70373 37.2209 3.37773V12.6586C37.2209 13.2474 37.6982 13.7247 38.287 13.7247H44.0017C46.8664 13.7247 49.1887 11.4024 49.1887 8.53769V1.41275C49.1887 0.823978 48.7114 0.34668 48.1227 0.34668H40.252Z" fill="white"/>
<path d="M45.6115 3.75967H40.7733C40.6513 3.75967 40.552 3.66041 40.552 3.53844C40.552 3.41647 40.6513 3.31726 40.7733 3.31726H45.6115C45.7335 3.31726 45.8327 3.41647 45.8327 3.53844C45.8327 3.66041 45.7335 3.75967 45.6115 3.75967Z" fill="#E6E6E6"/>
<path d="M45.6115 8.47671H40.7733C40.6513 8.47671 40.552 8.37746 40.552 8.25548C40.552 8.13351 40.6513 8.0343 40.7733 8.0343H45.6115C45.7335 8.0343 45.8327 8.13351 45.8327 8.25548C45.8327 8.37746 45.7335 8.47671 45.6115 8.47671Z" fill="#E6E6E6"/>
<path d="M48.2078 6.11977H38.177C38.055 6.11977 37.9558 6.02052 37.9558 5.89855C37.9558 5.77657 38.055 5.67737 38.177 5.67737H48.2078C48.3298 5.67737 48.429 5.77657 48.429 5.89855C48.429 6.02052 48.3298 6.11977 48.2078 6.11977Z" fill="#E6E6E6"/>
<path d="M48.3261 10.3947H44.1406C44.0186 10.3947 43.9194 10.2954 43.9194 10.1734C43.9194 10.0515 44.0186 9.95227 44.1406 9.95227H48.3261C48.4481 9.95227 48.5473 10.0515 48.5473 10.1734C48.5473 10.2954 48.4481 10.3947 48.3261 10.3947Z" fill="#E6E6E6"/>
<path d="M51.3466 112.419C51.9798 112.459 52.3297 111.672 51.8507 111.214L51.803 111.024C51.8093 111.009 51.8156 110.994 51.8219 110.979C52.4622 109.452 54.6321 109.463 55.2669 110.992C55.8303 112.349 56.5477 113.708 56.7243 115.143C56.8035 115.776 56.7679 116.422 56.6273 117.043C57.9476 114.159 58.6423 111.01 58.6423 107.843C58.6423 107.047 58.5988 106.252 58.5097 105.458C58.4365 104.809 58.3355 104.164 58.2049 103.524C57.4983 100.068 55.9682 96.7767 53.7613 94.0274C52.7003 93.4474 51.8156 92.5409 51.2811 91.4543C51.0892 91.0623 50.9387 90.6407 50.8675 90.2112C50.9882 90.2271 51.3227 88.3882 51.2317 88.2754C51.3999 88.0201 51.7011 87.8932 51.8848 87.644C52.7988 86.4049 54.058 86.6213 54.7153 88.3051C56.1196 89.0138 56.1331 90.1892 55.2715 91.3196C54.7233 92.0388 54.648 93.012 54.167 93.7819C54.2165 93.8453 54.268 93.9066 54.3175 93.97C55.2249 95.1339 56.0097 96.3849 56.6713 97.6991C56.4844 96.2385 56.7604 94.4788 57.2311 93.3445C57.7668 92.0521 58.771 90.9636 59.6552 89.8463C60.7174 88.5043 62.8955 89.09 63.0826 90.7912C63.0844 90.8077 63.0862 90.8242 63.0879 90.8406C62.9566 90.9147 62.8279 90.9935 62.7022 91.0766C61.9853 91.5507 62.233 92.6621 63.0825 92.7933L63.1018 92.7962C63.0543 93.2693 62.9731 93.7384 62.8544 94.1996C63.9888 98.5867 61.5396 100.185 58.0426 100.256C57.9654 100.296 57.8902 100.336 57.813 100.373C58.1673 101.371 58.4503 102.394 58.6601 103.431C58.8482 104.348 58.9788 105.274 59.052 106.204C59.1431 107.378 59.1352 108.558 59.0362 109.729L59.0421 109.688C59.2935 108.397 59.9942 107.192 61.0116 106.357C62.5272 105.112 64.6685 104.653 66.3035 103.652C67.0906 103.171 68.0992 103.793 67.9618 104.706L67.9551 104.749C67.7117 104.848 67.4741 104.963 67.2445 105.092C67.1132 105.166 66.9845 105.245 66.8588 105.328C66.1419 105.802 66.3897 106.913 67.2391 107.045L67.2584 107.047C67.2723 107.049 67.2841 107.051 67.298 107.053C66.8803 108.045 66.2984 108.965 65.57 109.759C64.8607 113.589 61.8141 113.952 58.5552 112.837H58.5533C58.197 114.389 57.6764 115.905 57.0074 117.35H51.485C51.4652 117.289 51.4474 117.225 51.4296 117.164C51.9403 117.196 52.4549 117.166 52.9577 117.073C52.5479 116.57 52.1382 116.063 51.7285 115.561C51.7186 115.551 51.7107 115.541 51.7028 115.531C51.4949 115.274 51.2851 115.018 51.0773 114.761L51.0772 114.761C51.0642 113.971 51.159 113.183 51.3466 112.419Z" fill="#F2F2F2"/>
<path d="M0 117.824C0 118.026 0.162429 118.189 0.364698 118.189H67.2603C67.4626 118.189 67.625 118.026 67.625 117.824C67.625 117.622 67.4626 117.459 67.2603 117.459H0.364698C0.162429 117.459 0 117.622 0 117.824Z" fill="#CCCCCC"/>
<path d="M27.0229 6.8451H26.1296C23.5162 6.84804 19.0491 10.5446 20.7777 13.1373C19.3017 17.0743 19.2479 19.1228 19.8744 20.1949C20.1051 20.5895 20.563 20.7693 21.019 20.7373C21.0798 20.7331 21.141 20.7317 21.2026 20.7338C21.6444 20.7484 22.237 22.825 22.6481 22.9847L23.7397 22.6529L25.53 20.8639L24.6216 18.1352L22.8637 16.7599L23.1032 13.5747C21.9266 10.8705 23.2067 10.7381 23.927 9.86581L23.9999 12.6643L25.0316 11.6687C25.8719 11.6905 26.854 12.0548 27.5068 11.297C28.6927 9.90963 29.922 11.5847 31.3227 11.9233L31.7572 11.5794C31.7721 10.7991 31.6567 10.0458 31.4326 9.37121C31.3272 9.05366 31.0576 8.79198 31.0463 8.47633C31.0038 7.29176 28.765 6.14278 27.0229 6.8451Z" fill="#2F2E41"/>
</g>
<defs>
<clipPath id="clip0_4_3711">
<rect width="200" height="118.189" fill="white"/>
</clipPath>
</defs>
</svg>
