<?xml version="1.0" encoding="utf-8"?>
<!-- Generator: Adobe Illustrator 26.0.3, SVG Export Plug-In . SVG Version: 6.00 Build 0)  -->
<svg version="1.1" id="레이어_1" xmlns="http://www.w3.org/2000/svg" xmlns:xlink="http://www.w3.org/1999/xlink" x="0px"
	 y="0px" viewBox="0 0 348.66 348.66" style="enable-background:new 0 0 348.66 348.66;" xml:space="preserve">
<style type="text/css">
	.st0{fill:#5E7083;stroke:#000000;stroke-width:2;stroke-linecap:round;stroke-linejoin:round;stroke-miterlimit:10;}
	.st1{fill:none;stroke:#000000;stroke-width:2;stroke-linecap:round;stroke-linejoin:round;stroke-miterlimit:10;}
	.st2{fill:#FFFFFF;}
	.st3{fill:#5E7083;}
	.st4{fill:#FDE87B;stroke:#000000;stroke-width:2;stroke-linecap:round;stroke-linejoin:round;stroke-miterlimit:10;}
	.st5{fill:#E22326;}
	.st6{fill:#62BB46;}
	.st7{fill:none;stroke:#000000;stroke-width:2;stroke-miterlimit:10;}
	.st8{fill:#A97C50;stroke:#000000;stroke-width:2;stroke-linecap:round;stroke-linejoin:round;stroke-miterlimit:10;}
	.st9{fill:#694721;stroke:#000000;stroke-width:2;stroke-linecap:round;stroke-linejoin:round;stroke-miterlimit:10;}
	.st10{fill:url(#SVGID_1_);}
	.st11{fill:none;stroke:#000000;stroke-width:2;stroke-linecap:round;stroke-miterlimit:10;}
	.st12{fill:#E86B58;}
	.st13{fill:#94CAFF;stroke:#000000;stroke-width:2;stroke-linecap:round;stroke-linejoin:round;stroke-miterlimit:10;}
	.st14{fill:#94CAFF;}
	.st15{fill:#F2C3C6;}
	.st16{fill:#F2C3C6;stroke:#000000;stroke-width:2;stroke-linecap:round;stroke-linejoin:round;stroke-miterlimit:10;}
	.st17{fill:#E96C5E;stroke:#000000;stroke-width:2;stroke-linecap:round;stroke-linejoin:round;stroke-miterlimit:10;}
	.st18{fill:#F7E575;stroke:#000000;stroke-width:2;stroke-linecap:round;stroke-linejoin:round;stroke-miterlimit:10;}
	.st19{fill:#92C5D0;stroke:#000000;stroke-width:2;stroke-linecap:round;stroke-linejoin:round;stroke-miterlimit:10;}
	.st20{fill:none;}
	.st21{fill:#EFA5AC;}
	.st22{fill:#FFFFFF;stroke:#000000;stroke-width:2;stroke-linecap:round;stroke-linejoin:round;stroke-miterlimit:10;}
	.st23{fill:#C8B4A5;}
	.st24{fill:#C8B4A5;stroke:#000000;stroke-width:2;stroke-linecap:round;stroke-linejoin:round;stroke-miterlimit:10;}
	.st25{fill:none;stroke:#E97871;stroke-width:2;stroke-linecap:round;stroke-linejoin:round;stroke-miterlimit:10;}
	.st26{fill:#F7C711;}
	.st27{fill:none;stroke:#EB8023;stroke-width:2;stroke-linecap:round;stroke-linejoin:round;stroke-miterlimit:10;}
	.st28{fill:#2E3980;stroke:#000000;stroke-width:2;stroke-linecap:round;stroke-linejoin:round;stroke-miterlimit:10;}
	.st29{fill:#CCABFF;stroke:#000000;stroke-width:2;stroke-linecap:round;stroke-linejoin:round;stroke-miterlimit:10;}
	.st30{fill:#2960A8;stroke:#000000;stroke-width:2;stroke-linecap:round;stroke-linejoin:round;stroke-miterlimit:10;}
	.st31{fill:#7D95CA;stroke:#000000;stroke-width:2;stroke-linecap:round;stroke-linejoin:round;stroke-miterlimit:10;}
	.st32{fill:#F7C711;stroke:#000000;stroke-width:2;stroke-linecap:round;stroke-linejoin:round;stroke-miterlimit:10;}
	.st33{fill:#E8E8E8;}
	.st34{fill:#A1BB7C;stroke:#000000;stroke-width:2;stroke-linecap:round;stroke-linejoin:round;stroke-miterlimit:10;}
	.st35{fill:#CDB285;stroke:#000000;stroke-width:1.7482;stroke-linecap:round;stroke-linejoin:round;stroke-miterlimit:10;}
	.st36{fill:#665439;stroke:#000000;stroke-width:2;stroke-linecap:round;stroke-linejoin:round;stroke-miterlimit:10;}
	.st37{fill:#546631;stroke:#000000;stroke-width:2;stroke-linecap:round;stroke-linejoin:round;stroke-miterlimit:10;}
	.st38{fill:#E1F4FD;}
	.st39{fill:#EADBB6;stroke:#000000;stroke-width:2;stroke-linecap:round;stroke-linejoin:round;stroke-miterlimit:10;}
	.st40{fill:none;stroke:#000000;stroke-width:1.7482;stroke-linecap:round;stroke-linejoin:round;stroke-miterlimit:10;}
	.st41{fill:#002DAA;stroke:#000000;stroke-width:2;stroke-linecap:round;stroke-linejoin:round;stroke-miterlimit:10;}
	.st42{fill:#FFDA75;stroke:#000000;stroke-width:2;stroke-linecap:round;stroke-linejoin:round;stroke-miterlimit:10;}
	.st43{fill:#FFA9D3;stroke:#000000;stroke-width:2;stroke-linecap:round;stroke-linejoin:round;stroke-miterlimit:10;}
	.st44{fill:none;stroke:#C7B58B;stroke-width:2;stroke-linecap:round;stroke-linejoin:round;stroke-miterlimit:10;}
	.st45{fill:#FCE26B;stroke:#000000;stroke-width:2;stroke-linecap:round;stroke-linejoin:round;stroke-miterlimit:10;}
</style>
<g>
	<path class="st0" d="M236.01,165.74c-33.33,0-53.13-12.87-52.32-38.43c0.9-28.69,22.1-54.16,52.26-54.16
		c32.2,0,51.35,25.47,52.26,54.16c0.8,25.55-18.99,38.43-52.32,38.43"/>
	<path class="st1" d="M236.01,165.74c-33.33,0-53.13-12.87-52.32-38.43c0.9-28.69,22.1-54.16,52.26-54.16
		c32.2,0,51.35,25.47,52.26,54.16c0.8,25.55-18.99,38.43-52.32,38.43"/>
	<g>
		<polyline class="st1" points="251.05,167.16 246.51,165.74 242.44,167.16 		"/>
		<polyline class="st1" points="220.83,167.16 225.37,165.74 229.44,167.16 		"/>
	</g>
	<path class="st2" d="M199.5,133.18c1.56,22.3,17.48,28.86,37.65,28.85c15.37,0,34.53-6.53,35.21-28.87
		c0.52-17.04-9.04-37.04-22.54-37.69c-5.51-0.26-7.87,1.95-13.45,2.01c-6.31,0.06-8.6-3.34-15.49-2
		C207.72,98.04,198.29,115.79,199.5,133.18z"/>
	<polyline class="st1" points="231.24,66.55 236.24,73.15 240.64,67.44 	"/>
	<g>
		<path class="st3" d="M184.84,122.15c2.15,1.45,5.11,2.43,7.75,2.33c1.19-0.05,2.45-0.32,3.28-1.2c0.94-1.01,1.49-3-0.07-3.73
			c-1.5-0.69-4.01-0.33-5.61-0.14l-0.44-0.12C187.55,118.69,185.29,120.01,184.84,122.15L184.84,122.15z"/>
		<path class="st1" d="M184.84,122.15c2.15,1.45,5.11,2.43,7.75,2.33c1.19-0.05,2.45-0.32,3.28-1.2c0.94-1.01,1.49-3-0.07-3.73
			c-1.5-0.69-4.01-0.33-5.61-0.14"/>
	</g>
	<g>
		<path class="st3" d="M286.47,123.05c-2.35,1.24-5.51,1.94-8.23,1.59c-1.23-0.16-2.51-0.55-3.28-1.5c-0.88-1.09-1.28-3.13,0.41-3.7
			c1.61-0.55,4.18,0.05,5.81,0.38l0.46-0.08C283.97,119.34,286.2,120.87,286.47,123.05L286.47,123.05z"/>
		<path class="st1" d="M286.47,123.05c-2.35,1.24-5.51,1.94-8.23,1.59c-1.23-0.16-2.51-0.55-3.28-1.5c-0.88-1.09-1.28-3.13,0.41-3.7
			c1.61-0.55,4.18,0.05,5.81,0.38"/>
	</g>
	<path class="st1" d="M247.58,111.92c-1.4,1.09-2.91,2.41-3.43,4.16c1.88,0.35,3.72,0.6,5.46,1.54"/>
	<path class="st1" d="M224.44,111.92c1.4,1.09,2.91,2.41,3.43,4.16c-1.88,0.35-3.72,0.6-5.46,1.54"/>
	<rect x="231.83" y="125.05" width="8.19" height="14.79"/>
	<path class="st4" d="M239.01,136.63c-2.27-0.06-4.06,0.02-6.19-0.02c-0.48-0.01-0.86,0.39-0.95,0.86c-0.32,1.71-0.54,5.6,3.99,5.6
		c4.49,0,4.4-3.83,4.13-5.56C239.91,137.02,239.5,136.64,239.01,136.63z"/>
	<path class="st4" d="M232.8,125.93c2.07,0.32,4.17,0.36,6.19,0.02c0.47-0.08,0.86-0.39,0.95-0.86c0.32-1.71,0.54-5.6-3.99-5.6
		c-4.49,0-4.4,3.83-4.13,5.56C231.9,125.53,232.31,125.85,232.8,125.93z"/>
	<path class="st5" d="M232.58,135.93h6.52C239.1,135.93,235.98,132.24,232.58,135.93z"/>
	<g>
		<path class="st1" d="M254.22,61.84c0.71-1.66,3.26-1.7,4.61-0.5c1.35,1.2,1.79,3.1,2.16,4.86"/>
		<path class="st1" d="M256.15,64.66c1.07-0.18,2.09-0.61,2.91-1.24"/>
	</g>
	<g>
		<path class="st1" d="M267.54,71.57c0.71-1.66,3.26-1.7,4.61-0.5c1.35,1.2,1.79,3.1,2.16,4.86"/>
		<path class="st1" d="M269.47,74.39c1.07-0.18,2.09-0.61,2.91-1.24"/>
	</g>
	<g>
		<path class="st1" d="M268.99,58.01c0.71-1.66,3.26-1.7,4.61-0.5c1.35,1.2,1.79,3.1,2.16,4.86"/>
		<path class="st1" d="M270.92,60.83c1.07-0.18,2.09-0.61,2.91-1.24"/>
	</g>
	<g>
		<path class="st1" d="M259.96,44.8c0.71-1.66,3.26-1.7,4.61-0.5c1.35,1.2,1.79,3.1,2.16,4.86"/>
		<path class="st1" d="M261.89,47.62c1.07-0.18,2.09-0.61,2.91-1.24"/>
	</g>
	<g>
		<path class="st1" d="M281.64,55.16c0.71-1.66,3.26-1.7,4.61-0.5c1.35,1.2,1.79,3.1,2.16,4.86"/>
		<path class="st1" d="M283.57,57.98c1.07-0.18,2.09-0.61,2.91-1.24"/>
	</g>
	<g>
		<path class="st1" d="M281.64,71.57c0.71-1.66,3.26-1.7,4.61-0.5c1.35,1.2,1.79,3.1,2.16,4.86"/>
		<path class="st1" d="M283.57,74.39c1.07-0.18,2.09-0.61,2.91-1.24"/>
	</g>
</g>
<g>
	<path class="st6" d="M122.19,289.09c0,0,1.37-8.63,5.17-14.02c3.8-5.39,8.35-9.96,15.96-9.38c7.61,0.57,6.84,5.9,6.17,7.97
		c-0.67,2.07-3.61,3.5-6.35,4.52c-2.74,1.02-10.5,4.43-12.73,11.9"/>
	<path class="st7" d="M122.19,289.09c0,0,1.37-8.63,5.17-14.02c3.8-5.39,8.35-9.96,15.96-9.38c7.61,0.57,6.84,5.9,6.17,7.97
		c-0.67,2.07-3.61,3.5-6.35,4.52c-2.74,1.02-10.5,4.43-12.73,11.9"/>
</g>
<g>
	<path class="st8" d="M161.92,279.69l-9.19,0.36l-6.91,9.86c0,0,6.27,8.98,8.17,9.67l16.55-7.69L161.92,279.69z"/>
	<path class="st8" d="M168.61,273.51c0,0,8.73,13.85,11.76,15.46l-8.28,3.3c0,0-7.42-4.91-10.38-12.71l3.58-6.58L168.61,273.51z"/>
</g>
<path class="st9" d="M118.1,282.03c1.56,0.44,2.87,1.62,4.48,1.86c1.7,0.26,3.93-0.38,4.78,1.11c0.21,0.36,0.29,0.81,0.61,1.07
	c0.37,0.3,0.91,0.22,1.38,0.18c2.61-0.25,5.32,1.01,6.8,3.18c0.42,0.61,0.8,1.33,1.49,1.58c0.51,0.19,1.08,0.07,1.62,0.01
	c1.55-0.17,3.21,0.18,4.38,1.21c1.17,1.03,1.75,2.78,1.17,4.23c-0.58,1.45-2.42,2.33-3.83,1.66c0.11,1.51-1.9,2.11-3.42,2.19
	c-2.82,0.14-5.63,0.29-8.45,0.43c-0.93,0.05-1.86,0.1-2.8,0.08c-1.72-0.02-3.44-0.25-5.15-0.48c-2.07-0.27-4.13-0.55-6.2-0.82
	c-1.9-0.25-4.12-0.73-4.9-2.48c-0.51-1.14-0.26-2.6-1.07-3.55c-0.63-0.74-1.72-0.92-2.46-1.55c-1.55-1.33-0.84-4.03,0.73-5.33
	C109.56,284.74,115.13,281.2,118.1,282.03z"/>
<path class="st6" d="M96.77,281.6c-3.22-4.58-6.65-9.08-10.45-13.21c-3.4-3.69-7.78-6.21-10.35-10.63c-1.05-1.8-2.05-4.49-1.4-6.6
	c0.64-2.06,2.49-3.84,4.45-4.63c2.28-0.92,4.7-0.23,6.67,1.1c4.29,2.9,9.25,11.81,11.59,16.66c2.34,4.86,6.24,13.55,6.24,13.55"/>
<path class="st7" d="M96.77,281.6c-3.22-4.58-6.65-9.08-10.45-13.21c-3.4-3.69-7.78-6.21-10.35-10.63c-1.05-1.8-2.05-4.49-1.4-6.6
	c0.64-2.06,2.49-3.84,4.45-4.63c2.28-0.92,4.7-0.23,6.67,1.1c4.29,2.9,9.25,11.81,11.59,16.66c2.34,4.86,6.24,13.55,6.24,13.55"/>
<path class="st6" d="M98.81,280.46c0,0-4.94-7.26-11.26-11.12c-7.14-4.36-14.84-6.88-21.33-3.57c-6.49,3.32-6.59,7.43-5.36,9.64
	c1.23,2.21,4.12,3.5,9.54,2.44c5.42-1.06,9.75-1.1,12.95-0.03c2.93,0.98,7.06,3.44,9.12,5.71"/>
<path class="st7" d="M98.81,280.46c0,0-4.94-7.26-11.26-11.12c-7.14-4.36-14.84-6.88-21.33-3.57c-6.49,3.32-6.59,7.43-5.36,9.64
	c1.23,2.21,4.12,3.5,9.54,2.44c5.42-1.06,9.75-1.1,12.95-0.03c2.93,0.98,7.06,3.44,9.12,5.71"/>
<g>
	<path class="st8" d="M97.87,291.38l10.59,13.81c0,0,8.59-1.21,13.08-5.4l-9.35-6.38l-1.19-9.53L97.87,291.38z"/>
	<path class="st8" d="M88.84,282.94c0,0,9.79-2.74,15.46-6.97l0.22,5.28l6.48,2.65c0,0-11.02,7.38-14.6,7.51L88.84,282.94z"/>
</g>
<path class="st1" d="M117.34,291.38c-0.05,0.74,0.61,1.38,1.34,1.53c0.72,0.15,1.47-0.06,2.16-0.34"/>
<path class="st1" d="M128.03,295.02c0.86,0.78,2.42,0.52,2.99-0.49c0.62,0.45,1.75,0.24,2.39-0.17c0.65-0.41,1.01-1.24,0.86-1.99"/>
<path class="st0" d="M257.56,258.24c-13.24,30.72-32.97,43.84-56.2,32.95c-26.08-12.23-41.13-41.88-29.15-69.67
	c12.79-29.67,43.87-37.2,70.67-26.64c23.87,9.41,27.87,32.77,14.63,63.48"/>
<path class="st1" d="M257.56,258.24c-13.24,30.72-32.97,43.84-56.2,32.95c-26.08-12.23-41.13-41.88-29.15-69.67
	c12.79-29.67,43.87-37.2,70.67-26.64c23.87,9.41,27.87,32.77,14.63,63.48"/>
<path class="st2" d="M204.96,276.38c21.17,7.43,33.54-4.65,41.54-23.23c6.1-14.17,7.7-34.41-12.61-43.91
	c-15.5-7.25-37.73-6.39-43.69,5.8c-2.43,4.97-1.33,8.03-3.5,13.19c-2.45,5.84-6.5,6.6-8,13.48
	C175.84,254.84,188.45,270.58,204.96,276.38z"/>
<linearGradient id="SVGID_1_" gradientUnits="userSpaceOnUse" x1="-1012.642" y1="-320.4425" x2="-1037.8621" y2="-320.4425" gradientTransform="matrix(0.8275 0.5614 -0.5614 0.8275 865.3405 1068.8468)">
	<stop  offset="0" style="stop-color:#FFFFFF;stop-opacity:0"/>
	<stop  offset="1" style="stop-color:#9FB5C1"/>
</linearGradient>
<path class="st10" d="M204.96,276.38c21.17,7.43,33.54-4.65,41.54-23.23c6.1-14.17,7.7-34.41-12.61-43.91
	c-15.5-7.25-37.73-6.39-43.69,5.8c-2.43,4.97-1.33,8.03-3.5,13.19c-2.45,5.84-6.5,6.6-8,13.48
	C175.84,254.84,188.45,270.58,204.96,276.38z"/>
<polyline class="st1" points="164.26,223.23 172.33,221.25 168.81,214.93 "/>
<g>
	<path class="st3" d="M200.52,290.69c-2.44,0.66-5.46,0.62-7.81-0.34c-1.06-0.43-2.11-1.1-2.56-2.21c-0.51-1.26-0.33-3.32,1.34-3.49
		c1.59-0.17,3.74,1,5.13,1.7l0.44,0.03C199.24,286.53,200.84,288.52,200.52,290.69L200.52,290.69z"/>
	<path class="st1" d="M200.52,290.69c-2.44,0.66-5.46,0.62-7.81-0.34c-1.06-0.43-2.11-1.1-2.56-2.21c-0.51-1.26-0.33-3.32,1.34-3.49
		c1.59-0.17,3.74,1,5.13,1.7"/>
</g>
<g>
	<path class="st3" d="M242.81,195.73c0.61,2.45,0.51,5.47-0.5,7.8c-0.45,1.05-1.14,2.09-2.26,2.51c-1.27,0.48-3.32,0.26-3.47-1.41
		c-0.13-1.59,1.07-3.72,1.8-5.09l0.04-0.44C238.62,196.92,240.64,195.36,242.81,195.73L242.81,195.73z"/>
	<path class="st1" d="M242.81,195.73c0.61,2.45,0.51,5.47-0.5,7.8c-0.45,1.05-1.14,2.09-2.26,2.51c-1.27,0.48-3.32,0.26-3.47-1.41
		c-0.13-1.59,1.07-3.72,1.8-5.09"/>
</g>
<g>
	<g>
		<path class="st4" d="M221.47,239.41c-0.96,2.07-1.6,3.75-2.48,5.7c-0.2,0.44,0.01,0.95,0.41,1.22c1.45,0.97,4.95,2.73,6.74-1.45
			c1.78-4.14-1.78-5.57-3.48-6.01C222.19,238.73,221.68,238.96,221.47,239.41z"/>
		<path class="st4" d="M219.59,245.38c1.12-1.78,1.99-3.7,2.48-5.7c0.12-0.47-0.01-0.95-0.41-1.22c-1.45-0.97-4.95-2.73-6.75,1.45
			c-1.78,4.14,1.78,5.58,3.48,6.01C218.87,246.05,219.33,245.8,219.59,245.38z"/>
	</g>
	<g>
		<line class="st11" x1="209.27" y1="248.86" x2="208.62" y2="244.48"/>
		<line class="st11" x1="206.75" y1="247.26" x2="211.14" y2="246.67"/>
	</g>
	<g>
		<line class="st11" x1="219.2" y1="232.45" x2="218.55" y2="228.07"/>
		<line class="st11" x1="216.68" y1="230.85" x2="221.07" y2="230.26"/>
	</g>
</g>
<g>
	<polyline class="st1" points="257.72,241.61 253.64,246.29 258.86,246.67 	"/>
	<polyline class="st1" points="243.41,271.27 245.24,265.76 249.69,267.6 	"/>
</g>
<g>
	<path class="st0" d="M155.25,192.61c-33.74,0-53.77-13.03-52.96-38.9c0.91-29.04,22.37-54.82,52.89-54.82
		c32.59,0,51.98,25.78,52.89,54.82c0.81,25.86-19.22,38.9-52.96,38.9"/>
	<path class="st1" d="M155.25,192.61c-33.74,0-53.77-13.03-52.96-38.9c0.91-29.04,22.37-54.82,52.89-54.82
		c32.59,0,51.98,25.78,52.89,54.82c0.81,25.86-19.22,38.9-52.96,38.9"/>
	<g>
		<polyline class="st1" points="170.48,194.05 165.88,192.61 161.76,194.05 		"/>
		<polyline class="st1" points="139.89,194.05 144.49,192.61 148.6,194.05 		"/>
	</g>
	<path class="st2" d="M118.3,159.66c1.57,22.57,17.7,29.21,38.1,29.2c15.56,0,34.94-6.6,35.64-29.22
		c0.53-17.25-9.15-37.49-22.82-38.15c-5.57-0.27-7.96,1.98-13.62,2.03c-6.39,0.06-8.71-3.38-15.68-2.03
		C126.62,124.09,117.07,142.05,118.3,159.66z"/>
	<polyline class="st1" points="150.43,92.22 155.49,98.9 159.94,93.12 	"/>
	<g>
		<path class="st3" d="M102.43,149.12c-1.46,2.08-2.46,4.97-2.36,7.53c0.05,1.16,0.32,2.38,1.22,3.18c1.02,0.92,3.03,1.45,3.77-0.07
			c0.7-1.45,0.34-3.89,0.15-5.45l0.12-0.43C105.94,151.75,104.61,149.56,102.43,149.12L102.43,149.12z"/>
		<path class="st1" d="M102.43,149.12c-1.46,2.08-2.46,4.97-2.36,7.53c0.05,1.16,0.32,2.38,1.22,3.18c1.02,0.92,3.03,1.45,3.77-0.07
			c0.7-1.45,0.34-3.89,0.15-5.45"/>
	</g>
	<g>
		<path class="st3" d="M207.82,149.12c1.46,2.08,2.46,4.97,2.36,7.53c-0.05,1.16-0.32,2.38-1.22,3.18
			c-1.02,0.92-3.03,1.45-3.77-0.07c-0.7-1.45-0.34-3.89-0.15-5.45l-0.12-0.43C204.31,151.75,205.65,149.56,207.82,149.12
			L207.82,149.12z"/>
		<path class="st1" d="M207.82,149.12c1.46,2.08,2.46,4.97,2.36,7.53c-0.05,1.16-0.32,2.38-1.22,3.18
			c-1.02,0.92-3.03,1.45-3.77-0.07c-0.7-1.45-0.34-3.89-0.15-5.45"/>
	</g>
	<path d="M145.45,138.83c-1.21,0-2.19,2.12-2.19,4.73c0,2.61,0.98,4.73,2.19,4.73c1.21,0,2.19-2.12,2.19-4.73
		C147.64,140.94,146.66,138.83,145.45,138.83z"/>
	<path d="M164.92,138.82c-1.21,0-2.19,2.12-2.19,4.73c0,2.61,0.98,4.73,2.19,4.73c1.21,0,2.19-2.12,2.19-4.73
		C167.1,140.94,166.12,138.82,164.92,138.82z"/>
	<rect x="151.02" y="151.42" width="8.26" height="35.08"/>
	<path class="st4" d="M158.29,185.62c-2.3-0.06-4.11,0.02-6.27-0.02c-0.48-0.01-0.87,0.39-0.96,0.87c-0.32,1.73-0.55,5.67,4.03,5.67
		c4.55,0,4.45-3.87,4.18-5.62C159.2,186.01,158.79,185.63,158.29,185.62z"/>
	<path class="st4" d="M152,152.31c2.1,0.32,4.22,0.36,6.27,0.02c0.48-0.08,0.87-0.39,0.96-0.87c0.32-1.73,0.55-5.67-4.03-5.67
		c-4.55,0-4.45,3.87-4.18,5.62C151.1,151.92,151.51,152.24,152,152.31z"/>
	<path class="st12" d="M151.98,185.02h6.4C158.38,185.02,155.48,181.56,151.98,185.02z"/>
</g>
</svg>
