<?xml version="1.0" encoding="utf-8"?>
<!-- Generator: Adobe Illustrator 26.0.3, SVG Export Plug-In . SVG Version: 6.00 Build 0)  -->
<svg version="1.1" id="레이어_1" xmlns="http://www.w3.org/2000/svg" xmlns:xlink="http://www.w3.org/1999/xlink" x="0px"
	 y="0px" viewBox="0 0 348.66 348.66" style="enable-background:new 0 0 348.66 348.66;" xml:space="preserve">
<style type="text/css">
	.st0{fill:#5E7083;stroke:#000000;stroke-width:2;stroke-linecap:round;stroke-linejoin:round;stroke-miterlimit:10;}
	.st1{fill:none;stroke:#000000;stroke-width:2;stroke-linecap:round;stroke-linejoin:round;stroke-miterlimit:10;}
	.st2{fill:#FFFFFF;}
	.st3{fill:#5E7083;}
	.st4{fill:#FDE87B;stroke:#000000;stroke-width:2;stroke-linecap:round;stroke-linejoin:round;stroke-miterlimit:10;}
	.st5{fill:#E22326;}
	.st6{fill:#62BB46;}
	.st7{fill:none;stroke:#000000;stroke-width:2;stroke-miterlimit:10;}
	.st8{fill:#A97C50;stroke:#000000;stroke-width:2;stroke-linecap:round;stroke-linejoin:round;stroke-miterlimit:10;}
	.st9{fill:#694721;stroke:#000000;stroke-width:2;stroke-linecap:round;stroke-linejoin:round;stroke-miterlimit:10;}
	.st10{fill:url(#SVGID_1_);}
	.st11{fill:none;stroke:#000000;stroke-width:2;stroke-linecap:round;stroke-miterlimit:10;}
	.st12{fill:#E86B58;}
	.st13{fill:#94CAFF;stroke:#000000;stroke-width:2;stroke-linecap:round;stroke-linejoin:round;stroke-miterlimit:10;}
	.st14{fill:#94CAFF;}
	.st15{fill:#F2C3C6;}
	.st16{fill:#F2C3C6;stroke:#000000;stroke-width:2;stroke-linecap:round;stroke-linejoin:round;stroke-miterlimit:10;}
	.st17{fill:#E96C5E;stroke:#000000;stroke-width:2;stroke-linecap:round;stroke-linejoin:round;stroke-miterlimit:10;}
	.st18{fill:#F7E575;stroke:#000000;stroke-width:2;stroke-linecap:round;stroke-linejoin:round;stroke-miterlimit:10;}
	.st19{fill:#92C5D0;stroke:#000000;stroke-width:2;stroke-linecap:round;stroke-linejoin:round;stroke-miterlimit:10;}
	.st20{fill:none;}
	.st21{fill:#EFA5AC;}
	.st22{fill:#FFFFFF;stroke:#000000;stroke-width:2;stroke-linecap:round;stroke-linejoin:round;stroke-miterlimit:10;}
	.st23{fill:#C8B4A5;}
	.st24{fill:#C8B4A5;stroke:#000000;stroke-width:2;stroke-linecap:round;stroke-linejoin:round;stroke-miterlimit:10;}
	.st25{fill:none;stroke:#E97871;stroke-width:2;stroke-linecap:round;stroke-linejoin:round;stroke-miterlimit:10;}
	.st26{fill:#F7C711;}
	.st27{fill:none;stroke:#EB8023;stroke-width:2;stroke-linecap:round;stroke-linejoin:round;stroke-miterlimit:10;}
	.st28{fill:#2E3980;stroke:#000000;stroke-width:2;stroke-linecap:round;stroke-linejoin:round;stroke-miterlimit:10;}
	.st29{fill:#CCABFF;stroke:#000000;stroke-width:2;stroke-linecap:round;stroke-linejoin:round;stroke-miterlimit:10;}
	.st30{fill:#2960A8;stroke:#000000;stroke-width:2;stroke-linecap:round;stroke-linejoin:round;stroke-miterlimit:10;}
	.st31{fill:#7D95CA;stroke:#000000;stroke-width:2;stroke-linecap:round;stroke-linejoin:round;stroke-miterlimit:10;}
	.st32{fill:#F7C711;stroke:#000000;stroke-width:2;stroke-linecap:round;stroke-linejoin:round;stroke-miterlimit:10;}
	.st33{fill:#E8E8E8;}
	.st34{fill:#A1BB7C;stroke:#000000;stroke-width:2;stroke-linecap:round;stroke-linejoin:round;stroke-miterlimit:10;}
	.st35{fill:#CDB285;stroke:#000000;stroke-width:1.7482;stroke-linecap:round;stroke-linejoin:round;stroke-miterlimit:10;}
	.st36{fill:#665439;stroke:#000000;stroke-width:2;stroke-linecap:round;stroke-linejoin:round;stroke-miterlimit:10;}
	.st37{fill:#546631;stroke:#000000;stroke-width:2;stroke-linecap:round;stroke-linejoin:round;stroke-miterlimit:10;}
	.st38{fill:#E1F4FD;}
	.st39{fill:#EADBB6;stroke:#000000;stroke-width:2;stroke-linecap:round;stroke-linejoin:round;stroke-miterlimit:10;}
	.st40{fill:none;stroke:#000000;stroke-width:1.7482;stroke-linecap:round;stroke-linejoin:round;stroke-miterlimit:10;}
	.st41{fill:#002DAA;stroke:#000000;stroke-width:2;stroke-linecap:round;stroke-linejoin:round;stroke-miterlimit:10;}
	.st42{fill:#FFDA75;stroke:#000000;stroke-width:2;stroke-linecap:round;stroke-linejoin:round;stroke-miterlimit:10;}
	.st43{fill:#FFA9D3;stroke:#000000;stroke-width:2;stroke-linecap:round;stroke-linejoin:round;stroke-miterlimit:10;}
	.st44{fill:none;stroke:#C7B58B;stroke-width:2;stroke-linecap:round;stroke-linejoin:round;stroke-miterlimit:10;}
	.st45{fill:#FCE26B;stroke:#000000;stroke-width:2;stroke-linecap:round;stroke-linejoin:round;stroke-miterlimit:10;}
</style>
<path class="st13" d="M224.45,214.06c0,0,1.74,23.44,6.02,31.19c0.97,1.76,6.2,3.4,8.27,3.42c7.53,0.09,6.19,22.42,2.1,24.76
	c-4.09,2.34-29.92-1.38-29.92-1.38c-9.97-0.85-14.06-0.85-22.4-0.85c-8.34,0-12.43,0-22.4,0.85c0,0-25.83,3.72-29.92,1.38
	c-4.09-2.34-5.42-24.46,2.1-24.76c3.65-0.15,8.75-0.66,10.05-3.46c4.8-10.31,4.2-28.7,4.2-28.7"/>
<path class="st13" d="M223.17,236.09c-1,6.78-2.23,15.18-3.57,16.77c-2.4,2.85-11.42,3.33-15.06,1.43
	c-2.17-1.13-3.62-9.16-4.16-16.87"/>
<path class="st13" d="M152.55,239.43c-6.8-0.83-14.86-2.06-16.48-3.36c-2.91-2.33-4.08-12.54-2.45-15.65
	c1.64-3.13,14.47-3.18,22.17-3.92"/>
<g>
	<path class="st14" d="M259.39,180.09L259.39,180.09c11.7-9.46,13.51-26.61,4.05-38.31l0,0c-4.54-5.62-6.67-12.81-5.91-19.99l0,0
		c1.58-14.96-9.27-28.37-24.23-29.95l0,0c-7.18-0.76-13.77-4.34-18.31-9.96h0c-9.46-11.7-26.61-13.51-38.31-4.05l0,0
		c-5.62,4.54-12.81,6.67-19.99,5.91l0,0c-14.96-1.58-28.37,9.27-29.95,24.23l0,0c-0.76,7.18-4.34,13.77-9.96,18.32l0,0
		c-11.7,9.46-13.51,26.61-4.05,38.31l0,0c4.54,5.62,6.67,12.81,5.91,19.99h0c-1.58,14.96,9.27,28.37,24.23,29.95l0,0
		c7.18,0.76,13.77,4.34,18.32,9.96l0,0c9.46,11.7,26.61,13.51,38.31,4.05l0,0c5.62-4.54,12.81-6.67,19.99-5.91l0,0
		c14.96,1.58,28.37-9.27,29.95-24.23v0C250.19,191.22,253.77,184.63,259.39,180.09z"/>
	<path class="st1" d="M228.73,139.91c0,0,3.72-8.98-0.48-11.21c-4.2-2.23-11.18,4.88-11.18,4.88"/>
	<path class="st1" d="M153.4,131.95c0,0-1.76-9.56,2.81-10.86c4.58-1.3,9.91,7.1,9.91,7.1"/>
	<path class="st1" d="M191.77,185.67c0,0-2.04-11.8-5.83-12.19c-3.8-0.39-8.23,10.46-8.23,10.46"/>
	<path class="st1" d="M259.39,180.09L259.39,180.09c11.7-9.46,13.51-26.61,4.05-38.31l0,0c-4.54-5.62-6.67-12.81-5.91-19.99l0,0
		c1.58-14.96-9.27-28.37-24.23-29.95l0,0c-7.18-0.76-13.77-4.34-18.31-9.96h0c-9.46-11.7-26.61-13.51-38.31-4.05l0,0
		c-5.62,4.54-12.81,6.67-19.99,5.91l0,0c-14.96-1.58-28.37,9.27-29.95,24.23l0,0c-0.76,7.18-4.34,13.77-9.96,18.32l0,0
		c-11.7,9.46-13.51,26.61-4.05,38.31l0,0c4.54,5.62,6.67,12.81,5.91,19.99h0c-1.58,14.96,9.27,28.37,24.23,29.95l0,0
		c7.18,0.76,13.77,4.34,18.32,9.96l0,0c9.46,11.7,26.61,13.51,38.31,4.05l0,0c5.62-4.54,12.81-6.67,19.99-5.91l0,0
		c14.96,1.58,28.37-9.27,29.95-24.23v0C250.19,191.22,253.77,184.63,259.39,180.09z"/>
	<path d="M178.49,167.14c-0.17,1.64-1.64,2.82-3.28,2.65c-1.64-0.17-2.82-1.64-2.65-3.28c0.17-1.64,1.64-2.82,3.28-2.65
		C177.48,164.04,178.66,165.51,178.49,167.14z"/>
	<path d="M201.78,169.6c-0.17,1.64-1.64,2.82-3.28,2.65c-1.64-0.17-2.82-1.64-2.65-3.28c0.17-1.64,1.64-2.82,3.28-2.65
		C200.76,166.5,201.95,167.97,201.78,169.6z"/>
</g>
<g>
	<g>
		<path class="st15" d="M207.53,191.94c-1.75-0.43-4.51,0.04-5.66,1.83c-0.71,1.1-1.02,2.55-0.73,3.84
			c0.54,2.39,2.73,3.99,4.97,4.12c1.38,0.08,2.71,0,3.97-0.77c1.38-0.85,3.15-2.48,3.14-4.38
			C213.19,193.54,209.63,192.45,207.53,191.94z"/>
		<path class="st15" d="M218.25,189.43c1.93-0.52,4.08,0.65,2.76,3.07c-0.43,0.78-1.21,1.36-2.09,1.54
			c-0.67,0.14-1.39,0.04-1.97-0.33c-0.57-0.37-0.98-1.01-0.99-1.7c-0.01-0.65,0.32-1.28,0.79-1.74
			C217.19,189.85,217.71,189.57,218.25,189.43z"/>
		<path class="st15" d="M154.49,190.51c1.1,2.51,3.79,3.56,6.01,1.82c0.8-0.63,1.46-1.42,2.21-2.11c0.72-0.66,1.56-1.25,2-2.12
			c0.68-1.33,0.2-3.08-0.92-4.06c-1.13-0.98-2.77-1.25-4.23-0.91C156.61,183.81,153.05,187.23,154.49,190.51z"/>
	</g>
</g>
<line class="st1" x1="123.96" y1="210.29" x2="141.28" y2="232.14"/>
<path class="st16" d="M142.77,173.35L142.77,173.35c4.37-8.3,1.18-18.56-7.12-22.93l0,0c-3.98-2.1-6.97-5.69-8.31-9.99l0,0
	c-2.78-8.95-12.29-13.96-21.24-11.18l0,0c-4.3,1.33-8.95,0.91-12.94-1.19l0,0c-8.3-4.37-18.56-1.18-22.93,7.12l0,0
	c-2.1,3.98-5.69,6.97-9.99,8.31l0,0c-8.95,2.78-13.96,12.29-11.18,21.24l0,0c1.33,4.3,0.91,8.95-1.19,12.94l0,0
	c-4.37,8.3-1.18,18.56,7.12,22.93l0,0c3.98,2.1,6.97,5.69,8.31,9.99l0,0c2.78,8.95,12.29,13.96,21.24,11.18l0,0
	c4.3-1.33,8.95-0.91,12.94,1.19l0,0c8.3,4.37,18.56,1.18,22.93-7.12l0,0c2.1-3.98,5.69-6.97,9.99-8.31l0,0
	c8.95-2.78,13.96-12.29,11.18-21.24l0,0C140.25,181.99,140.67,177.34,142.77,173.35z"/>
<path class="st17" d="M113.43,261.37L113.43,261.37c1.02-1.93,0.28-4.33-1.66-5.35l0,0c-0.93-0.49-1.63-1.33-1.94-2.33l0,0
	c-0.65-2.09-2.87-3.25-4.95-2.61l0,0c-1,0.31-2.09,0.21-3.02-0.28l0,0c-1.93-1.02-4.33-0.28-5.35,1.66l0,0
	c-0.49,0.93-1.33,1.63-2.33,1.94l0,0c-2.09,0.65-3.26,2.87-2.61,4.95l0,0c0.31,1,0.21,2.09-0.28,3.02l0,0
	c-1.02,1.93-0.27,4.33,1.66,5.35l0,0c0.93,0.49,1.63,1.33,1.94,2.33v0c0.65,2.09,2.87,3.25,4.95,2.61l0,0
	c1-0.31,2.09-0.21,3.02,0.28l0,0c1.93,1.02,4.33,0.27,5.35-1.66l0,0c0.49-0.93,1.33-1.63,2.33-1.94l0,0
	c2.09-0.65,3.26-2.87,2.61-4.95l0,0C112.84,263.38,112.94,262.3,113.43,261.37z"/>
<path class="st18" d="M277.3,264.86L277.3,264.86c1.02-1.93,0.27-4.33-1.66-5.35l0,0c-0.93-0.49-1.63-1.33-1.94-2.33l0,0
	c-0.65-2.09-2.87-3.26-4.95-2.61l0,0c-1,0.31-2.09,0.21-3.02-0.28l0,0c-1.93-1.02-4.33-0.27-5.35,1.66l0,0
	c-0.49,0.93-1.33,1.63-2.33,1.94l0,0c-2.09,0.65-3.26,2.87-2.61,4.95l0,0c0.31,1,0.21,2.09-0.28,3.02l0,0
	c-1.02,1.93-0.28,4.33,1.66,5.35l0,0c0.93,0.49,1.63,1.33,1.94,2.33l0,0c0.65,2.09,2.87,3.26,4.95,2.61l0,0
	c1-0.31,2.09-0.21,3.02,0.28l0,0c1.93,1.02,4.33,0.27,5.35-1.66l0,0c0.49-0.93,1.33-1.63,2.33-1.94l0,0
	c2.09-0.65,3.26-2.87,2.61-4.95l0,0C276.72,266.88,276.82,265.79,277.3,264.86z"/>
<path class="st19" d="M268.74,254.92L268.74,254.92c2.09,0.65,4.31-0.51,4.96-2.6l0,0c0.31-1,1.01-1.84,1.94-2.33l0,0
	c1.94-1.02,2.68-3.41,1.67-5.34l0,0c-0.49-0.93-0.59-2.02-0.27-3.02l0,0c0.65-2.09-0.51-4.31-2.6-4.96l0,0
	c-1-0.31-1.84-1.01-2.33-1.94l0,0c-1.02-1.94-3.41-2.68-5.34-1.67l0,0c-0.93,0.49-2.01,0.59-3.02,0.27l0,0
	c-2.09-0.65-4.31,0.51-4.96,2.6l0,0c-0.31,1-1.01,1.84-1.94,2.33l0,0c-1.94,1.02-2.68,3.41-1.67,5.34l0,0
	c0.49,0.93,0.59,2.02,0.27,3.02l0,0c-0.65,2.09,0.51,4.31,2.6,4.96l0,0c1,0.31,1.84,1.01,2.33,1.94l0,0
	c1.02,1.94,3.41,2.68,5.34,1.67l0,0C266.65,254.7,267.74,254.6,268.74,254.92z"/>
<path class="st1" d="M75.57,196.11c-0.71,1.97,1.01,4.29,3.1,4.48c2.09,0.19,4.08-1.45,4.64-3.47c-0.51,1.13,0.14,2.54,1.18,3.21
	c1.05,0.67,2.37,0.75,3.61,0.64c1.23-0.11,1.67-0.26,2.57-1.11c0.69-0.65,0.99-2.09,0.59-3.26c0.46,0.42,1.57,1.39,2.36,1.57
	c1.15,0.26,2.08-0.15,2.79-0.53c2.27-1.22,2.27-3.68,1.17-6.01"/>
<path class="st1" d="M68.06,163.18c0.61,1.56,2.26,2.64,3.93,2.58c1.67-0.06,3.24-1.26,3.73-2.86"/>
<g id="XMLID_128_">
	<g>
		<path class="st20" d="M92.23,221.22c1.82,0.28,3.6,0.86,5.26,1.74c2.52,1.33,5.22,1.96,7.89,1.96c6.1,0,12-3.3,15.03-9.08
			c1.05-2,2.48-3.73,4.18-5.15c1.7-1.4,3.67-2.49,5.81-3.15c7.28-2.27,11.95-8.97,11.95-16.21c0-1.66-0.25-3.36-0.76-5.04
			c-0.51-1.64-0.76-3.34-0.76-5.02c0-2.73,0.67-5.44,1.96-7.91c4.36-8.3,1.18-18.56-7.12-22.93c-2-1.05-3.73-2.48-5.15-4.16
			c-1.42-1.7-2.49-3.68-3.15-5.83c-2.27-7.28-8.98-11.95-16.22-11.95c-0.36,0-0.71,0.01-1.08,0.04c-1.31,0.09-2.62,0.32-3.94,0.73
			c-1.65,0.52-3.35,0.76-5.04,0.76c-2.73,0-5.44-0.65-7.91-1.95c-2.52-1.33-5.22-1.96-7.89-1.96c-6.1,0-12,3.3-15.03,9.08
			c-1.06,2-2.48,3.73-4.18,5.15c-1.69,1.4-3.66,2.49-5.81,3.15c-7.28,2.27-11.95,8.97-11.95,16.21c0,1.66,0.25,3.36,0.76,5.04
			c0.51,1.65,0.76,3.34,0.76,5.04c0,2.72-0.65,5.44-1.96,7.89c-1.33,2.53-1.95,5.22-1.95,7.88c0,6.11,3.29,12.01,9.06,15.05
			c2,1.05,3.74,2.48,5.15,4.16c1.42,1.7,2.49,3.68,3.17,5.83c2.25,7.28,8.97,11.95,16.21,11.95c1.66,0,3.35-0.25,5.03-0.76
			c1.65-0.52,3.35-0.76,5.05-0.76C90.48,221.01,91.35,221.08,92.23,221.22z"/>
		<path class="st20" d="M110.05,128.53c0,0,7.24,4.59,6.13,18.15c-1.11,13.55,11.04,12.06,13.81,22.93
			c2.77,10.88,1.12,21.39-8.79,25.74c-17.09,7.5-7.22,27.63-28.97,25.86"/>
	</g>
</g>
<g>
	<g>
		<path class="st21" d="M135.66,150.43c8.3,4.37,11.48,14.63,7.12,22.93c-1.29,2.46-1.96,5.17-1.96,7.91c0,1.69,0.26,3.39,0.76,5.02
			c0.52,1.68,0.76,3.37,0.76,5.04c0,7.24-4.67,13.94-11.95,16.21c-2.14,0.67-4.11,1.75-5.81,3.15c-1.7,1.42-3.13,3.15-4.18,5.15
			c-3.03,5.78-8.93,9.08-15.03,9.08c-2.67,0-5.37-0.63-7.89-1.96c-1.66-0.87-3.44-1.45-5.26-1.74c21.75,1.76,6.47-18.15,22.95-26.92
			c7.98-4.25,11.16-15.35,8.39-26.23c-2.77-10.88-8.49-7.85-7.38-21.39c1.11-13.56-6.13-18.15-6.13-18.15
			c0.37-0.02,0.73-0.04,1.08-0.04c7.24,0,13.95,4.67,16.22,11.95c0.67,2.14,1.74,4.13,3.15,5.83
			C131.92,147.95,133.66,149.38,135.66,150.43z"/>
	</g>
</g>
<path class="st1" d="M142.77,173.35L142.77,173.35c4.37-8.3,1.18-18.56-7.12-22.93l0,0c-3.98-2.1-6.97-5.69-8.31-9.99l0,0
	c-2.78-8.95-12.29-13.96-21.24-11.18l0,0c-4.3,1.33-8.95,0.91-12.94-1.19l0,0c-8.3-4.37-18.56-1.18-22.93,7.12l0,0
	c-2.1,3.98-5.69,6.97-9.99,8.31l0,0c-8.95,2.78-13.96,12.29-11.18,21.24l0,0c1.33,4.3,0.91,8.95-1.19,12.94l0,0
	c-4.37,8.3-1.18,18.56,7.12,22.93l0,0c3.98,2.1,6.97,5.69,8.31,9.99l0,0c2.78,8.95,12.29,13.96,21.24,11.18l0,0
	c4.3-1.33,8.95-0.91,12.94,1.19l0,0c8.3,4.37,18.56,1.18,22.93-7.12l0,0c2.1-3.98,5.69-6.97,9.99-8.31l0,0
	c8.95-2.78,13.96-12.29,11.18-21.24l0,0C140.25,181.99,140.67,177.34,142.77,173.35z"/>
<path class="st1" d="M118.02,168.48c1.38,0.94,3.36,0.91,4.7-0.08c1.35-0.99,1.96-2.87,1.46-4.47"/>
</svg>
