<svg width="409" height="71" viewBox="0 0 409 71" fill="none" xmlns="http://www.w3.org/2000/svg">
<path d="M10.384 21.68V50.72H23.804V56H3.212V26.124C3.212 25.3613 3.124 24.76 2.948 24.32C2.80133 23.88 2.52267 23.4253 2.112 22.956C1.848 22.6333 1.77467 22.34 1.892 22.076C2.00933 21.812 2.22933 21.68 2.552 21.68H10.384ZM44.8429 43.636C44.8429 40.996 44.2415 38.9427 43.0389 37.476C41.8655 36.0093 40.2669 35.276 38.2429 35.276C36.2189 35.276 34.6202 36.0093 33.4469 37.476C32.2735 38.9427 31.6869 40.996 31.6869 43.636C31.6869 46.2467 32.2735 48.2853 33.4469 49.752C34.6202 51.2187 36.2189 51.952 38.2429 51.952C40.2669 51.952 41.8655 51.2187 43.0389 49.752C44.2415 48.2853 44.8429 46.2467 44.8429 43.636ZM51.7509 43.636C51.7509 45.572 51.4135 47.3467 50.7389 48.96C50.0642 50.544 49.1255 51.9227 47.9229 53.096C46.7202 54.2693 45.2829 55.1787 43.6109 55.824C41.9682 56.4693 40.1789 56.792 38.2429 56.792C36.3069 56.792 34.5175 56.4693 32.8749 55.824C31.2322 55.1787 29.8095 54.2693 28.6069 53.096C27.4042 51.9227 26.4655 50.544 25.7909 48.96C25.1162 47.3467 24.7789 45.572 24.7789 43.636C24.7789 41.7 25.1162 39.9253 25.7909 38.312C26.4655 36.6987 27.4042 35.3053 28.6069 34.132C29.8095 32.9587 31.2322 32.0493 32.8749 31.404C34.5175 30.7587 36.3069 30.436 38.2429 30.436C40.1789 30.436 41.9682 30.7587 43.6109 31.404C45.2829 32.0493 46.7202 32.9587 47.9229 34.132C49.1255 35.3053 50.0642 36.6987 50.7389 38.312C51.4135 39.9253 51.7509 41.7 51.7509 43.636ZM77.9714 39.808C77.9714 41.0987 77.7221 42.316 77.2234 43.46C76.7248 44.5747 75.9768 45.5573 74.9794 46.408C74.0114 47.2587 72.8088 47.9333 71.3714 48.432C69.9634 48.9013 68.3354 49.136 66.4874 49.136C65.2261 49.136 64.1261 49.0333 63.1874 48.828C62.3954 49.7667 61.9994 50.676 61.9994 51.556C61.9994 52.2307 62.1754 52.744 62.5274 53.096C62.9088 53.448 63.5248 53.624 64.3754 53.624H69.3034C70.8874 53.624 72.3541 53.8 73.7034 54.152C75.0528 54.504 76.2114 55.0173 77.1794 55.692C78.1768 56.3667 78.9394 57.2027 79.4674 58.2C80.0248 59.2267 80.3034 60.4147 80.3034 61.764C80.3034 64.6093 79.1594 66.7653 76.8714 68.232C74.6128 69.728 71.3274 70.476 67.0154 70.476C62.5568 70.476 59.1834 69.728 56.8954 68.232C54.6368 66.736 53.5074 64.7267 53.5074 62.204C53.5074 60.7373 53.8741 59.476 54.6074 58.42C55.3701 57.364 56.3528 56.4693 57.5554 55.736C56.4701 54.7387 55.9274 53.4627 55.9274 51.908C55.9274 50.9107 56.1621 49.9867 56.6314 49.136C57.1301 48.256 57.8488 47.5667 58.7874 47.068C57.5554 46.188 56.6168 45.132 55.9714 43.9C55.3261 42.6387 55.0034 41.2747 55.0034 39.808C55.0034 38.5173 55.2528 37.3 55.7514 36.156C56.2794 35.012 57.0274 34.0147 57.9954 33.164C58.9634 32.3133 60.1514 31.6533 61.5594 31.184C62.9968 30.6853 64.6394 30.436 66.4874 30.436C67.8954 30.436 69.1714 30.5827 70.3154 30.876C71.4594 31.14 72.4714 31.5213 73.3514 32.02C74.1141 31.6973 74.9501 31.448 75.8594 31.272C76.7688 31.096 77.5168 31.008 78.1034 31.008C78.7781 31.008 79.3794 31.0373 79.9074 31.096C80.4354 31.1253 80.9928 31.2133 81.5794 31.36V35.76C81.5794 35.9947 81.4914 36.1707 81.3154 36.288C81.1688 36.4053 80.9341 36.3907 80.6114 36.244C80.2301 36.0973 79.8488 35.98 79.4674 35.892C79.0861 35.804 78.6754 35.76 78.2354 35.76C78.0301 35.76 77.8248 35.7747 77.6194 35.804C77.4434 35.804 77.2674 35.8187 77.0914 35.848C77.4141 36.4347 77.6341 37.0653 77.7514 37.74C77.8981 38.4147 77.9714 39.104 77.9714 39.808ZM60.4154 62.028C60.4154 62.644 60.5181 63.1867 60.7234 63.656C60.9581 64.1253 61.3248 64.5213 61.8234 64.844C62.3514 65.196 63.0408 65.46 63.8914 65.636C64.7421 65.812 65.7834 65.9 67.0154 65.9C68.2474 65.9 69.2741 65.7973 70.0954 65.592C70.9168 65.416 71.5621 65.152 72.0314 64.8C72.5301 64.448 72.8821 64.008 73.0874 63.48C73.2928 62.9813 73.3954 62.424 73.3954 61.808C73.3954 60.6933 73.1021 59.784 72.5154 59.08C71.9288 58.4053 70.7848 58.068 69.0834 58.068H64.3754C63.9648 58.068 63.5688 58.0533 63.1874 58.024C62.8061 57.9947 62.4394 57.9507 62.0874 57.892C61.4714 58.5373 61.0314 59.2267 60.7674 59.96C60.5328 60.6933 60.4154 61.3827 60.4154 62.028ZM71.0634 39.808C71.0634 38.312 70.6674 37.1387 69.8754 36.288C69.1128 35.4373 67.9834 35.012 66.4874 35.012C64.9914 35.012 63.8474 35.4373 63.0554 36.288C62.2928 37.1387 61.9114 38.312 61.9114 39.808C61.9114 41.304 62.2928 42.4773 63.0554 43.328C63.8474 44.1493 64.9914 44.56 66.4874 44.56C67.9834 44.56 69.1128 44.1493 69.8754 43.328C70.6674 42.4773 71.0634 41.304 71.0634 39.808ZM105.817 23.44C105.817 24.6427 105.421 25.64 104.629 26.432C103.866 27.224 102.869 27.62 101.637 27.62C100.405 27.62 99.3926 27.224 98.6006 26.432C97.8379 25.64 97.4566 24.6427 97.4566 23.44C97.4566 22.2373 97.8379 21.24 98.6006 20.448C99.3926 19.656 100.405 19.26 101.637 19.26C102.869 19.26 103.866 19.656 104.629 20.448C105.421 21.24 105.817 22.2373 105.817 23.44ZM105.553 31.272V56H98.6446V35.628C98.6446 34.924 98.5566 34.352 98.3806 33.912C98.2339 33.472 97.9552 33.0173 97.5446 32.548C97.2806 32.2253 97.2072 31.932 97.3246 31.668C97.4419 31.404 97.6619 31.272 97.9846 31.272H105.553ZM110.866 31.272H118.214V33.692C119.123 32.812 120.135 32.0493 121.25 31.404C122.394 30.7587 123.743 30.436 125.298 30.436C126.618 30.436 127.835 30.6267 128.95 31.008C130.065 31.36 131.033 31.888 131.854 32.592C132.705 33.296 133.365 34.176 133.834 35.232C134.303 36.2587 134.538 37.4467 134.538 38.796V56H127.63V39.412C127.63 38.004 127.307 36.992 126.662 36.376C126.046 35.7307 125.034 35.408 123.626 35.408C122.658 35.408 121.749 35.5987 120.898 35.98C120.047 36.3613 119.226 36.904 118.434 37.608V56H111.526V35.716C111.526 34.9533 111.438 34.352 111.262 33.912C111.115 33.472 110.837 33.0173 110.426 32.548C110.133 32.2253 110.045 31.932 110.162 31.668C110.309 31.404 110.543 31.272 110.866 31.272ZM162.097 23.396V31.272H167.905V36.112H162.097V49.972C162.097 50.8227 162.317 51.3653 162.757 51.6C163.197 51.8347 163.71 51.952 164.297 51.952C164.883 51.952 165.514 51.8493 166.189 51.644C166.893 51.4093 167.582 51.1307 168.257 50.808L169.049 54.416C169.137 54.7973 168.902 55.1493 168.345 55.472C167.787 55.7653 167.083 56.0293 166.233 56.264C165.558 56.44 164.869 56.572 164.165 56.66C163.49 56.748 162.698 56.792 161.789 56.792C159.853 56.792 158.269 56.3227 157.037 55.384C155.805 54.416 155.189 52.964 155.189 51.028V36.112H151.009V31.272H155.189V23.396H162.097ZM190.765 43.636C190.765 40.996 190.163 38.9427 188.961 37.476C187.787 36.0093 186.189 35.276 184.165 35.276C182.141 35.276 180.542 36.0093 179.369 37.476C178.195 38.9427 177.609 40.996 177.609 43.636C177.609 46.2467 178.195 48.2853 179.369 49.752C180.542 51.2187 182.141 51.952 184.165 51.952C186.189 51.952 187.787 51.2187 188.961 49.752C190.163 48.2853 190.765 46.2467 190.765 43.636ZM197.673 43.636C197.673 45.572 197.335 47.3467 196.661 48.96C195.986 50.544 195.047 51.9227 193.845 53.096C192.642 54.2693 191.205 55.1787 189.533 55.824C187.89 56.4693 186.101 56.792 184.165 56.792C182.229 56.792 180.439 56.4693 178.797 55.824C177.154 55.1787 175.731 54.2693 174.529 53.096C173.326 51.9227 172.387 50.544 171.713 48.96C171.038 47.3467 170.701 45.572 170.701 43.636C170.701 41.7 171.038 39.9253 171.713 38.312C172.387 36.6987 173.326 35.3053 174.529 34.132C175.731 32.9587 177.154 32.0493 178.797 31.404C180.439 30.7587 182.229 30.436 184.165 30.436C186.101 30.436 187.89 30.7587 189.533 31.404C191.205 32.0493 192.642 32.9587 193.845 34.132C195.047 35.3053 195.986 36.6987 196.661 38.312C197.335 39.9253 197.673 41.7 197.673 43.636Z" fill="black"/>
<path d="M226.84 39.52L234.08 25.8H241.12L230.12 45.44V57H223.52V45.48L214.8 29.84C214.427 29.1467 214.053 28.5867 213.68 28.16C213.333 27.7067 212.987 27.3333 212.64 27.04C212.32 26.7467 212.2 26.4667 212.28 26.2C212.387 25.9333 212.587 25.8 212.88 25.8H219.56L226.84 39.52ZM272.822 41.4C272.822 43.8533 272.475 46.0933 271.782 48.12C271.089 50.1467 270.062 51.8933 268.702 53.36C267.342 54.8 265.662 55.92 263.662 56.72C261.689 57.52 259.409 57.92 256.822 57.92C254.235 57.92 251.942 57.52 249.942 56.72C247.969 55.92 246.302 54.8 244.942 53.36C243.582 51.8933 242.555 50.1467 241.862 48.12C241.169 46.0933 240.822 43.8533 240.822 41.4C240.822 38.9467 241.169 36.7067 241.862 34.68C242.555 32.6533 243.582 30.92 244.942 29.48C246.302 28.04 247.969 26.92 249.942 26.12C251.942 25.32 254.235 24.92 256.822 24.92C259.409 24.92 261.689 25.32 263.662 26.12C265.662 26.92 267.342 28.04 268.702 29.48C270.062 30.92 271.089 32.6533 271.782 34.68C272.475 36.7067 272.822 38.9467 272.822 41.4ZM247.302 41.4C247.302 45.2133 248.155 48.1467 249.862 50.2C251.569 52.2267 253.889 53.24 256.822 53.24C259.729 53.24 262.035 52.2267 263.742 50.2C265.449 48.1467 266.302 45.2133 266.302 41.4C266.302 37.5867 265.449 34.6667 263.742 32.64C262.035 30.5867 259.729 29.56 256.822 29.56C253.889 29.56 251.569 30.5867 249.862 32.64C248.155 34.6667 247.302 37.5867 247.302 41.4ZM277.067 29.84C277.067 29.1467 276.987 28.6 276.827 28.2C276.693 27.8 276.44 27.3867 276.067 26.96C275.827 26.6667 275.76 26.4 275.867 26.16C275.973 25.92 276.173 25.8 276.467 25.8H283.587V45.8C283.587 48.0933 284.12 49.8933 285.187 51.2C286.28 52.48 287.987 53.12 290.307 53.12C292.6 53.12 294.293 52.48 295.387 51.2C296.48 49.8933 297.027 48.0933 297.027 45.8V25.8H303.547V46.32C303.547 48.2933 303.213 50.0133 302.547 51.48C301.88 52.92 300.96 54.12 299.787 55.08C298.613 56.04 297.213 56.7467 295.587 57.2C293.987 57.68 292.227 57.92 290.307 57.92C288.387 57.92 286.613 57.68 284.987 57.2C283.387 56.7467 282 56.04 280.827 55.08C279.653 54.12 278.733 52.92 278.067 51.48C277.4 50.0133 277.067 48.2933 277.067 46.32V29.84ZM309.374 57V29.84C309.374 29.1467 309.294 28.6 309.134 28.2C309.001 27.8 308.747 27.3867 308.374 26.96C308.134 26.6667 308.067 26.4 308.174 26.16C308.281 25.92 308.481 25.8 308.774 25.8H315.694L325.214 42.32L328.374 48.16L327.974 41.4V25.8H334.454V57H328.054L318.414 40.04L315.534 34.48L315.894 41.4V57H309.374ZM360.59 52.16V45.48C360.59 44.84 360.51 44.32 360.35 43.92C360.216 43.52 359.963 43.1067 359.59 42.68C359.35 42.3867 359.283 42.1333 359.39 41.92C359.523 41.68 359.736 41.56 360.03 41.56H367.11V53.04C367.11 53.68 366.763 54.3067 366.07 54.92C365.376 55.5067 364.456 56.0267 363.31 56.48C362.19 56.9067 360.91 57.2533 359.47 57.52C358.03 57.7867 356.563 57.92 355.07 57.92C349.63 57.92 345.563 56.5067 342.87 53.68C340.176 50.8267 338.83 46.68 338.83 41.24C338.83 38.8933 339.136 36.72 339.75 34.72C340.39 32.72 341.35 31 342.63 29.56C343.91 28.0933 345.523 26.96 347.47 26.16C349.443 25.3333 351.776 24.92 354.47 24.92C356.443 24.92 358.336 25.1067 360.15 25.48C361.99 25.8533 363.643 26.3867 365.11 27.08V31.92C365.11 32.32 364.976 32.5733 364.71 32.68C364.443 32.7867 364.163 32.7067 363.87 32.44C362.67 31.5867 361.296 30.8933 359.75 30.36C358.23 29.8267 356.63 29.56 354.95 29.56C353.163 29.56 351.656 29.8667 350.43 30.48C349.203 31.0667 348.203 31.88 347.43 32.92C346.683 33.96 346.136 35.2 345.79 36.64C345.47 38.0533 345.31 39.5867 345.31 41.24C345.31 45.08 346.083 48.04 347.63 50.12C349.203 52.2 351.696 53.24 355.11 53.24C356.123 53.24 357.096 53.1467 358.03 52.96C358.963 52.7467 359.816 52.48 360.59 52.16ZM370.817 34.84C371.644 33.8 372.191 32.7333 372.457 31.64C372.751 30.52 372.897 29.24 372.897 27.8V24.64C372.897 24.1333 373.004 23.7867 373.217 23.6C373.431 23.4133 373.764 23.32 374.217 23.32H378.657V26.4C378.657 28.1333 378.377 29.7467 377.817 31.24C377.257 32.7333 376.484 33.9867 375.497 35C374.137 36.44 373.177 36.8933 372.617 36.36L370.817 34.84ZM386.822 50.36C387.409 50.84 388.075 51.28 388.822 51.68C389.595 52.0533 390.369 52.3733 391.142 52.64C391.942 52.9067 392.729 53.12 393.502 53.28C394.275 53.4133 394.995 53.48 395.662 53.48C397.289 53.48 398.555 53.1467 399.462 52.48C400.395 51.7867 400.862 50.76 400.862 49.4C400.862 48.36 400.609 47.48 400.102 46.76C399.622 46.04 398.715 45.3467 397.382 44.68C396.609 44.28 395.875 43.92 395.182 43.6C394.489 43.28 393.822 42.9467 393.182 42.6C392.542 42.2533 391.915 41.8933 391.302 41.52C390.715 41.12 390.129 40.68 389.542 40.2C388.502 39.2667 387.649 38.2267 386.982 37.08C386.315 35.9067 385.982 34.48 385.982 32.8C385.982 31.6533 386.209 30.6 386.662 29.64C387.142 28.6533 387.822 27.8133 388.702 27.12C389.582 26.4267 390.649 25.8933 391.902 25.52C393.182 25.12 394.622 24.92 396.222 24.92C399.689 24.92 402.769 25.5067 405.462 26.68V31.6C405.462 31.9733 405.329 32.2133 405.062 32.32C404.795 32.4 404.515 32.32 404.222 32.08C402.035 30.24 399.635 29.32 397.022 29.32C395.582 29.32 394.475 29.6267 393.702 30.24C392.955 30.8533 392.582 31.7067 392.582 32.8C392.582 33.5733 392.715 34.24 392.982 34.8C393.249 35.36 393.649 35.8533 394.182 36.28C395.195 37.1067 396.275 37.8267 397.422 38.44C398.595 39.0533 399.742 39.6267 400.862 40.16C401.902 40.64 402.822 41.16 403.622 41.72C404.449 42.28 405.142 42.92 405.702 43.64C406.289 44.36 406.729 45.1867 407.022 46.12C407.315 47.0267 407.462 48.0933 407.462 49.32C407.462 50.84 407.155 52.1467 406.542 53.24C405.955 54.3067 405.129 55.2 404.062 55.92C402.995 56.6133 401.742 57.12 400.302 57.44C398.889 57.76 397.369 57.92 395.742 57.92C394.542 57.92 393.289 57.7867 391.982 57.52C390.702 57.2533 389.555 56.92 388.542 56.52C387.529 56.0933 386.729 55.6267 386.142 55.12C385.555 54.6133 385.369 54.1067 385.582 53.6L386.822 50.36Z" fill="url(#paint0_linear_125_1320)"/>
<path d="M273.556 16.76C273.556 15.64 273.903 14.7333 274.596 14.04C275.316 13.32 276.236 12.96 277.356 12.96C278.476 12.96 279.396 13.32 280.116 14.04C280.836 14.7333 281.196 15.64 281.196 16.76C281.196 17.8533 280.836 18.76 280.116 19.48C279.396 20.2267 278.476 20.6 277.356 20.6C276.236 20.6 275.316 20.2267 274.596 19.48C273.903 18.76 273.556 17.8533 273.556 16.76ZM298.556 16.76C298.556 15.64 298.903 14.7333 299.596 14.04C300.316 13.32 301.236 12.96 302.356 12.96C303.476 12.96 304.396 13.32 305.116 14.04C305.836 14.7333 306.196 15.64 306.196 16.76C306.196 17.8533 305.836 18.76 305.116 19.48C304.396 20.2267 303.476 20.6 302.356 20.6C301.236 20.6 300.316 20.2267 299.596 19.48C298.903 18.76 298.556 17.8533 298.556 16.76Z" fill="url(#paint1_linear_125_1320)"/>
<defs>
<linearGradient id="paint0_linear_125_1320" x1="310.5" y1="29" x2="310.5" y2="56" gradientUnits="userSpaceOnUse">
<stop stop-color="#E300CA"/>
<stop offset="1" stop-color="#0046FF"/>
</linearGradient>
<linearGradient id="paint1_linear_125_1320" x1="290" y1="0" x2="290" y2="6" gradientUnits="userSpaceOnUse">
<stop stop-color="#E300CA"/>
<stop offset="1" stop-color="#0046FF"/>
</linearGradient>
</defs>
</svg>
