<svg width="99" height="32" viewBox="0 0 99 32" fill="none" xmlns="http://www.w3.org/2000/svg">
<path d="M7.42 21.26L11.04 14.4H14.56L9.06 24.22V30H5.76V24.24L1.4 16.42C1.21333 16.0733 1.02667 15.7933 0.84 15.58C0.666667 15.3533 0.493333 15.1667 0.32 15.02C0.16 14.8733 0.1 14.7333 0.14 14.6C0.193333 14.4667 0.293333 14.4 0.44 14.4H3.78L7.42 21.26ZM30.4109 22.2C30.4109 23.4267 30.2376 24.5467 29.8909 25.56C29.5443 26.5733 29.0309 27.4467 28.3509 28.18C27.6709 28.9 26.8309 29.46 25.8309 29.86C24.8443 30.26 23.7043 30.46 22.4109 30.46C21.1176 30.46 19.9709 30.26 18.9709 29.86C17.9843 29.46 17.1509 28.9 16.4709 28.18C15.7909 27.4467 15.2776 26.5733 14.9309 25.56C14.5843 24.5467 14.4109 23.4267 14.4109 22.2C14.4109 20.9733 14.5843 19.8533 14.9309 18.84C15.2776 17.8267 15.7909 16.96 16.4709 16.24C17.1509 15.52 17.9843 14.96 18.9709 14.56C19.9709 14.16 21.1176 13.96 22.4109 13.96C23.7043 13.96 24.8443 14.16 25.8309 14.56C26.8309 14.96 27.6709 15.52 28.3509 16.24C29.0309 16.96 29.5443 17.8267 29.8909 18.84C30.2376 19.8533 30.4109 20.9733 30.4109 22.2ZM17.6509 22.2C17.6509 24.1067 18.0776 25.5733 18.9309 26.6C19.7843 27.6133 20.9443 28.12 22.4109 28.12C23.8643 28.12 25.0176 27.6133 25.8709 26.6C26.7243 25.5733 27.1509 24.1067 27.1509 22.2C27.1509 20.2933 26.7243 18.8333 25.8709 17.82C25.0176 16.7933 23.8643 16.28 22.4109 16.28C20.9443 16.28 19.7843 16.7933 18.9309 17.82C18.0776 18.8333 17.6509 20.2933 17.6509 22.2ZM32.5333 16.42C32.5333 16.0733 32.4933 15.8 32.4133 15.6C32.3466 15.4 32.2199 15.1933 32.0333 14.98C31.9133 14.8333 31.8799 14.7 31.9333 14.58C31.9866 14.46 32.0866 14.4 32.2333 14.4H35.7933V24.4C35.7933 25.5467 36.0599 26.4467 36.5933 27.1C37.1399 27.74 37.9933 28.06 39.1533 28.06C40.2999 28.06 41.1466 27.74 41.6933 27.1C42.2399 26.4467 42.5133 25.5467 42.5133 24.4V14.4H45.7733V24.66C45.7733 25.6467 45.6066 26.5067 45.2733 27.24C44.9399 27.96 44.4799 28.56 43.8933 29.04C43.3066 29.52 42.6066 29.8733 41.7933 30.1C40.9933 30.34 40.1133 30.46 39.1533 30.46C38.1933 30.46 37.3066 30.34 36.4933 30.1C35.6933 29.8733 34.9999 29.52 34.4133 29.04C33.8266 28.56 33.3666 27.96 33.0333 27.24C32.6999 26.5067 32.5333 25.6467 32.5333 24.66V16.42ZM48.687 30V16.42C48.687 16.0733 48.647 15.8 48.567 15.6C48.5004 15.4 48.3737 15.1933 48.187 14.98C48.067 14.8333 48.0337 14.7 48.087 14.58C48.1404 14.46 48.2404 14.4 48.387 14.4H51.847L56.607 22.66L58.187 25.58L57.987 22.2V14.4H61.227V30H58.027L53.207 21.52L51.767 18.74L51.947 22.2V30H48.687ZM74.2948 27.58V24.24C74.2948 23.92 74.2548 23.66 74.1748 23.46C74.1082 23.26 73.9815 23.0533 73.7948 22.84C73.6748 22.6933 73.6415 22.5667 73.6948 22.46C73.7615 22.34 73.8682 22.28 74.0148 22.28H77.5548V28.02C77.5548 28.34 77.3815 28.6533 77.0348 28.96C76.6882 29.2533 76.2282 29.5133 75.6548 29.74C75.0948 29.9533 74.4548 30.1267 73.7348 30.26C73.0148 30.3933 72.2815 30.46 71.5348 30.46C68.8148 30.46 66.7815 29.7533 65.4348 28.34C64.0882 26.9133 63.4148 24.84 63.4148 22.12C63.4148 20.9467 63.5682 19.86 63.8748 18.86C64.1948 17.86 64.6748 17 65.3148 16.28C65.9548 15.5467 66.7615 14.98 67.7348 14.58C68.7215 14.1667 69.8882 13.96 71.2348 13.96C72.2215 13.96 73.1682 14.0533 74.0748 14.24C74.9948 14.4267 75.8215 14.6933 76.5548 15.04V17.46C76.5548 17.66 76.4882 17.7867 76.3548 17.84C76.2215 17.8933 76.0815 17.8533 75.9348 17.72C75.3348 17.2933 74.6482 16.9467 73.8748 16.68C73.1148 16.4133 72.3148 16.28 71.4748 16.28C70.5815 16.28 69.8282 16.4333 69.2148 16.74C68.6015 17.0333 68.1015 17.44 67.7148 17.96C67.3415 18.48 67.0682 19.1 66.8948 19.82C66.7348 20.5267 66.6548 21.2933 66.6548 22.12C66.6548 24.04 67.0415 25.52 67.8148 26.56C68.6015 27.6 69.8482 28.12 71.5548 28.12C72.0615 28.12 72.5482 28.0733 73.0148 27.98C73.4815 27.8733 73.9082 27.74 74.2948 27.58ZM79.4086 18.92C79.8219 18.4 80.0953 17.8667 80.2286 17.32C80.3753 16.76 80.4486 16.12 80.4486 15.4V13.82C80.4486 13.5667 80.5019 13.3933 80.6086 13.3C80.7153 13.2067 80.8819 13.16 81.1086 13.16H83.3286V14.7C83.3286 15.5667 83.1886 16.3733 82.9086 17.12C82.6286 17.8667 82.2419 18.4933 81.7486 19C81.0686 19.72 80.5886 19.9467 80.3086 19.68L79.4086 18.92ZM87.4109 26.68C87.7043 26.92 88.0376 27.14 88.4109 27.34C88.7976 27.5267 89.1843 27.6867 89.5709 27.82C89.9709 27.9533 90.3643 28.06 90.7509 28.14C91.1376 28.2067 91.4976 28.24 91.8309 28.24C92.6443 28.24 93.2776 28.0733 93.7309 27.74C94.1976 27.3933 94.4309 26.88 94.4309 26.2C94.4309 25.68 94.3043 25.24 94.0509 24.88C93.8109 24.52 93.3576 24.1733 92.6909 23.84C92.3043 23.64 91.9376 23.46 91.5909 23.3C91.2443 23.14 90.9109 22.9733 90.5909 22.8C90.2709 22.6267 89.9576 22.4467 89.6509 22.26C89.3576 22.06 89.0643 21.84 88.7709 21.6C88.2509 21.1333 87.8243 20.6133 87.4909 20.04C87.1576 19.4533 86.9909 18.74 86.9909 17.9C86.9909 17.3267 87.1043 16.8 87.3309 16.32C87.5709 15.8267 87.9109 15.4067 88.3509 15.06C88.7909 14.7133 89.3243 14.4467 89.9509 14.26C90.5909 14.06 91.3109 13.96 92.1109 13.96C93.8443 13.96 95.3843 14.2533 96.7309 14.84V17.3C96.7309 17.4867 96.6643 17.6067 96.5309 17.66C96.3976 17.7 96.2576 17.66 96.1109 17.54C95.0176 16.62 93.8176 16.16 92.5109 16.16C91.7909 16.16 91.2376 16.3133 90.8509 16.62C90.4776 16.9267 90.2909 17.3533 90.2909 17.9C90.2909 18.2867 90.3576 18.62 90.4909 18.9C90.6243 19.18 90.8243 19.4267 91.0909 19.64C91.5976 20.0533 92.1376 20.4133 92.7109 20.72C93.2976 21.0267 93.8709 21.3133 94.4309 21.58C94.9509 21.82 95.4109 22.08 95.8109 22.36C96.2243 22.64 96.5709 22.96 96.8509 23.32C97.1443 23.68 97.3643 24.0933 97.5109 24.56C97.6576 25.0133 97.7309 25.5467 97.7309 26.16C97.7309 26.92 97.5776 27.5733 97.2709 28.12C96.9776 28.6533 96.5643 29.1 96.0309 29.46C95.4976 29.8067 94.8709 30.06 94.1509 30.22C93.4443 30.38 92.6843 30.46 91.8709 30.46C91.2709 30.46 90.6443 30.3933 89.9909 30.26C89.3509 30.1267 88.7776 29.96 88.2709 29.76C87.7643 29.5467 87.3643 29.3133 87.0709 29.06C86.7776 28.8067 86.6843 28.5533 86.7909 28.3L87.4109 26.68Z" fill="url(#paint0_linear_2_2300)"/>
<path d="M30.778 9.88C30.778 9.32 30.9514 8.86667 31.298 8.52C31.658 8.16 32.118 7.98 32.678 7.98C33.238 7.98 33.698 8.16 34.058 8.52C34.418 8.86667 34.598 9.32 34.598 9.88C34.598 10.4267 34.418 10.88 34.058 11.24C33.698 11.6133 33.238 11.8 32.678 11.8C32.118 11.8 31.658 11.6133 31.298 11.24C30.9514 10.88 30.778 10.4267 30.778 9.88ZM43.278 9.88C43.278 9.32 43.4514 8.86667 43.798 8.52C44.158 8.16 44.618 7.98 45.178 7.98C45.738 7.98 46.198 8.16 46.558 8.52C46.918 8.86667 47.098 9.32 47.098 9.88C47.098 10.4267 46.918 10.88 46.558 11.24C46.198 11.6133 45.738 11.8 45.178 11.8C44.618 11.8 44.158 11.6133 43.798 11.24C43.4514 10.88 43.278 10.4267 43.278 9.88Z" fill="url(#paint1_linear_2_2300)"/>
<defs>
<linearGradient id="paint0_linear_2_2300" x1="49.5" y1="10" x2="49.5" y2="32" gradientUnits="userSpaceOnUse">
<stop stop-color="#E300CA"/>
<stop offset="1" stop-color="#0046FF"/>
</linearGradient>
<linearGradient id="paint1_linear_2_2300" x1="39" y1="0" x2="39" y2="6" gradientUnits="userSpaceOnUse">
<stop stop-color="#E300CA"/>
<stop offset="1" stop-color="#0046FF"/>
</linearGradient>
</defs>
</svg>
