<svg width="381" height="115" viewBox="0 0 381 115" fill="none" xmlns="http://www.w3.org/2000/svg">
<path d="M14.872 58.092L0.78 31.728H10.088L19.968 51.592L17.732 51.748L27.456 31.728H36.764L22.412 58.092V70H14.872V58.092ZM36.2172 50.916C36.2172 48.2813 36.7199 45.7853 37.7252 43.428C38.7305 41.0707 40.1172 38.9907 41.8852 37.188C43.6879 35.3507 45.7679 33.912 48.1252 32.872C50.4825 31.832 53.0132 31.312 55.7172 31.312C58.3865 31.312 60.8999 31.832 63.2572 32.872C65.6145 33.912 67.6945 35.3507 69.4972 37.188C71.3345 38.9907 72.7559 41.0707 73.7612 43.428C74.8012 45.7853 75.3212 48.2813 75.3212 50.916C75.3212 53.62 74.8012 56.1507 73.7612 58.508C72.7559 60.8653 71.3345 62.9453 69.4972 64.748C67.6945 66.516 65.6145 67.9027 63.2572 68.908C60.8999 69.9133 58.3865 70.416 55.7172 70.416C53.0132 70.416 50.4825 69.9133 48.1252 68.908C45.7679 67.9027 43.6879 66.516 41.8852 64.748C40.1172 62.9453 38.7305 60.8653 37.7252 58.508C36.7199 56.1507 36.2172 53.62 36.2172 50.916ZM44.0172 50.916C44.0172 52.6147 44.3119 54.2093 44.9012 55.7C45.5252 57.156 46.3745 58.456 47.4492 59.6C48.5585 60.7093 49.8239 61.576 51.2452 62.2C52.7012 62.824 54.2785 63.136 55.9772 63.136C57.6065 63.136 59.1145 62.824 60.5012 62.2C61.9225 61.576 63.1532 60.7093 64.1932 59.6C65.2332 58.456 66.0479 57.156 66.6372 55.7C67.2265 54.2093 67.5212 52.6147 67.5212 50.916C67.5212 49.1827 67.2092 47.5707 66.5852 46.08C65.9959 44.5893 65.1639 43.2893 64.0892 42.18C63.0492 41.036 61.8185 40.152 60.3972 39.528C58.9759 38.904 57.4332 38.592 55.7692 38.592C54.1052 38.592 52.5625 38.904 51.1412 39.528C49.7199 40.152 48.4719 41.036 47.3972 42.18C46.3225 43.2893 45.4905 44.5893 44.9012 46.08C44.3119 47.5707 44.0172 49.1827 44.0172 50.916ZM89.5984 55.856C89.5984 57.0693 89.9624 58.2307 90.6904 59.34C91.4184 60.4493 92.3718 61.3507 93.5504 62.044C94.7638 62.7373 96.0811 63.084 97.5024 63.084C99.0624 63.084 100.449 62.7373 101.662 62.044C102.876 61.3507 103.829 60.4493 104.522 59.34C105.25 58.2307 105.614 57.0693 105.614 55.856V31.728H113.05V56.012C113.05 58.82 112.357 61.316 110.97 63.5C109.584 65.6493 107.712 67.348 105.354 68.596C102.997 69.8093 100.38 70.416 97.5024 70.416C94.6598 70.416 92.0598 69.8093 89.7024 68.596C87.3798 67.348 85.5251 65.6493 84.1384 63.5C82.7518 61.316 82.0584 58.82 82.0584 56.012V31.728H89.5984V55.856ZM156.411 71.56L127.395 45.352L129.631 46.6L129.787 70H122.143V30.22H122.455L150.847 56.324L149.183 55.596L149.027 31.728H156.619V71.56H156.411ZM197.519 66.152C197.068 66.6373 196.358 67.14 195.387 67.66C194.416 68.1453 193.29 68.596 192.007 69.012C190.759 69.428 189.476 69.7573 188.159 70C186.842 70.2773 185.594 70.416 184.415 70.416C181.295 70.416 178.487 69.9653 175.991 69.064C173.495 68.128 171.363 66.8453 169.595 65.216C167.827 63.552 166.475 61.5933 165.539 59.34C164.603 57.0867 164.135 54.6253 164.135 51.956C164.135 48.4547 164.655 45.4213 165.695 42.856C166.77 40.256 168.208 38.1067 170.011 36.408C171.848 34.6747 173.946 33.392 176.303 32.56C178.695 31.728 181.191 31.312 183.791 31.312C186.252 31.312 188.506 31.5893 190.551 32.144C192.596 32.664 194.33 33.3227 195.751 34.12L193.307 41.14C192.683 40.7933 191.851 40.4467 190.811 40.1C189.771 39.7533 188.714 39.476 187.639 39.268C186.564 39.0253 185.611 38.904 184.779 38.904C182.699 38.904 180.862 39.164 179.267 39.684C177.672 40.204 176.32 40.984 175.211 42.024C174.136 43.064 173.322 44.364 172.767 45.924C172.212 47.4493 171.935 49.2347 171.935 51.28C171.935 53.0827 172.247 54.712 172.871 56.168C173.495 57.5893 174.362 58.8027 175.471 59.808C176.615 60.8133 177.95 61.576 179.475 62.096C181.035 62.616 182.751 62.876 184.623 62.876C185.698 62.876 186.686 62.8067 187.587 62.668C188.488 62.4947 189.251 62.2347 189.875 61.888V57.26H183.271V49.98H197.519V66.152ZM205.929 40.932L202.185 39.476C202.947 38.7827 203.571 37.7773 204.057 36.46C204.542 35.1427 204.663 33.8773 204.421 32.664L209.985 32.3C210.193 33.2707 210.106 34.3453 209.725 35.524C209.378 36.7027 208.858 37.7773 208.165 38.748C207.506 39.7187 206.761 40.4467 205.929 40.932ZM236.778 40.984C235.322 40.1867 233.832 39.528 232.306 39.008C230.816 38.488 229.412 38.228 228.094 38.228C226.465 38.228 225.182 38.5573 224.246 39.216C223.31 39.8747 222.842 40.8627 222.842 42.18C222.842 43.0813 223.189 43.896 223.882 44.624C224.61 45.3173 225.529 45.9413 226.638 46.496C227.782 47.0507 228.961 47.5533 230.174 48.004C231.284 48.42 232.376 48.9227 233.45 49.512C234.56 50.0667 235.548 50.7773 236.414 51.644C237.281 52.476 237.974 53.5333 238.494 54.816C239.014 56.064 239.274 57.6067 239.274 59.444C239.274 61.3853 238.772 63.188 237.766 64.852C236.761 66.516 235.288 67.868 233.346 68.908C231.405 69.9133 229.013 70.416 226.17 70.416C224.714 70.416 223.224 70.2773 221.698 70C220.208 69.688 218.734 69.2373 217.278 68.648C215.822 68.024 214.418 67.244 213.066 66.308L216.394 60.432C217.296 61.0907 218.266 61.68 219.306 62.2C220.381 62.6853 221.456 63.0667 222.53 63.344C223.605 63.6213 224.593 63.76 225.494 63.76C226.396 63.76 227.297 63.6387 228.198 63.396C229.134 63.1187 229.897 62.668 230.486 62.044C231.11 61.42 231.422 60.5533 231.422 59.444C231.422 58.6813 231.162 57.988 230.642 57.364C230.157 56.74 229.481 56.168 228.614 55.648C227.782 55.128 226.864 54.6773 225.858 54.296C224.68 53.8453 223.466 53.3253 222.218 52.736C220.97 52.1467 219.792 51.436 218.682 50.604C217.608 49.7373 216.724 48.68 216.03 47.432C215.372 46.1493 215.042 44.5893 215.042 42.752C215.042 40.5333 215.528 38.6093 216.498 36.98C217.504 35.3507 218.908 34.068 220.71 33.132C222.513 32.1613 224.593 31.624 226.95 31.52C230.036 31.52 232.532 31.884 234.438 32.612C236.38 33.34 238.113 34.2067 239.638 35.212L236.778 40.984Z" fill="black"/>
<path d="M80.78 21.256C80.78 20.1813 81.1613 19.28 81.924 18.552C82.7213 17.824 83.588 17.46 84.524 17.46C85.3907 17.46 86.2053 17.824 86.968 18.552C87.7653 19.28 88.164 20.1813 88.164 21.256C88.164 22.4 87.7653 23.3187 86.968 24.012C86.2053 24.6707 85.3907 25 84.524 25C83.588 25 82.7213 24.6707 81.924 24.012C81.1613 23.3187 80.78 22.4 80.78 21.256ZM106.628 21.256C106.628 20.1813 107.009 19.28 107.772 18.552C108.569 17.824 109.436 17.46 110.372 17.46C111.238 17.46 112.053 17.824 112.816 18.552C113.613 19.28 114.012 20.1813 114.012 21.256C114.012 22.4 113.613 23.3187 112.816 24.012C112.053 24.6707 111.238 25 110.372 25C109.436 25 108.569 24.6707 107.772 24.012C107.009 23.3187 106.628 22.4 106.628 21.256Z" fill="black"/>
</svg>
