<?xml version="1.0" encoding="utf-8"?>
<!-- Generator: Adobe Illustrator 26.0.3, SVG Export Plug-In . SVG Version: 6.00 Build 0)  -->
<svg version="1.1" id="레이어_1" xmlns="http://www.w3.org/2000/svg" xmlns:xlink="http://www.w3.org/1999/xlink" x="0px"
	 y="0px" viewBox="0 0 348.66 348.66" style="enable-background:new 0 0 348.66 348.66;" xml:space="preserve">
<style type="text/css">
	.st0{fill:#5E7083;stroke:#000000;stroke-width:2;stroke-linecap:round;stroke-linejoin:round;stroke-miterlimit:10;}
	.st1{fill:none;stroke:#000000;stroke-width:2;stroke-linecap:round;stroke-linejoin:round;stroke-miterlimit:10;}
	.st2{fill:#FFFFFF;}
	.st3{fill:#5E7083;}
	.st4{fill:#FDE87B;stroke:#000000;stroke-width:2;stroke-linecap:round;stroke-linejoin:round;stroke-miterlimit:10;}
	.st5{fill:#E22326;}
	.st6{fill:#62BB46;}
	.st7{fill:none;stroke:#000000;stroke-width:2;stroke-miterlimit:10;}
	.st8{fill:#A97C50;stroke:#000000;stroke-width:2;stroke-linecap:round;stroke-linejoin:round;stroke-miterlimit:10;}
	.st9{fill:#694721;stroke:#000000;stroke-width:2;stroke-linecap:round;stroke-linejoin:round;stroke-miterlimit:10;}
	.st10{fill:url(#SVGID_1_);}
	.st11{fill:none;stroke:#000000;stroke-width:2;stroke-linecap:round;stroke-miterlimit:10;}
	.st12{fill:#E86B58;}
	.st13{fill:#94CAFF;stroke:#000000;stroke-width:2;stroke-linecap:round;stroke-linejoin:round;stroke-miterlimit:10;}
	.st14{fill:#94CAFF;}
	.st15{fill:#F2C3C6;}
	.st16{fill:#F2C3C6;stroke:#000000;stroke-width:2;stroke-linecap:round;stroke-linejoin:round;stroke-miterlimit:10;}
	.st17{fill:#E96C5E;stroke:#000000;stroke-width:2;stroke-linecap:round;stroke-linejoin:round;stroke-miterlimit:10;}
	.st18{fill:#F7E575;stroke:#000000;stroke-width:2;stroke-linecap:round;stroke-linejoin:round;stroke-miterlimit:10;}
	.st19{fill:#92C5D0;stroke:#000000;stroke-width:2;stroke-linecap:round;stroke-linejoin:round;stroke-miterlimit:10;}
	.st20{fill:none;}
	.st21{fill:#EFA5AC;}
	.st22{fill:#FFFFFF;stroke:#000000;stroke-width:2;stroke-linecap:round;stroke-linejoin:round;stroke-miterlimit:10;}
	.st23{fill:#C8B4A5;}
	.st24{fill:#C8B4A5;stroke:#000000;stroke-width:2;stroke-linecap:round;stroke-linejoin:round;stroke-miterlimit:10;}
	.st25{fill:none;stroke:#E97871;stroke-width:2;stroke-linecap:round;stroke-linejoin:round;stroke-miterlimit:10;}
	.st26{fill:#F7C711;}
	.st27{fill:none;stroke:#EB8023;stroke-width:2;stroke-linecap:round;stroke-linejoin:round;stroke-miterlimit:10;}
	.st28{fill:#2E3980;stroke:#000000;stroke-width:2;stroke-linecap:round;stroke-linejoin:round;stroke-miterlimit:10;}
	.st29{fill:#CCABFF;stroke:#000000;stroke-width:2;stroke-linecap:round;stroke-linejoin:round;stroke-miterlimit:10;}
	.st30{fill:#2960A8;stroke:#000000;stroke-width:2;stroke-linecap:round;stroke-linejoin:round;stroke-miterlimit:10;}
	.st31{fill:#7D95CA;stroke:#000000;stroke-width:2;stroke-linecap:round;stroke-linejoin:round;stroke-miterlimit:10;}
	.st32{fill:#F7C711;stroke:#000000;stroke-width:2;stroke-linecap:round;stroke-linejoin:round;stroke-miterlimit:10;}
	.st33{fill:#E8E8E8;}
	.st34{fill:#A1BB7C;stroke:#000000;stroke-width:2;stroke-linecap:round;stroke-linejoin:round;stroke-miterlimit:10;}
	.st35{fill:#CDB285;stroke:#000000;stroke-width:1.7482;stroke-linecap:round;stroke-linejoin:round;stroke-miterlimit:10;}
	.st36{fill:#665439;stroke:#000000;stroke-width:2;stroke-linecap:round;stroke-linejoin:round;stroke-miterlimit:10;}
	.st37{fill:#546631;stroke:#000000;stroke-width:2;stroke-linecap:round;stroke-linejoin:round;stroke-miterlimit:10;}
	.st38{fill:#E1F4FD;}
	.st39{fill:#EADBB6;stroke:#000000;stroke-width:2;stroke-linecap:round;stroke-linejoin:round;stroke-miterlimit:10;}
	.st40{fill:none;stroke:#000000;stroke-width:1.7482;stroke-linecap:round;stroke-linejoin:round;stroke-miterlimit:10;}
	.st41{fill:#002DAA;stroke:#000000;stroke-width:2;stroke-linecap:round;stroke-linejoin:round;stroke-miterlimit:10;}
	.st42{fill:#FFDA75;stroke:#000000;stroke-width:2;stroke-linecap:round;stroke-linejoin:round;stroke-miterlimit:10;}
	.st43{fill:#FFA9D3;stroke:#000000;stroke-width:2;stroke-linecap:round;stroke-linejoin:round;stroke-miterlimit:10;}
	.st44{fill:none;stroke:#C7B58B;stroke-width:2;stroke-linecap:round;stroke-linejoin:round;stroke-miterlimit:10;}
	.st45{fill:#FCE26B;stroke:#000000;stroke-width:2;stroke-linecap:round;stroke-linejoin:round;stroke-miterlimit:10;}
</style>
<g>
	<g>
		<g>
			<path class="st22" d="M153.47,268.18c4.53,1.41,9.1,2.65,13.72,3.73c11.81,2.77,11.42-9.18,9.79-17.75
				c-1.1-5.78-0.95-11.69-2.38-17.46c-0.89-3.62-0.64-6.98-5.01-7.88c-6.29-1.3-12.96,5.9-19.02,1.96
				c-4.49-2.92-5.19-8.87-2.77-13.29c1.87-3.4,4.92-5.95,7.67-8.68c14.72-14.58,23.29-36.14,23.99-56.6
				c0.67-19.43-2.53-41.95-16.13-56.87c-8.37-9.19-19.9-14.68-31.77-17.25c-15.99-3.46-33.86-2.04-48.27,6.12
				c-34.29,19.41-41.58,65.36-27.53,99.54c6.16,14.97,14.87,29.79,26.67,40.93c6.05,5.72,12.3,11.23,18.73,16.52
				c9.62,7.89,19.02,13.67,30.39,18.73C138.69,263.11,146.01,265.87,153.47,268.18z"/>
			<g>
				
					<ellipse transform="matrix(0.1006 -0.9949 0.9949 0.1006 -17.0981 240.4504)" class="st38" cx="124.45" cy="129.68" rx="33.96" ry="40.33"/>
				<path class="st1" d="M113.35,141c0,0,7.38,3.13,12.81-5.44c0,0,2.21,10.02,11.33,10.74"/>
			</g>
			<path class="st22" d="M194.84,268.18c-4.53,1.41-9.1,2.65-13.72,3.73c-7.22,1.69-11.29-3.67-11.83-10.43
				c-0.46-5.76-0.92-11.57-0.11-17.28c0.87-6.12,3.4-15.56,10.87-15.53c5.8,0.02,12.08,5.75,17.68,2.11
				c4.49-2.92,5.19-8.87,2.77-13.29c-1.87-3.4-4.92-5.95-7.67-8.68c-14.72-14.58-23.29-36.14-23.99-56.6
				c-0.67-19.43,2.53-41.95,16.13-56.87c8.37-9.19,19.9-14.68,31.77-17.25c15.99-3.46,33.86-2.04,48.27,6.12
				c34.29,19.41,41.58,65.36,27.53,99.54c-6.16,14.97-14.87,29.79-26.67,40.93c-6.05,5.72-12.3,11.23-18.73,16.52
				c-9.62,7.89-19.02,13.67-30.39,18.73C209.62,263.11,202.3,265.87,194.84,268.18z"/>
			<g>
				
					<ellipse transform="matrix(0.9949 -0.1006 0.1006 0.9949 -11.9107 23.1792)" class="st38" cx="223.86" cy="129.68" rx="40.33" ry="33.96"/>
				<path class="st1" d="M234.34,140.34c0,0-7.65,2.42-12.24-6.62c0,0-3.15,9.77-12.29,9.63"/>
			</g>
		</g>
		<path class="st22" d="M152.93,169.37c0,0-11.58,11.65-7.32,17.79c4.26,6.14,16.15-4.31,16.15-4.31"/>
		<path class="st22" d="M196.78,169.37c0,0,11.58,11.65,7.32,17.79c-4.26,6.14-16.15-4.31-16.15-4.31"/>
	</g>
</g>
<path d="M145.37,129.86c-0.06,1.56-0.82,4.27-4.93,3.81c-4.12-0.47-4.34-4.37-2.29-6.5C140.19,125.04,145.54,125.58,145.37,129.86z"
	/>
<path d="M117.07,129.3c-0.36,0.26-0.77,0.46-1.21,0.57c-2.04,0.5-4.38,0.08-4.84-2.35c-0.34-1.81,0.31-3.98,2.01-4.89
	c0.89-0.48,2.03-0.67,3.02-0.49c1.36,0.24,2.45,1.49,2.72,2.82C119.08,126.53,118.38,128.34,117.07,129.3z"/>
<path d="M238.44,124.46c0.34,1.52,0.3,4.34-3.8,4.94c-4.1,0.6-5.31-3.12-3.87-5.7C232.2,121.13,237.51,120.28,238.44,124.46z"/>
<path d="M208.69,131.15c-0.28,0.35-0.62,0.64-1.03,0.86c-1.85,1.01-4.21,1.2-5.28-1.04c-0.79-1.66-0.71-3.93,0.69-5.25
	c0.74-0.69,1.79-1.17,2.8-1.25c1.38-0.12,2.75,0.81,3.35,2.03C209.92,127.96,209.71,129.89,208.69,131.15z"/>
<path class="st22" d="M283.64,150.62c6.83-1.42,20.26-5.53,24.04,3.11c3.74,8.54-15.23,17.42-21.12,18.8"/>
<path class="st22" d="M64.97,146.2c-6.83-1.42-20.26-5.53-24.04,3.11c-2.92,6.66,9.93,13.86,14.71,15.64"/>
<path class="st45" d="M156.71,257.2c-2.21-6.9-11.3-10.55-17.67-7.1c4.62-1.04,8-5.63,8.2-10.37s-2.44-9.33-6.29-12.09
	c4.77,1.31,10.23-0.33,13.49-4.05c3.26-3.72,4.16-9.35,2.23-13.91c2.72,2.86,6.94,4.22,10.81,3.46c3.88-0.75,7.28-3.59,8.73-7.26
	c-0.99,2.45-0.35,5.47,1.54,7.31c1.89,1.84,4.93,2.4,7.35,1.35"/>
</svg>
