<?xml version="1.0" encoding="utf-8"?>
<!-- Generator: Adobe Illustrator 26.0.3, SVG Export Plug-In . SVG Version: 6.00 Build 0)  -->
<svg version="1.1" id="레이어_1" xmlns="http://www.w3.org/2000/svg" xmlns:xlink="http://www.w3.org/1999/xlink" x="0px"
	 y="0px" viewBox="0 0 348.66 348.66" style="enable-background:new 0 0 348.66 348.66;" xml:space="preserve">
<style type="text/css">
	.st0{fill:#5E7083;stroke:#000000;stroke-width:2;stroke-linecap:round;stroke-linejoin:round;stroke-miterlimit:10;}
	.st1{fill:none;stroke:#000000;stroke-width:2;stroke-linecap:round;stroke-linejoin:round;stroke-miterlimit:10;}
	.st2{fill:#FFFFFF;}
	.st3{fill:#5E7083;}
	.st4{fill:#FDE87B;stroke:#000000;stroke-width:2;stroke-linecap:round;stroke-linejoin:round;stroke-miterlimit:10;}
	.st5{fill:#E22326;}
	.st6{fill:#62BB46;}
	.st7{fill:none;stroke:#000000;stroke-width:2;stroke-miterlimit:10;}
	.st8{fill:#A97C50;stroke:#000000;stroke-width:2;stroke-linecap:round;stroke-linejoin:round;stroke-miterlimit:10;}
	.st9{fill:#694721;stroke:#000000;stroke-width:2;stroke-linecap:round;stroke-linejoin:round;stroke-miterlimit:10;}
	.st10{fill:url(#SVGID_1_);}
	.st11{fill:none;stroke:#000000;stroke-width:2;stroke-linecap:round;stroke-miterlimit:10;}
	.st12{fill:#E86B58;}
	.st13{fill:#94CAFF;stroke:#000000;stroke-width:2;stroke-linecap:round;stroke-linejoin:round;stroke-miterlimit:10;}
	.st14{fill:#94CAFF;}
	.st15{fill:#F2C3C6;}
	.st16{fill:#F2C3C6;stroke:#000000;stroke-width:2;stroke-linecap:round;stroke-linejoin:round;stroke-miterlimit:10;}
	.st17{fill:#E96C5E;stroke:#000000;stroke-width:2;stroke-linecap:round;stroke-linejoin:round;stroke-miterlimit:10;}
	.st18{fill:#F7E575;stroke:#000000;stroke-width:2;stroke-linecap:round;stroke-linejoin:round;stroke-miterlimit:10;}
	.st19{fill:#92C5D0;stroke:#000000;stroke-width:2;stroke-linecap:round;stroke-linejoin:round;stroke-miterlimit:10;}
	.st20{fill:none;}
	.st21{fill:#EFA5AC;}
	.st22{fill:#FFFFFF;stroke:#000000;stroke-width:2;stroke-linecap:round;stroke-linejoin:round;stroke-miterlimit:10;}
	.st23{fill:#C8B4A5;}
	.st24{fill:#C8B4A5;stroke:#000000;stroke-width:2;stroke-linecap:round;stroke-linejoin:round;stroke-miterlimit:10;}
	.st25{fill:none;stroke:#E97871;stroke-width:2;stroke-linecap:round;stroke-linejoin:round;stroke-miterlimit:10;}
	.st26{fill:#F7C711;}
	.st27{fill:none;stroke:#EB8023;stroke-width:2;stroke-linecap:round;stroke-linejoin:round;stroke-miterlimit:10;}
	.st28{fill:#2E3980;stroke:#000000;stroke-width:2;stroke-linecap:round;stroke-linejoin:round;stroke-miterlimit:10;}
	.st29{fill:#CCABFF;stroke:#000000;stroke-width:2;stroke-linecap:round;stroke-linejoin:round;stroke-miterlimit:10;}
	.st30{fill:#2960A8;stroke:#000000;stroke-width:2;stroke-linecap:round;stroke-linejoin:round;stroke-miterlimit:10;}
	.st31{fill:#7D95CA;stroke:#000000;stroke-width:2;stroke-linecap:round;stroke-linejoin:round;stroke-miterlimit:10;}
	.st32{fill:#F7C711;stroke:#000000;stroke-width:2;stroke-linecap:round;stroke-linejoin:round;stroke-miterlimit:10;}
	.st33{fill:#E8E8E8;}
	.st34{fill:#A1BB7C;stroke:#000000;stroke-width:2;stroke-linecap:round;stroke-linejoin:round;stroke-miterlimit:10;}
	.st35{fill:#CDB285;stroke:#000000;stroke-width:1.7482;stroke-linecap:round;stroke-linejoin:round;stroke-miterlimit:10;}
	.st36{fill:#665439;stroke:#000000;stroke-width:2;stroke-linecap:round;stroke-linejoin:round;stroke-miterlimit:10;}
	.st37{fill:#546631;stroke:#000000;stroke-width:2;stroke-linecap:round;stroke-linejoin:round;stroke-miterlimit:10;}
	.st38{fill:#E1F4FD;}
	.st39{fill:#EADBB6;stroke:#000000;stroke-width:2;stroke-linecap:round;stroke-linejoin:round;stroke-miterlimit:10;}
	.st40{fill:none;stroke:#000000;stroke-width:1.7482;stroke-linecap:round;stroke-linejoin:round;stroke-miterlimit:10;}
	.st41{fill:#002DAA;stroke:#000000;stroke-width:2;stroke-linecap:round;stroke-linejoin:round;stroke-miterlimit:10;}
	.st42{fill:#FFDA75;stroke:#000000;stroke-width:2;stroke-linecap:round;stroke-linejoin:round;stroke-miterlimit:10;}
	.st43{fill:#FFA9D3;stroke:#000000;stroke-width:2;stroke-linecap:round;stroke-linejoin:round;stroke-miterlimit:10;}
	.st44{fill:none;stroke:#C7B58B;stroke-width:2;stroke-linecap:round;stroke-linejoin:round;stroke-miterlimit:10;}
	.st45{fill:#FCE26B;stroke:#000000;stroke-width:2;stroke-linecap:round;stroke-linejoin:round;stroke-miterlimit:10;}
</style>
<g>
	<path class="st26" d="M126.92,132.26c0,0-27.84,5.85-33.65,39.62c0,0-34.72,16.62-27.42,59.11
		c8.72,50.77,126.66,51.54,142.06,50.64c15.4-0.9,80.91-4.76,75.65-48.87c-2.29-18.4-14.02-27.35-14.02-27.35
		s4.82-31.63-21.81-45.65L126.92,132.26z"/>
	<g>
		<path class="st27" d="M64.96,217.49c2.89,11.29,12.21,19.8,22.04,26.08c23.74,15.16,52.41,21.1,80.57,21.8
			c29.08,0.72,58.27-3.87,85.73-13.48c6.32-2.21,12.65-4.74,17.93-8.86c5.28-4.12,9.47-10.05,10.13-16.72"/>
		<path class="st27" d="M82.06,181.18c0.25,7.4,4.49,14.1,9.5,19.55c12.34,13.42,29.75,21.33,47.56,25.26
			c17.8,3.93,36.19,4.2,54.42,4.46c1.28,0.02,2.6,0.03,3.79-0.44c1.1-0.43,1.99-1.23,2.94-1.93c5.27-3.87,12.23-4.58,18.76-4.19
			c6.53,0.39,13.02,1.75,19.55,1.46c12.68-0.56,24.87-7.75,31.5-18.57"/>
		<path class="st27" d="M97.04,161.01c4.24,10.53,15.77,15.9,26.46,19.7c9.43,3.36,19.02,6.28,28.64,9.07
			c16.32,4.73,33.13,9.13,50.09,7.97c10.02-0.69,19.81-3.3,29.44-6.15c11.89-3.52,24.74-8.27,30.82-19.08"/>
		<path class="st27" d="M234.9,178.16c6.7,7.81,9.99,18.44,8.88,28.66c-0.11,1.02-0.26,2.07-0.03,3.07
			c0.15,0.65,0.46,1.25,0.76,1.85c4.08,8.25,6.04,17.43,6.62,26.62c0.45,7.09,0.08,14.3-1.93,21.11
			c-2.01,6.81-5.75,13.22-11.25,17.72"/>
		<path class="st27" d="M219.38,191.76c0.31,6.85-0.59,13.75-2.66,20.29c-0.5,1.57-1.06,3.12-1.58,4.69
			c-0.91,2.76-1.67,5.57-2.3,8.41c-2.25,10.2-2.77,20.7-3.05,31.14c-0.21,7.99-0.29,15.99-0.23,23.99c0,0.23-0.01,0.49-0.2,0.62
			c-0.18,0.13-0.52-0.11-0.37-0.28"/>
		<path class="st27" d="M151.99,278.9c-2.37-10.79-1.4-22.29,2.74-32.53c0.28,0.42,0.1,1.06-0.34,1.29"/>
		<path class="st27" d="M114.11,162.4c-5.98,4.31-10.5,10.6-12.67,17.64c-0.15,0.5-0.3,1.01-0.61,1.42
			c-0.4,0.54-1.01,0.85-1.59,1.19c-4.59,2.63-7.89,7.07-10.39,11.73c-5.39,10.06-7.63,21.66-7.28,33.07
			c0.34,11.41,3.19,22.66,7.45,33.25c-0.08-0.44-0.15-0.88-0.23-1.32"/>
		<path class="st27" d="M142.46,173.66c-6.38,4.93-9.24,13.09-14.34,19.33c-2.11,2.59-4.62,4.85-6.5,7.61
			c-1.77,2.6-2.94,5.55-3.96,8.53c-6.81,19.85-7.51,41.76-1.98,62.01"/>
	</g>
	<path class="st1" d="M126.89,132.26c0,0-27.84,5.85-33.65,39.62c0,0-34.72,16.62-27.42,59.11c8.72,50.77,126.66,51.54,142.06,50.64
		s80.91-4.76,75.65-48.87c-2.29-18.4-14.02-27.35-14.02-27.35s4.82-31.63-21.81-45.65L126.89,132.26z"/>
	<path class="st28" d="M165.07,82.74c0,0,0.79-14.25,15.96-15.77c17.66-1.77,18.52,18.42,18.52,18.42"/>
	<path class="st28" d="M162.53,101.91c0,0-20.25-8.16-18.6-15.49c1.65-7.33,24.48-12.57,43.84-9.32
		c19.35,3.25,32.57,11.12,29.6,16.5C214.4,98.97,184.28,107.5,162.53,101.91z"/>
	<g>
		<path class="st29" d="M122.46,167.89c-3.9,5.2-8.72,9.87-14.61,12.63c-2.88,1.35-6.15,2.23-9.23,1.44
			c-3.08-0.79-5.78-3.66-5.49-6.82c0.19-2.12,1.61-3.92,3.01-5.52c4.2-4.82,8.87-9.3,12.14-14.79"/>
		<line class="st1" x1="97.85" y1="177.34" x2="95.18" y2="179.64"/>
		<line class="st1" x1="95.18" y1="174.76" x2="93.57" y2="175.78"/>
		<line class="st1" x1="100.98" y1="179.64" x2="99.12" y2="182.07"/>
	</g>
	<path class="st29" d="M232.37,117.98c-12.78-24.97-33.54-35.67-61.71-34.81c-42.43,1.29-69.5,35.29-68.78,117.84
		c0,0-0.69,58.92,62.58,58.58c67.12-0.37,87.93-31.84,81.1-92.3C243.27,146.95,238.84,130.63,232.37,117.98"/>
	<g>
		<g>
			<path class="st29" d="M125.11,237.5c0,0,2.72-8.7-2.84-18.2c-3.95-6.74-12.43-6.56-15.82-4.72c-7.92,4.29-9.46,12.4-8.26,21.1
				C102.24,251.22,122.37,249.75,125.11,237.5z"/>
		</g>
		<path class="st1" d="M110.94,213.61c0,0-1.54,2.16-1.09,5.3"/>
		<path class="st1" d="M104.56,216.2c0,0-1.16,2.05-0.36,4.16"/>
		<path class="st1" d="M116.15,214.69c0,0-0.9,2.09-0.32,4.44"/>
	</g>
	<g>
		<g>
			<path class="st29" d="M180.81,246.73c0,0-2.33-10.05,4.74-20.3c5.02-7.27,14.58-6.35,18.25-4c8.58,5.5,9.63,14.79,7.55,24.51
				C205.46,264.14,182.88,260.79,180.81,246.73z"/>
		</g>
		<path class="st1" d="M198.81,220.97c0,0,1.56,2.57,0.79,6.07"/>
		<path class="st1" d="M205.8,224.42c0,0,1.14,2.41,0.06,4.73"/>
		<path class="st1" d="M192.85,221.75c0,0,0.84,2.44-0.02,5.04"/>
	</g>
	<g>
		<path class="st22" d="M98.52,161.93c0,0,26.57-7.04,39.48,6.84c0,0,21.84-12.03,39.65-4.75l4.37,32.2c0,0-29.55-0.98-39.17,6
			l-3.95,0.23c0,0-9.45-11.33-28.04-7.45L98.52,161.93z"/>
		<path class="st30" d="M99.03,165.58c0,0,26.57-7.04,39.48,6.84c0,0,21.84-12.03,39.65-4.75l4.37,32.2c0,0-29.55-0.98-39.17,6
			l-3.95,0.23c0,0-9.45-11.33-28.04-7.45L99.03,165.58z"/>
	</g>
	<line class="st31" x1="138.57" y1="172.67" x2="141.97" y2="198.72"/>
	<line class="st31" x1="134.28" y1="172.8" x2="138.5" y2="204.9"/>
	<path class="st32" d="M251.3,209.01c0,0-26.07,6.18-24.3,42.55"/>
	<g>
		<path class="st29" d="M205.2,172.96c-3.9,5.2-8.72,9.87-14.61,12.63c-2.88,1.35-6.15,2.23-9.23,1.44
			c-3.08-0.79-5.78-3.66-5.49-6.82c0.19-2.12,1.61-3.92,3.01-5.52c4.2-4.82,8.87-9.3,12.14-14.79"/>
		<line class="st1" x1="180.59" y1="182.41" x2="177.92" y2="184.71"/>
		<line class="st1" x1="177.92" y1="179.83" x2="176.3" y2="180.84"/>
		<line class="st1" x1="183.72" y1="184.71" x2="181.85" y2="187.13"/>
	</g>
</g>
<g>
	<path id="XMLID_313_" class="st2" d="M150.84,123.07c1.19-0.53,3.51-0.57,5.51-0.57c3.47-0.01,8.56,0.57,9.29,6
		c0.93,6.91-7.32,7.7-12.11,7C146.36,134.44,144.3,125.96,150.84,123.07"/>
	<path id="XMLID_312_" class="st1" d="M150.84,123.07c1.19-0.53,3.51-0.57,5.51-0.57c3.47-0.01,8.56,0.57,9.29,6
		c0.93,6.91-7.32,7.7-12.11,7C146.36,134.44,144.3,125.96,150.84,123.07z"/>
	<path id="XMLID_311_" d="M158.62,125.11c1.65-0.51,2.16-2.66,0.93-3.88c-0.4-0.4-0.86-0.74-1.39-0.9
		c-1.72-0.51-3.73-0.72-4.77,0.66c-1.04,1.38-0.61,3.11,0.07,3.63c0.68,0.52,3.26,1.05,5.1,0.5
		C158.58,125.12,158.6,125.11,158.62,125.11"/>
	<path id="XMLID_310_" d="M150.3,116.8c0.28,0.85,1.19,1.31,2.03,1.03c0.85-0.28,1.31-1.19,1.03-2.03
		c-0.27-0.85-1.19-1.31-2.03-1.03C150.48,115.05,150.02,115.96,150.3,116.8"/>
	<path id="XMLID_309_" d="M161.92,117.72c0.28,0.85,1.19,1.31,2.03,1.03c0.85-0.28,1.31-1.19,1.03-2.03
		c-0.28-0.85-1.19-1.31-2.03-1.03C162.11,115.96,161.64,116.87,161.92,117.72"/>
</g>
</svg>
