<svg width="48" height="48" viewBox="0 0 48 48" fill="none" xmlns="http://www.w3.org/2000/svg">
<mask id="mask0_13_2389" style="mask-type:luminance" maskUnits="userSpaceOnUse" x="2" y="2" width="44" height="44">
<path d="M36.686 15.171C37.9613 16.9977 38.8242 19.0798 39.215 21.273H44V26.727H39.215C38.8242 28.9202 37.9613 31.0023 36.686 32.829L40.071 36.214L36.214 40.071L32.829 36.686C31.0023 37.9613 28.9202 38.8242 26.727 39.215V44H21.273V39.215C19.0798 38.8242 16.9977 37.9613 15.171 36.686L11.786 40.071L7.929 36.214L11.314 32.829C10.0387 31.0023 9.17581 28.9202 8.785 26.727H4V21.273H8.785C9.17581 19.0798 10.0387 16.9977 11.314 15.171L7.929 11.786L11.786 7.929L15.171 11.314C16.9977 10.0387 19.0798 9.17581 21.273 8.785V4H26.727V8.785C28.9202 9.17581 31.0023 10.0387 32.829 11.314L36.214 7.929L40.071 11.786L36.686 15.171Z" fill="white" stroke="white" stroke-width="4" stroke-linejoin="round"/>
<path d="M24 29C25.3261 29 26.5979 28.4732 27.5355 27.5355C28.4732 26.5979 29 25.3261 29 24C29 22.6739 28.4732 21.4021 27.5355 20.4645C26.5979 19.5268 25.3261 19 24 19C22.6739 19 21.4021 19.5268 20.4645 20.4645C19.5268 21.4021 19 22.6739 19 24C19 25.3261 19.5268 26.5979 20.4645 27.5355C21.4021 28.4732 22.6739 29 24 29Z" fill="black" stroke="black" stroke-width="4" stroke-linejoin="round"/>
</mask>
<g mask="url(#mask0_13_2389)">
<path d="M0 0H48V48H0V0Z" fill="#333333"/>
</g>
</svg>
