<?xml version="1.0" encoding="utf-8"?>
<!-- Generator: Adobe Illustrator 26.0.3, SVG Export Plug-In . SVG Version: 6.00 Build 0)  -->
<svg version="1.1" id="레이어_1" xmlns="http://www.w3.org/2000/svg" xmlns:xlink="http://www.w3.org/1999/xlink" x="0px"
	 y="0px" viewBox="0 0 348.66 348.66" style="enable-background:new 0 0 348.66 348.66;" xml:space="preserve">
<style type="text/css">
	.st0{fill:#5E7083;stroke:#000000;stroke-width:2;stroke-linecap:round;stroke-linejoin:round;stroke-miterlimit:10;}
	.st1{fill:none;stroke:#000000;stroke-width:2;stroke-linecap:round;stroke-linejoin:round;stroke-miterlimit:10;}
	.st2{fill:#FFFFFF;}
	.st3{fill:#5E7083;}
	.st4{fill:#FDE87B;stroke:#000000;stroke-width:2;stroke-linecap:round;stroke-linejoin:round;stroke-miterlimit:10;}
	.st5{fill:#E22326;}
	.st6{fill:#62BB46;}
	.st7{fill:none;stroke:#000000;stroke-width:2;stroke-miterlimit:10;}
	.st8{fill:#A97C50;stroke:#000000;stroke-width:2;stroke-linecap:round;stroke-linejoin:round;stroke-miterlimit:10;}
	.st9{fill:#694721;stroke:#000000;stroke-width:2;stroke-linecap:round;stroke-linejoin:round;stroke-miterlimit:10;}
	.st10{fill:url(#SVGID_1_);}
	.st11{fill:none;stroke:#000000;stroke-width:2;stroke-linecap:round;stroke-miterlimit:10;}
	.st12{fill:#E86B58;}
	.st13{fill:#94CAFF;stroke:#000000;stroke-width:2;stroke-linecap:round;stroke-linejoin:round;stroke-miterlimit:10;}
	.st14{fill:#94CAFF;}
	.st15{fill:#F2C3C6;}
	.st16{fill:#F2C3C6;stroke:#000000;stroke-width:2;stroke-linecap:round;stroke-linejoin:round;stroke-miterlimit:10;}
	.st17{fill:#E96C5E;stroke:#000000;stroke-width:2;stroke-linecap:round;stroke-linejoin:round;stroke-miterlimit:10;}
	.st18{fill:#F7E575;stroke:#000000;stroke-width:2;stroke-linecap:round;stroke-linejoin:round;stroke-miterlimit:10;}
	.st19{fill:#92C5D0;stroke:#000000;stroke-width:2;stroke-linecap:round;stroke-linejoin:round;stroke-miterlimit:10;}
	.st20{fill:none;}
	.st21{fill:#EFA5AC;}
	.st22{fill:#FFFFFF;stroke:#000000;stroke-width:2;stroke-linecap:round;stroke-linejoin:round;stroke-miterlimit:10;}
	.st23{fill:#C8B4A5;}
	.st24{fill:#C8B4A5;stroke:#000000;stroke-width:2;stroke-linecap:round;stroke-linejoin:round;stroke-miterlimit:10;}
	.st25{fill:none;stroke:#E97871;stroke-width:2;stroke-linecap:round;stroke-linejoin:round;stroke-miterlimit:10;}
	.st26{fill:#F7C711;}
	.st27{fill:none;stroke:#EB8023;stroke-width:2;stroke-linecap:round;stroke-linejoin:round;stroke-miterlimit:10;}
	.st28{fill:#2E3980;stroke:#000000;stroke-width:2;stroke-linecap:round;stroke-linejoin:round;stroke-miterlimit:10;}
	.st29{fill:#CCABFF;stroke:#000000;stroke-width:2;stroke-linecap:round;stroke-linejoin:round;stroke-miterlimit:10;}
	.st30{fill:#2960A8;stroke:#000000;stroke-width:2;stroke-linecap:round;stroke-linejoin:round;stroke-miterlimit:10;}
	.st31{fill:#7D95CA;stroke:#000000;stroke-width:2;stroke-linecap:round;stroke-linejoin:round;stroke-miterlimit:10;}
	.st32{fill:#F7C711;stroke:#000000;stroke-width:2;stroke-linecap:round;stroke-linejoin:round;stroke-miterlimit:10;}
	.st33{fill:#E8E8E8;}
	.st34{fill:#A1BB7C;stroke:#000000;stroke-width:2;stroke-linecap:round;stroke-linejoin:round;stroke-miterlimit:10;}
	.st35{fill:#CDB285;stroke:#000000;stroke-width:1.7482;stroke-linecap:round;stroke-linejoin:round;stroke-miterlimit:10;}
	.st36{fill:#665439;stroke:#000000;stroke-width:2;stroke-linecap:round;stroke-linejoin:round;stroke-miterlimit:10;}
	.st37{fill:#546631;stroke:#000000;stroke-width:2;stroke-linecap:round;stroke-linejoin:round;stroke-miterlimit:10;}
	.st38{fill:#E1F4FD;}
	.st39{fill:#EADBB6;stroke:#000000;stroke-width:2;stroke-linecap:round;stroke-linejoin:round;stroke-miterlimit:10;}
	.st40{fill:none;stroke:#000000;stroke-width:1.7482;stroke-linecap:round;stroke-linejoin:round;stroke-miterlimit:10;}
	.st41{fill:#002DAA;stroke:#000000;stroke-width:2;stroke-linecap:round;stroke-linejoin:round;stroke-miterlimit:10;}
	.st42{fill:#FFDA75;stroke:#000000;stroke-width:2;stroke-linecap:round;stroke-linejoin:round;stroke-miterlimit:10;}
	.st43{fill:#FFA9D3;stroke:#000000;stroke-width:2;stroke-linecap:round;stroke-linejoin:round;stroke-miterlimit:10;}
	.st44{fill:none;stroke:#C7B58B;stroke-width:2;stroke-linecap:round;stroke-linejoin:round;stroke-miterlimit:10;}
	.st45{fill:#FCE26B;stroke:#000000;stroke-width:2;stroke-linecap:round;stroke-linejoin:round;stroke-miterlimit:10;}
</style>
<g>
	<path class="st22" d="M176.77,193.27c0,0,53.8,23.2,48.31,54.62c-4.36,24.98-45.85,19.16-62.67,15.72
		c-4.16-0.85-7.28-4.3-7.68-8.53l-3.73-39.16"/>
	<path class="st22" d="M176.99,256.93c0,0-7.66,0.82-6.16,6.58c1.36,5.21,17.75,5.96,33.38,2.08"/>
	<path class="st2" d="M116.53,118.85c0,0-6.66,32.62,0.83,68.05c6.44,30.45,12.55,43.43,21.59,40.73
		c22.01-6.58,48.28-26.44,65.75-51.69s36.41-69.38,28.16-75.97c-9.9-7.91-46.93,18.71-46.93,18.71s-11.78-1.74-28.48-4.2
		c0,0-14.46-32.78-23.23-33.82C125.45,79.6,116.53,118.85,116.53,118.85z"/>
	<path class="st23" d="M157.58,218.51c0,0-4.55-9.02-17.07-13.5c-9.24-3.31-18.01-0.43-18.01-0.43s4.14,19.49,10.88,22.63
		S157.58,218.51,157.58,218.51z"/>
	<path class="st22" d="M121.09,201.8c-1.3-4.37-2.54-9.32-3.72-14.9c-7.5-35.43-0.83-68.05-0.83-68.05s8.92-39.25,17.69-38.2
		c8.77,1.04,23.23,33.82,23.23,33.82c16.7,2.47,28.48,4.2,28.48,4.2s37.03-26.62,46.93-18.71c8.25,6.59-10.69,50.72-28.16,75.97
		c-12.31,17.79-27.87,32.52-43.69,41.99c-4.77-4.62-11.82-9.8-21.77-13.37C132.74,202.23,126.39,201.66,121.09,201.8z"/>
	<path class="st24" d="M139.25,204.56c9.94,3.57,17,8.75,21.77,13.37c-6.64,3.97-13.32,7.04-19.82,8.98
		c-7.38,2.21-14.31-5.59-20.11-25.12C126.39,201.66,132.74,202.23,139.25,204.56z"/>
	<path d="M136.08,171.97c2.14,1.22,1.61,4.68-0.81,5.14c-0.47,0.09-0.98,0.06-1.48-0.15c-2.36-0.98-1.76-5.68,1.24-5.33
		C135.41,171.67,135.76,171.78,136.08,171.97z"/>
	<path d="M163.95,179.04c2.14,1.22,1.61,4.69-0.81,5.14c-0.47,0.09-0.98,0.06-1.48-0.15c-2.36-0.98-1.76-5.68,1.24-5.33
		C163.28,178.75,163.63,178.86,163.95,179.04z"/>
	<line class="st25" x1="123.21" y1="180.42" x2="118.72" y2="183.75"/>
	<line class="st25" x1="129.94" y1="181.77" x2="125.45" y2="185.1"/>
	<line class="st25" x1="136.67" y1="183.12" x2="132.18" y2="186.45"/>
	<path class="st22" d="M230.2,204.66c-0.72-10.47-4.61-20.96-10.74-29.47c-4.11-5.71-9.58-10.17-15.71-13.56
		c-5.78-3.19-12.2-6.27-18.44-8.43c-13.13-4.54-28.5-4.68-41.12,1.55c-8.64,4.27-14.88,13.84-13.18,23.68
		c1.56,9.04,9.63,15.79,18.23,17.91c8.03,1.98,16.41,1.71,24.67,1.98c11.74,0.38,21,4.06,29.84,11.38
		c4.45,3.69,8.32,7.99,11.86,12.55c0.75,0.97,8.81,11.46,8.7,11.6C229.43,226.88,230.78,213.04,230.2,204.66z"/>
	<path class="st23" d="M169.01,188.93c1.44,1.35,2.88,2.7,4.32,4.05c2.04,1.91,4.1,3.83,6.09,5.82c-2.78,0.31-5.4-0.11-8.17-0.18
		c-2.95-0.08-5.9-0.18-8.85-0.4c-5.79-0.44-11.59-1.36-17.01-3.52c-3.44-1.37-6.83-3.15-9.29-5.93c-3.09-3.48-4.37-8.08-5.18-12.56
		c-1.73-9.62,6.05-17.8,14-21.78c5.78-2.89,11.63-4.39,18.08-4.55c6.31-0.16,12.66,0.39,18.72,2.21c-2.95,2.19-6.05,4.26-8.61,6.92
		c2.67,2.9,4.82,6.58,7.13,9.86l-10.59,4.94l8.77,9.73L169.01,188.93z"/>
	<polyline class="st1" points="132.33,115.05 139.2,107.51 129.74,103.35 136.34,96.2 	"/>
	<polyline class="st1" points="219.74,113.75 210.1,117.73 216.26,124.98 206.1,128.03 	"/>
</g>
</svg>
