<svg width="436" height="71" viewBox="0 0 436 71" fill="none" xmlns="http://www.w3.org/2000/svg">
<path d="M2.64 48.696C3.28533 49.224 4.01867 49.708 4.84 50.148C5.69067 50.5587 6.54133 50.9107 7.392 51.204C8.272 51.4973 9.13733 51.732 9.988 51.908C10.8387 52.0547 11.6307 52.128 12.364 52.128C14.1533 52.128 15.5467 51.7613 16.544 51.028C17.5707 50.2653 18.084 49.136 18.084 47.64C18.084 46.496 17.8053 45.528 17.248 44.736C16.72 43.944 15.7227 43.1813 14.256 42.448C13.4053 42.008 12.5987 41.612 11.836 41.26C11.0733 40.908 10.34 40.5413 9.636 40.16C8.932 39.7787 8.24267 39.3827 7.568 38.972C6.92267 38.532 6.27733 38.048 5.632 37.52C4.488 36.4933 3.54933 35.3493 2.816 34.088C2.08267 32.7973 1.716 31.228 1.716 29.38C1.716 28.1187 1.96533 26.96 2.464 25.904C2.992 24.8187 3.74 23.8947 4.708 23.132C5.676 22.3693 6.84933 21.7827 8.228 21.372C9.636 20.932 11.22 20.712 12.98 20.712C16.7933 20.712 20.1813 21.3573 23.144 22.648V28.06C23.144 28.4707 22.9973 28.7347 22.704 28.852C22.4107 28.94 22.1027 28.852 21.78 28.588C19.3747 26.564 16.7347 25.552 13.86 25.552C12.276 25.552 11.0587 25.8893 10.208 26.564C9.38667 27.2387 8.976 28.1773 8.976 29.38C8.976 30.2307 9.12267 30.964 9.416 31.58C9.70933 32.196 10.1493 32.7387 10.736 33.208C11.8507 34.1173 13.0387 34.9093 14.3 35.584C15.5907 36.2587 16.852 36.8893 18.084 37.476C19.228 38.004 20.24 38.576 21.12 39.192C22.0293 39.808 22.792 40.512 23.408 41.304C24.0533 42.096 24.5373 43.0053 24.86 44.032C25.1827 45.0293 25.344 46.2027 25.344 47.552C25.344 49.224 25.0067 50.6613 24.332 51.864C23.6867 53.0373 22.7773 54.02 21.604 54.812C20.4307 55.5747 19.052 56.132 17.468 56.484C15.9133 56.836 14.2413 57.012 12.452 57.012C11.132 57.012 9.75333 56.8653 8.316 56.572C6.908 56.2787 5.64667 55.912 4.532 55.472C3.41733 55.0027 2.53733 54.4893 1.892 53.932C1.24667 53.3747 1.04133 52.8173 1.276 52.26L2.64 48.696ZM36.9806 23.44C36.9806 24.6427 36.5846 25.64 35.7926 26.432C35.03 27.224 34.0326 27.62 32.8006 27.62C31.5686 27.62 30.5566 27.224 29.7646 26.432C29.002 25.64 28.6206 24.6427 28.6206 23.44C28.6206 22.2373 29.002 21.24 29.7646 20.448C30.5566 19.656 31.5686 19.26 32.8006 19.26C34.0326 19.26 35.03 19.656 35.7926 20.448C36.5846 21.24 36.9806 22.2373 36.9806 23.44ZM36.7166 31.272V56H29.8086V35.628C29.8086 34.924 29.7206 34.352 29.5446 33.912C29.398 33.472 29.1193 33.0173 28.7086 32.548C28.4446 32.2253 28.3713 31.932 28.4886 31.668C28.606 31.404 28.826 31.272 29.1486 31.272H36.7166ZM64.866 39.808C64.866 41.0987 64.6166 42.316 64.118 43.46C63.6193 44.5747 62.8713 45.5573 61.874 46.408C60.906 47.2587 59.7033 47.9333 58.266 48.432C56.858 48.9013 55.23 49.136 53.382 49.136C52.1206 49.136 51.0206 49.0333 50.082 48.828C49.29 49.7667 48.894 50.676 48.894 51.556C48.894 52.2307 49.07 52.744 49.422 53.096C49.8033 53.448 50.4193 53.624 51.27 53.624H56.198C57.782 53.624 59.2486 53.8 60.598 54.152C61.9473 54.504 63.106 55.0173 64.074 55.692C65.0713 56.3667 65.834 57.2027 66.362 58.2C66.9193 59.2267 67.198 60.4147 67.198 61.764C67.198 64.6093 66.054 66.7653 63.766 68.232C61.5073 69.728 58.222 70.476 53.91 70.476C49.4513 70.476 46.078 69.728 43.79 68.232C41.5313 66.736 40.402 64.7267 40.402 62.204C40.402 60.7373 40.7686 59.476 41.502 58.42C42.2646 57.364 43.2473 56.4693 44.45 55.736C43.3646 54.7387 42.822 53.4627 42.822 51.908C42.822 50.9107 43.0566 49.9867 43.526 49.136C44.0246 48.256 44.7433 47.5667 45.682 47.068C44.45 46.188 43.5113 45.132 42.866 43.9C42.2206 42.6387 41.898 41.2747 41.898 39.808C41.898 38.5173 42.1473 37.3 42.646 36.156C43.174 35.012 43.922 34.0147 44.89 33.164C45.858 32.3133 47.046 31.6533 48.454 31.184C49.8913 30.6853 51.534 30.436 53.382 30.436C54.79 30.436 56.066 30.5827 57.21 30.876C58.354 31.14 59.366 31.5213 60.246 32.02C61.0086 31.6973 61.8446 31.448 62.754 31.272C63.6633 31.096 64.4113 31.008 64.998 31.008C65.6726 31.008 66.274 31.0373 66.802 31.096C67.33 31.1253 67.8873 31.2133 68.474 31.36V35.76C68.474 35.9947 68.386 36.1707 68.21 36.288C68.0633 36.4053 67.8286 36.3907 67.506 36.244C67.1246 36.0973 66.7433 35.98 66.362 35.892C65.9806 35.804 65.57 35.76 65.13 35.76C64.9246 35.76 64.7193 35.7747 64.514 35.804C64.338 35.804 64.162 35.8187 63.986 35.848C64.3086 36.4347 64.5286 37.0653 64.646 37.74C64.7926 38.4147 64.866 39.104 64.866 39.808ZM47.31 62.028C47.31 62.644 47.4126 63.1867 47.618 63.656C47.8526 64.1253 48.2193 64.5213 48.718 64.844C49.246 65.196 49.9353 65.46 50.786 65.636C51.6366 65.812 52.678 65.9 53.91 65.9C55.142 65.9 56.1686 65.7973 56.99 65.592C57.8113 65.416 58.4566 65.152 58.926 64.8C59.4246 64.448 59.7766 64.008 59.982 63.48C60.1873 62.9813 60.29 62.424 60.29 61.808C60.29 60.6933 59.9966 59.784 59.41 59.08C58.8233 58.4053 57.6793 58.068 55.978 58.068H51.27C50.8593 58.068 50.4633 58.0533 50.082 58.024C49.7006 57.9947 49.334 57.9507 48.982 57.892C48.366 58.5373 47.926 59.2267 47.662 59.96C47.4273 60.6933 47.31 61.3827 47.31 62.028ZM57.958 39.808C57.958 38.312 57.562 37.1387 56.77 36.288C56.0073 35.4373 54.878 35.012 53.382 35.012C51.886 35.012 50.742 35.4373 49.95 36.288C49.1873 37.1387 48.806 38.312 48.806 39.808C48.806 41.304 49.1873 42.4773 49.95 43.328C50.742 44.1493 51.886 44.56 53.382 44.56C54.878 44.56 56.0073 44.1493 56.77 43.328C57.562 42.4773 57.958 41.304 57.958 39.808ZM71.2917 31.272H78.6397V33.692C79.549 32.812 80.561 32.0493 81.6757 31.404C82.8197 30.7587 84.169 30.436 85.7237 30.436C87.0437 30.436 88.261 30.6267 89.3757 31.008C90.4904 31.36 91.4584 31.888 92.2797 32.592C93.1304 33.296 93.7904 34.176 94.2597 35.232C94.729 36.2587 94.9637 37.4467 94.9637 38.796V56H88.0557V39.412C88.0557 38.004 87.733 36.992 87.0877 36.376C86.4717 35.7307 85.4597 35.408 84.0517 35.408C83.0837 35.408 82.1744 35.5987 81.3237 35.98C80.473 36.3613 79.6517 36.904 78.8597 37.608V56H71.9517V35.716C71.9517 34.9533 71.8637 34.352 71.6877 33.912C71.541 33.472 71.2624 33.0173 70.8517 32.548C70.5584 32.2253 70.4704 31.932 70.5877 31.668C70.7344 31.404 70.969 31.272 71.2917 31.272ZM113.546 48.212V35.628C113.546 34.924 113.458 34.352 113.282 33.912C113.136 33.472 112.857 33.0173 112.446 32.548C112.182 32.2253 112.109 31.932 112.226 31.668C112.344 31.404 112.564 31.272 112.886 31.272H120.454V47.904C120.454 49.1947 120.66 50.1773 121.07 50.852C121.51 51.4973 122.42 51.82 123.798 51.82C124.825 51.82 125.822 51.6 126.79 51.16C127.758 50.72 128.594 50.1187 129.298 49.356V31.272H136.206V56H129.43V53.404C128.697 54.4893 127.67 55.3253 126.35 55.912C125.03 56.4987 123.71 56.792 122.39 56.792C119.633 56.792 117.462 56.044 115.878 54.548C114.324 53.052 113.546 50.94 113.546 48.212ZM148.731 55.12V68.276H141.823V35.628C141.823 34.924 141.735 34.352 141.559 33.912C141.412 33.472 141.134 33.0173 140.723 32.548C140.459 32.2253 140.386 31.932 140.503 31.668C140.65 31.404 140.884 31.272 141.207 31.272H148.599V33.78C149.45 32.6653 150.491 31.8293 151.723 31.272C152.984 30.7147 154.275 30.436 155.595 30.436C157.267 30.436 158.807 30.7587 160.215 31.404C161.623 32.0493 162.826 32.9587 163.823 34.132C164.85 35.3053 165.642 36.6987 166.199 38.312C166.786 39.896 167.079 41.656 167.079 43.592C167.079 45.6747 166.786 47.5373 166.199 49.18C165.612 50.7933 164.776 52.172 163.691 53.316C162.606 54.4307 161.3 55.296 159.775 55.912C158.279 56.4987 156.607 56.792 154.759 56.792C153.527 56.792 152.383 56.616 151.327 56.264C150.3 55.9413 149.435 55.56 148.731 55.12ZM153.659 51.952C158 51.952 160.171 49.1653 160.171 43.592C160.171 42.096 159.995 40.82 159.643 39.764C159.32 38.708 158.88 37.8573 158.323 37.212C157.766 36.5373 157.12 36.0533 156.387 35.76C155.683 35.4373 154.95 35.276 154.187 35.276C153.072 35.276 152.046 35.5547 151.107 36.112C150.168 36.64 149.376 37.3147 148.731 38.136V50.192C149.318 50.632 150.036 51.0427 150.887 51.424C151.767 51.776 152.691 51.952 153.659 51.952ZM193.335 23.396V31.272H199.143V36.112H193.335V49.972C193.335 50.8227 193.555 51.3653 193.995 51.6C194.435 51.8347 194.948 51.952 195.535 51.952C196.122 51.952 196.752 51.8493 197.427 51.644C198.131 51.4093 198.82 51.1307 199.495 50.808L200.287 54.416C200.375 54.7973 200.14 55.1493 199.583 55.472C199.026 55.7653 198.322 56.0293 197.471 56.264C196.796 56.44 196.107 56.572 195.403 56.66C194.728 56.748 193.936 56.792 193.027 56.792C191.091 56.792 189.507 56.3227 188.275 55.384C187.043 54.416 186.427 52.964 186.427 51.028V36.112H182.247V31.272H186.427V23.396H193.335ZM222.003 43.636C222.003 40.996 221.402 38.9427 220.199 37.476C219.026 36.0093 217.427 35.276 215.403 35.276C213.379 35.276 211.78 36.0093 210.607 37.476C209.434 38.9427 208.847 40.996 208.847 43.636C208.847 46.2467 209.434 48.2853 210.607 49.752C211.78 51.2187 213.379 51.952 215.403 51.952C217.427 51.952 219.026 51.2187 220.199 49.752C221.402 48.2853 222.003 46.2467 222.003 43.636ZM228.911 43.636C228.911 45.572 228.574 47.3467 227.899 48.96C227.224 50.544 226.286 51.9227 225.083 53.096C223.88 54.2693 222.443 55.1787 220.771 55.824C219.128 56.4693 217.339 56.792 215.403 56.792C213.467 56.792 211.678 56.4693 210.035 55.824C208.392 55.1787 206.97 54.2693 205.767 53.096C204.564 51.9227 203.626 50.544 202.951 48.96C202.276 47.3467 201.939 45.572 201.939 43.636C201.939 41.7 202.276 39.9253 202.951 38.312C203.626 36.6987 204.564 35.3053 205.767 34.132C206.97 32.9587 208.392 32.0493 210.035 31.404C211.678 30.7587 213.467 30.436 215.403 30.436C217.339 30.436 219.128 30.7587 220.771 31.404C222.443 32.0493 223.88 32.9587 225.083 34.132C226.286 35.3053 227.224 36.6987 227.899 38.312C228.574 39.9253 228.911 41.7 228.911 43.636Z" fill="black"/>
<path d="M253.84 39.52L261.08 25.8H268.12L257.12 45.44V57H250.52V45.48L241.8 29.84C241.427 29.1467 241.053 28.5867 240.68 28.16C240.333 27.7067 239.987 27.3333 239.64 27.04C239.32 26.7467 239.2 26.4667 239.28 26.2C239.387 25.9333 239.587 25.8 239.88 25.8H246.56L253.84 39.52ZM299.822 41.4C299.822 43.8533 299.475 46.0933 298.782 48.12C298.089 50.1467 297.062 51.8933 295.702 53.36C294.342 54.8 292.662 55.92 290.662 56.72C288.689 57.52 286.409 57.92 283.822 57.92C281.235 57.92 278.942 57.52 276.942 56.72C274.969 55.92 273.302 54.8 271.942 53.36C270.582 51.8933 269.555 50.1467 268.862 48.12C268.169 46.0933 267.822 43.8533 267.822 41.4C267.822 38.9467 268.169 36.7067 268.862 34.68C269.555 32.6533 270.582 30.92 271.942 29.48C273.302 28.04 274.969 26.92 276.942 26.12C278.942 25.32 281.235 24.92 283.822 24.92C286.409 24.92 288.689 25.32 290.662 26.12C292.662 26.92 294.342 28.04 295.702 29.48C297.062 30.92 298.089 32.6533 298.782 34.68C299.475 36.7067 299.822 38.9467 299.822 41.4ZM274.302 41.4C274.302 45.2133 275.155 48.1467 276.862 50.2C278.569 52.2267 280.889 53.24 283.822 53.24C286.729 53.24 289.035 52.2267 290.742 50.2C292.449 48.1467 293.302 45.2133 293.302 41.4C293.302 37.5867 292.449 34.6667 290.742 32.64C289.035 30.5867 286.729 29.56 283.822 29.56C280.889 29.56 278.569 30.5867 276.862 32.64C275.155 34.6667 274.302 37.5867 274.302 41.4ZM304.067 29.84C304.067 29.1467 303.987 28.6 303.827 28.2C303.693 27.8 303.44 27.3867 303.067 26.96C302.827 26.6667 302.76 26.4 302.867 26.16C302.973 25.92 303.173 25.8 303.467 25.8H310.587V45.8C310.587 48.0933 311.12 49.8933 312.187 51.2C313.28 52.48 314.987 53.12 317.307 53.12C319.6 53.12 321.293 52.48 322.387 51.2C323.48 49.8933 324.027 48.0933 324.027 45.8V25.8H330.547V46.32C330.547 48.2933 330.213 50.0133 329.547 51.48C328.88 52.92 327.96 54.12 326.787 55.08C325.613 56.04 324.213 56.7467 322.587 57.2C320.987 57.68 319.227 57.92 317.307 57.92C315.387 57.92 313.613 57.68 311.987 57.2C310.387 56.7467 309 56.04 307.827 55.08C306.653 54.12 305.733 52.92 305.067 51.48C304.4 50.0133 304.067 48.2933 304.067 46.32V29.84ZM336.374 57V29.84C336.374 29.1467 336.294 28.6 336.134 28.2C336.001 27.8 335.747 27.3867 335.374 26.96C335.134 26.6667 335.067 26.4 335.174 26.16C335.281 25.92 335.481 25.8 335.774 25.8H342.694L352.214 42.32L355.374 48.16L354.974 41.4V25.8H361.454V57H355.054L345.414 40.04L342.534 34.48L342.894 41.4V57H336.374ZM387.59 52.16V45.48C387.59 44.84 387.51 44.32 387.35 43.92C387.216 43.52 386.963 43.1067 386.59 42.68C386.35 42.3867 386.283 42.1333 386.39 41.92C386.523 41.68 386.736 41.56 387.03 41.56H394.11V53.04C394.11 53.68 393.763 54.3067 393.07 54.92C392.376 55.5067 391.456 56.0267 390.31 56.48C389.19 56.9067 387.91 57.2533 386.47 57.52C385.03 57.7867 383.563 57.92 382.07 57.92C376.63 57.92 372.563 56.5067 369.87 53.68C367.176 50.8267 365.83 46.68 365.83 41.24C365.83 38.8933 366.136 36.72 366.75 34.72C367.39 32.72 368.35 31 369.63 29.56C370.91 28.0933 372.523 26.96 374.47 26.16C376.443 25.3333 378.776 24.92 381.47 24.92C383.443 24.92 385.336 25.1067 387.15 25.48C388.99 25.8533 390.643 26.3867 392.11 27.08V31.92C392.11 32.32 391.976 32.5733 391.71 32.68C391.443 32.7867 391.163 32.7067 390.87 32.44C389.67 31.5867 388.296 30.8933 386.75 30.36C385.23 29.8267 383.63 29.56 381.95 29.56C380.163 29.56 378.656 29.8667 377.43 30.48C376.203 31.0667 375.203 31.88 374.43 32.92C373.683 33.96 373.136 35.2 372.79 36.64C372.47 38.0533 372.31 39.5867 372.31 41.24C372.31 45.08 373.083 48.04 374.63 50.12C376.203 52.2 378.696 53.24 382.11 53.24C383.123 53.24 384.096 53.1467 385.03 52.96C385.963 52.7467 386.816 52.48 387.59 52.16ZM397.817 34.84C398.644 33.8 399.191 32.7333 399.457 31.64C399.751 30.52 399.897 29.24 399.897 27.8V24.64C399.897 24.1333 400.004 23.7867 400.217 23.6C400.431 23.4133 400.764 23.32 401.217 23.32H405.657V26.4C405.657 28.1333 405.377 29.7467 404.817 31.24C404.257 32.7333 403.484 33.9867 402.497 35C401.137 36.44 400.177 36.8933 399.617 36.36L397.817 34.84ZM413.822 50.36C414.409 50.84 415.075 51.28 415.822 51.68C416.595 52.0533 417.369 52.3733 418.142 52.64C418.942 52.9067 419.729 53.12 420.502 53.28C421.275 53.4133 421.995 53.48 422.662 53.48C424.289 53.48 425.555 53.1467 426.462 52.48C427.395 51.7867 427.862 50.76 427.862 49.4C427.862 48.36 427.609 47.48 427.102 46.76C426.622 46.04 425.715 45.3467 424.382 44.68C423.609 44.28 422.875 43.92 422.182 43.6C421.489 43.28 420.822 42.9467 420.182 42.6C419.542 42.2533 418.915 41.8933 418.302 41.52C417.715 41.12 417.129 40.68 416.542 40.2C415.502 39.2667 414.649 38.2267 413.982 37.08C413.315 35.9067 412.982 34.48 412.982 32.8C412.982 31.6533 413.209 30.6 413.662 29.64C414.142 28.6533 414.822 27.8133 415.702 27.12C416.582 26.4267 417.649 25.8933 418.902 25.52C420.182 25.12 421.622 24.92 423.222 24.92C426.689 24.92 429.769 25.5067 432.462 26.68V31.6C432.462 31.9733 432.329 32.2133 432.062 32.32C431.795 32.4 431.515 32.32 431.222 32.08C429.035 30.24 426.635 29.32 424.022 29.32C422.582 29.32 421.475 29.6267 420.702 30.24C419.955 30.8533 419.582 31.7067 419.582 32.8C419.582 33.5733 419.715 34.24 419.982 34.8C420.249 35.36 420.649 35.8533 421.182 36.28C422.195 37.1067 423.275 37.8267 424.422 38.44C425.595 39.0533 426.742 39.6267 427.862 40.16C428.902 40.64 429.822 41.16 430.622 41.72C431.449 42.28 432.142 42.92 432.702 43.64C433.289 44.36 433.729 45.1867 434.022 46.12C434.315 47.0267 434.462 48.0933 434.462 49.32C434.462 50.84 434.155 52.1467 433.542 53.24C432.955 54.3067 432.129 55.2 431.062 55.92C429.995 56.6133 428.742 57.12 427.302 57.44C425.889 57.76 424.369 57.92 422.742 57.92C421.542 57.92 420.289 57.7867 418.982 57.52C417.702 57.2533 416.555 56.92 415.542 56.52C414.529 56.0933 413.729 55.6267 413.142 55.12C412.555 54.6133 412.369 54.1067 412.582 53.6L413.822 50.36Z" fill="url(#paint0_linear_125_1325)"/>
<path d="M300.556 16.76C300.556 15.64 300.903 14.7333 301.596 14.04C302.316 13.32 303.236 12.96 304.356 12.96C305.476 12.96 306.396 13.32 307.116 14.04C307.836 14.7333 308.196 15.64 308.196 16.76C308.196 17.8533 307.836 18.76 307.116 19.48C306.396 20.2267 305.476 20.6 304.356 20.6C303.236 20.6 302.316 20.2267 301.596 19.48C300.903 18.76 300.556 17.8533 300.556 16.76ZM325.556 16.76C325.556 15.64 325.903 14.7333 326.596 14.04C327.316 13.32 328.236 12.96 329.356 12.96C330.476 12.96 331.396 13.32 332.116 14.04C332.836 14.7333 333.196 15.64 333.196 16.76C333.196 17.8533 332.836 18.76 332.116 19.48C331.396 20.2267 330.476 20.6 329.356 20.6C328.236 20.6 327.316 20.2267 326.596 19.48C325.903 18.76 325.556 17.8533 325.556 16.76Z" fill="url(#paint1_linear_125_1325)"/>
<defs>
<linearGradient id="paint0_linear_125_1325" x1="337.5" y1="29" x2="337.5" y2="56" gradientUnits="userSpaceOnUse">
<stop stop-color="#E300CA"/>
<stop offset="1" stop-color="#0046FF"/>
</linearGradient>
<linearGradient id="paint1_linear_125_1325" x1="317" y1="0" x2="317" y2="6" gradientUnits="userSpaceOnUse">
<stop stop-color="#E300CA"/>
<stop offset="1" stop-color="#0046FF"/>
</linearGradient>
</defs>
</svg>
