<?xml version="1.0" encoding="utf-8"?>
<!-- Generator: Adobe Illustrator 26.0.3, SVG Export Plug-In . SVG Version: 6.00 Build 0)  -->
<svg version="1.1" id="레이어_1" xmlns="http://www.w3.org/2000/svg" xmlns:xlink="http://www.w3.org/1999/xlink" x="0px"
	 y="0px" viewBox="0 0 348.66 348.66" style="enable-background:new 0 0 348.66 348.66;" xml:space="preserve">
<style type="text/css">
	.st0{fill:#5E7083;stroke:#000000;stroke-width:2;stroke-linecap:round;stroke-linejoin:round;stroke-miterlimit:10;}
	.st1{fill:none;stroke:#000000;stroke-width:2;stroke-linecap:round;stroke-linejoin:round;stroke-miterlimit:10;}
	.st2{fill:#FFFFFF;}
	.st3{fill:#5E7083;}
	.st4{fill:#FDE87B;stroke:#000000;stroke-width:2;stroke-linecap:round;stroke-linejoin:round;stroke-miterlimit:10;}
	.st5{fill:#E22326;}
	.st6{fill:#62BB46;}
	.st7{fill:none;stroke:#000000;stroke-width:2;stroke-miterlimit:10;}
	.st8{fill:#A97C50;stroke:#000000;stroke-width:2;stroke-linecap:round;stroke-linejoin:round;stroke-miterlimit:10;}
	.st9{fill:#694721;stroke:#000000;stroke-width:2;stroke-linecap:round;stroke-linejoin:round;stroke-miterlimit:10;}
	.st10{fill:url(#SVGID_1_);}
	.st11{fill:none;stroke:#000000;stroke-width:2;stroke-linecap:round;stroke-miterlimit:10;}
	.st12{fill:#E86B58;}
	.st13{fill:#94CAFF;stroke:#000000;stroke-width:2;stroke-linecap:round;stroke-linejoin:round;stroke-miterlimit:10;}
	.st14{fill:#94CAFF;}
	.st15{fill:#F2C3C6;}
	.st16{fill:#F2C3C6;stroke:#000000;stroke-width:2;stroke-linecap:round;stroke-linejoin:round;stroke-miterlimit:10;}
	.st17{fill:#E96C5E;stroke:#000000;stroke-width:2;stroke-linecap:round;stroke-linejoin:round;stroke-miterlimit:10;}
	.st18{fill:#F7E575;stroke:#000000;stroke-width:2;stroke-linecap:round;stroke-linejoin:round;stroke-miterlimit:10;}
	.st19{fill:#92C5D0;stroke:#000000;stroke-width:2;stroke-linecap:round;stroke-linejoin:round;stroke-miterlimit:10;}
	.st20{fill:none;}
	.st21{fill:#EFA5AC;}
	.st22{fill:#FFFFFF;stroke:#000000;stroke-width:2;stroke-linecap:round;stroke-linejoin:round;stroke-miterlimit:10;}
	.st23{fill:#C8B4A5;}
	.st24{fill:#C8B4A5;stroke:#000000;stroke-width:2;stroke-linecap:round;stroke-linejoin:round;stroke-miterlimit:10;}
	.st25{fill:none;stroke:#E97871;stroke-width:2;stroke-linecap:round;stroke-linejoin:round;stroke-miterlimit:10;}
	.st26{fill:#F7C711;}
	.st27{fill:none;stroke:#EB8023;stroke-width:2;stroke-linecap:round;stroke-linejoin:round;stroke-miterlimit:10;}
	.st28{fill:#2E3980;stroke:#000000;stroke-width:2;stroke-linecap:round;stroke-linejoin:round;stroke-miterlimit:10;}
	.st29{fill:#CCABFF;stroke:#000000;stroke-width:2;stroke-linecap:round;stroke-linejoin:round;stroke-miterlimit:10;}
	.st30{fill:#2960A8;stroke:#000000;stroke-width:2;stroke-linecap:round;stroke-linejoin:round;stroke-miterlimit:10;}
	.st31{fill:#7D95CA;stroke:#000000;stroke-width:2;stroke-linecap:round;stroke-linejoin:round;stroke-miterlimit:10;}
	.st32{fill:#F7C711;stroke:#000000;stroke-width:2;stroke-linecap:round;stroke-linejoin:round;stroke-miterlimit:10;}
	.st33{fill:#E8E8E8;}
	.st34{fill:#A1BB7C;stroke:#000000;stroke-width:2;stroke-linecap:round;stroke-linejoin:round;stroke-miterlimit:10;}
	.st35{fill:#CDB285;stroke:#000000;stroke-width:1.7482;stroke-linecap:round;stroke-linejoin:round;stroke-miterlimit:10;}
	.st36{fill:#665439;stroke:#000000;stroke-width:2;stroke-linecap:round;stroke-linejoin:round;stroke-miterlimit:10;}
	.st37{fill:#546631;stroke:#000000;stroke-width:2;stroke-linecap:round;stroke-linejoin:round;stroke-miterlimit:10;}
	.st38{fill:#E1F4FD;}
	.st39{fill:#EADBB6;stroke:#000000;stroke-width:2;stroke-linecap:round;stroke-linejoin:round;stroke-miterlimit:10;}
	.st40{fill:none;stroke:#000000;stroke-width:1.7482;stroke-linecap:round;stroke-linejoin:round;stroke-miterlimit:10;}
	.st41{fill:#002DAA;stroke:#000000;stroke-width:2;stroke-linecap:round;stroke-linejoin:round;stroke-miterlimit:10;}
	.st42{fill:#FFDA75;stroke:#000000;stroke-width:2;stroke-linecap:round;stroke-linejoin:round;stroke-miterlimit:10;}
	.st43{fill:#FFA9D3;stroke:#000000;stroke-width:2;stroke-linecap:round;stroke-linejoin:round;stroke-miterlimit:10;}
	.st44{fill:none;stroke:#C7B58B;stroke-width:2;stroke-linecap:round;stroke-linejoin:round;stroke-miterlimit:10;}
	.st45{fill:#FCE26B;stroke:#000000;stroke-width:2;stroke-linecap:round;stroke-linejoin:round;stroke-miterlimit:10;}
</style>
<g>
	<ellipse class="st33" cx="178.23" cy="288.24" rx="43.56" ry="6.37"/>
	<g>
		<path class="st34" d="M254.91,228c0.58,9.35-2.02,13.82-5.42,14.24c-3.41,0.42-6.17-4.82-7.09-12.28
			c-0.93-7.46,1.12-13.59,4.49-14.27C251.07,214.85,254.45,220.5,254.91,228z"/>
		<path class="st35" d="M231.3,224.19l11.54-19.88c0.32-0.54,0.86-0.9,1.48-0.98c2.33-0.27,8.06-0.26,10.15,5.74
			c0.23,0.65,0.11,1.38-0.33,1.92l-9.78,12.23"/>
		<path class="st36" d="M203.27,214.41l12.26-19.59c0.34-0.53,1.01-0.88,1.84-0.94c3.11-0.2,10.84-0.04,14.67,6.02
			c0.42,0.66,0.37,1.39-0.12,1.91l-11.17,11.98"/>
		<g>
			<path class="st34" d="M245.51,228.53c0,0,4.59,8.89,2.52,22.07c-2.07,13.19-12.3,17.48-24.89,16.74
				c-12.59-0.74-18.96-8.15-19.7-12.74s5.48-24.89,5.48-24.89"/>
			<path class="st34" d="M245.65,221.71c-18.44,5.78-37.33,2.44-37.33,2.44l-2.11,7.89c22.56,4.33,40.48-1.06,40.48-1.06
				C247.84,225.21,245.65,221.71,245.65,221.71z"/>
			<path class="st37" d="M239.06,243.86c-7.7,1.78-9.26,8.5-9.26,14.3c0,4.93,3.67,9.75,10.41,8.45c6.4-1.23,9.7-10.12,9.7-15.67
				C249.92,245.75,245.95,242.27,239.06,243.86z"/>
			<path class="st34" d="M249.72,249c-0.88-4.07-4.66-6.53-10.65-5.14c-5.49,1.27-7.84,4.68-8.75,8.89c1.14,0.9,3.91,2.1,8.19,2.11
				C244.04,254.87,248.56,251.94,249.72,249z"/>
			<path class="st37" d="M212.47,242.96l-0.43,4.15c-0.16,1.55,0.94,2.95,2.49,3.15l0.38,0.05c1.6,0.21,3.06-0.94,3.23-2.55
				l0.44-4.14c0.16-1.52-0.9-2.91-2.42-3.14l-0.38-0.06C214.14,240.17,212.64,241.33,212.47,242.96z"/>
		</g>
		<path class="st22" d="M133.76,204.58c0,0-16.11-2.63-22.7,3.8c-4.72,4.61-5.01,12.5-1.33,16.84c4.81,5.69,15.44,6.75,33.33,4.64
			l6.59-20.95C149.65,208.92,142.76,206.36,133.76,204.58z"/>
		<path class="st34" d="M138.58,201.84c0,0-6.36,6.82-7.23,19.7c-1.11,16.44,9.04,21.78,9.04,21.78s-2.07-11.11,1.41-21.78
			c3.48-10.67,9.14-17.5,9.14-17.5L138.58,201.84z"/>
		<path class="st22" d="M258.17,111.88c0,0-2.04-3.74-2.89-5.24c-1.49-2.64-1.14-5.75,0.19-8.47c1.07-2.19,2.27-4.73,3.14-6.91
			c4.53-11.46-1.39-21.29-11.1-27.15c-10.07-6.08-20.07-1.48-24.72,3.33c-4.65,4.81-7.91,7.11-10.05,7.43
			c-3.67,0.54-7.17-1.32-11.45-2.29c-8.87-2.02-15.88-3.13-25.9-2.86c-4.43,0.12-9.81,0.67-13.9,1.03c-3.21,0.28-5.75,0.97-8.76-2.5
			c-1.61-1.86-2.44-3.52-4.37-6.26c-5.28-7.48-14.25-10.02-25.09-6.08c-11,4-17.73,11.9-15.22,25.3c0.58,3.08,1.82,6.06,1.5,8.17
			c-0.38,2.5-2.02,4.63-3.86,6.56c-11.82,12.4-19.33,30.81-19.42,50.35c-0.21,42.04,39.11,62.4,87.07,62.65
			c47.96,0.25,84.04-11.8,91.48-53.13C268.31,136.44,261.22,116.87,258.17,111.88z"/>
		<path class="st38" d="M208.57,134.04c0,0,9.19-1.52,15.03,4.17c3.4,3.31,8.33,9.92,8.31,18.55c-0.02,5.94-2.83,14.5-13.89,16.13
			c-11.07,1.63-16.12-0.36-21.19-5.74c-3.44-3.65-4.99-8.54-5.15-12.55c-0.14-3.55,0.01-8.43,3.57-13.34
			C198.47,136.79,204.79,134.72,208.57,134.04z"/>
		<path class="st39" d="M222.01,214.92l8.7-23.37c0.65-1.74,1.84-3.27,3.47-4.14c2.05-1.08,5.39-1.8,9.98,0.43
			c4.69,2.28,5.99,5.38,6.26,7.73c0.22,1.87-0.37,3.75-1.45,5.29l-14.85,21.17"/>
		<path class="st39" d="M233.79,193.61c0,0,0.72,3.52,4.42,5.44c4.08,2.11,7.26,1.04,7.26,1.04"/>
		<path class="st40" d="M237.77,193.89c0,0-1.09-1.44-0.31-2.51c0.97-1.33,5.11-0.92,7.38,1.76c1.94,2.3,1.04,4.04-1.4,3.65"/>
		<path class="st38" d="M133.24,141.01c-2.91-6.78-10.34-9.56-10.34-9.56c-3.36-1.07-9.39-2.1-13.94,0.09
			c-5.02,2.41-8.03,5.45-9.09,8.67c-1.2,3.66-1.57,8.5-0.52,12.97c1.53,6.51,5.68,12.31,13.52,13.87c10.08,2,17.43-4.14,19.73-9.01
			C134.9,153.17,135.13,145.43,133.24,141.01z"/>
		<path class="st22" d="M143.87,208.92c0,0-7.26,13.75-6.07,30s10.15,27.14,13.85,36.33s3.27,13.25,11.99,13.51
			c9.33,0.27,14.62-2.12,16.84-10.23c0,0,18.84-4.78,25.48-19.83c5.91-13.39,6.35-31.37,5.17-45.3"/>
		<path d="M171.69,134.82c0.09,1.68,1.54,2.97,3.22,2.88c1.68-0.09,2.97-1.54,2.88-3.22c-0.09-1.68-1.54-2.97-3.22-2.88
			C172.89,131.69,171.6,133.14,171.69,134.82z"/>
		<path d="M146.76,133.75c0.09,1.62,1.47,2.85,3.09,2.76c1.62-0.09,2.85-1.47,2.76-3.09c-0.09-1.62-1.47-2.85-3.09-2.76
			C147.91,130.75,146.67,132.13,146.76,133.75z"/>
		<g>
			<path class="st22" d="M160.57,165.96c-9.71-0.37-15.56-4.18-16.48-10.71c-0.51-3.65,0.2-6.57,2.12-8.68
				c2.7-2.99,7.84-4.36,15.26-4.07c11.44,0.44,17.07,4.98,16.74,13.49C177.97,162.35,170.88,166.36,160.57,165.96z"/>
			<path d="M168.16,143.56c-0.27,3.22-3.49,4.19-7.33,3.86c-3.84-0.32-6.85-1.81-6.58-5.04c0.27-3.22,3.61-5.57,7.45-5.25
				C165.54,137.47,168.44,140.34,168.16,143.56z"/>
		</g>
		<path id="XMLID_27_" class="st1" d="M125.82,66.26c-1.29,1.61-2.5,3.3-3.61,5.04l10.45,1.72c-0.03,0.51-0.45,0.91-0.83,1.25
			c-1.74,1.54-3.48,3.08-5.22,4.62"/>
		<path id="XMLID_26_" class="st1" d="M246.04,75.71c-2.55-0.01-5.11,0.38-7.55,1.15c-0.19,0.06-0.39,0.13-0.48,0.3
			c-0.17,0.28,0.05,0.63,0.26,0.89c1.62,1.93,3.38,3.73,5.27,5.39c-2.59,0.43-5.19,0.77-7.8,1.03"/>
		<path class="st22" d="M195.72,207.52c0,0,10.96-1.23,23.85,3.07c12.89,4.3,21.9,11.97,19.78,21.93
			c-1.93,9.04-11.2,10.32-16.45,8.85c-6-1.67-7.7-4.26-15.92-8.71"/>
		<path class="st22" d="M182.31,250.81c0,0-3.57,1.88-8.37,1.46c-3.91-0.35-12.22-0.51-12.89,10.27
			c-0.44,7.17,3.04,12.39,6.82,14.61c2.68,1.58,7.78,2.5,12.61,1.39"/>
		<path class="st1" d="M187.75,223.75c-1.05,0.46-2.18,1.13-3.25,2.06c-0.07,0.06-0.15,0.14-0.16,0.24
			c-0.02,0.17,0.15,0.28,0.3,0.35c1.14,0.56,2.32,1.03,3.53,1.41c-1.11,0.72-2.24,1.41-3.39,2.06"/>
		<g>
			<path class="st41" d="M156.88,210.81c0,0-2.95-5.19-12.13-7.12c-7.67-1.61-13.41-0.43-13.41-0.43s4.59,8.66,12.95,10.05
				s13.08-0.5,13.08-0.5L156.88,210.81z"/>
			<path class="st41" d="M162.44,210.97c0,0,1.68-2.17,14.05-3.98c4.01-0.59,12.94-1.99,19.83-1.29c7.61,0.77,9.65,1.26,9.65,1.26
				s-12.47,9.99-27.25,10.51c-13.17,0.46-16.27-4.65-16.27-4.65V210.97z"/>
			<g>
				<path class="st41" d="M158.2,212.28c0,0-3.37-2.42-8.86,0.58c-3.53,1.93-5.79,6.29-6.58,12.11c0,0,6.2-0.63,10.94-2.94
					c3.17-1.55,5.39-4.35,5.44-8.21L158.2,212.28z"/>
				<line class="st41" x1="151.9" y1="216.81" x2="157.05" y2="213.4"/>
			</g>
			<g>
				<path class="st41" d="M163,213.2c0,0,4.11-1.84,10.57,1.83c3.56,2.02,4.81,6.29,5.63,12.11c0,0-7.56-0.56-11.5-3.22
					c-2.98-2.02-5.61-5.32-5.67-9.17L163,213.2z"/>
				<line class="st41" x1="169.46" y1="218.2" x2="164.18" y2="214.32"/>
			</g>
			<path class="st41" d="M154.84,207.82c0,0-0.42,5.54,3.56,9l3.51,0.22c0,0,4.6-3.24,4.38-8.31
				C166.29,208.73,161.82,206.79,154.84,207.82z"/>
		</g>
		<g>
			<path class="st42" d="M117.82,221.26c1.24-1.28,1.2-3.31-0.07-4.55l-25.29-24.52l-8.21-2.8l3.06,8.12l25.29,24.52
				c1.28,1.24,3.31,1.2,4.55-0.07L117.82,221.26z"/>
			<path class="st22" d="M84.24,189.39l3.06,8.12l0.44,0.42c0.39-0.21,1.88-1.05,3.02-2.23c1.14-1.18,1.94-2.69,2.14-3.09
				l-0.44-0.42L84.24,189.39z"/>
			<path class="st43" d="M110.49,219.99l2.1,2.04c1.28,1.24,3.31,1.2,4.55-0.07l0.68-0.7c1.24-1.28,1.2-3.31-0.07-4.55l-2.1-2.04
				c-0.16,0.43-1.05,1.85-2.19,3.04C112.31,218.89,110.91,219.82,110.49,219.99z"/>
			<line class="st1" x1="82.9" y1="188.08" x2="85.03" y2="190.15"/>
		</g>
		<path class="st22" d="M119.36,210.36c0,0-6.22,0.48-5.08,4.79c0.97,3.66,6.6,2.31,6.6,2.31"/>
		<path class="st34" d="M217.66,209.98c0,0-0.58-3.2-6-4.37c-5.38-1.16-13.79,2.93-17.81,11.67c-6.67,14.52,4.55,29.74,18.92,31.37
			c0,0,1.97-1.44,2.08-7.75c0,0-14.33-1.95-13.63-15.14C201.99,211.13,217.66,209.98,217.66,209.98z"/>
		<g>
			<line class="st44" x1="233.28" y1="205.71" x2="234.58" y2="209.9"/>
			<line class="st44" x1="236.98" y1="204.81" x2="238.27" y2="209"/>
		</g>
	</g>
</g>
</svg>
